<svg width="2744" height="561" xmlns="http://www.w3.org/2000/svg" xmlns:xlink="http://www.w3.org/1999/xlink" xml:space="preserve" overflow="hidden"><defs><clipPath id="clip0"><rect x="218" y="1494" width="2744" height="561"/></clipPath><clipPath id="clip1"><rect x="217" y="1494" width="2744" height="560"/></clipPath></defs><g clip-path="url(#clip0)" transform="translate(-218 -1494)"><g><path d="M481.5 1690.56 2908.5 1690.56M481.5 1522.5 2908.5 1522.5" stroke="#F2F2F2" stroke-width="3.4375" stroke-linejoin="round" stroke-miterlimit="10" fill="none"/></g><g><path d="M1220.04 1690.06 1260.04 1690.06 1260.04 1858 1220.04 1858ZM1321.04 1656.05 1361.04 1656.05 1361.04 1858 1321.04 1858ZM1422.05 1640.05 1462.05 1640.05 1462.05 1858 1422.05 1858ZM1523.05 1640.05 1564.05 1640.05 1564.05 1858 1523.05 1858ZM1624.05 1640.05 1665.05 1640.05 1665.05 1858 1624.05 1858ZM1725.06 1640.05 1766.06 1640.05 1766.06 1858 1725.06 1858ZM1826.06 1640.05 1867.06 1640.05 1867.06 1858 1826.06 1858ZM1927.06 1640.05 1968.06 1640.05 1968.06 1858 1927.06 1858ZM2029.07 1640.05 2069.07 1640.05 2069.07 1858 2029.07 1858ZM2130.07 1640.05 2170.07 1640.05 2170.07 1858 2130.07 1858ZM2231.07 1640.05 2271.07 1640.05 2271.07 1858 2231.07 1858ZM2332.08 1824.06 2372.08 1824.06 2372.08 1858 2332.08 1858Z" fill="#F2D9BB"/></g><g><path d="M481.5 1857.5 2908.5 1857.5" stroke="#D9D9D9" stroke-width="3.4375" stroke-linejoin="round" stroke-miterlimit="10" fill="none" fill-rule="evenodd"/></g><g><text font-family="Calibri,Calibri_MSFontService,sans-serif" font-weight="400" font-size="46" transform="matrix(1 0 0 1 392.875 1871)">$0</text></g><g><text font-family="Calibri,Calibri_MSFontService,sans-serif" font-weight="400" font-size="46" transform="matrix(1 0 0 1 311.727 1704)">$5,000</text></g><g clip-path="url(#clip1)"><text font-family="Calibri,Calibri_MSFontService,sans-serif" font-weight="400" font-size="46" transform="matrix(1 0 0 1 288.489 1536)">$10,000</text></g><g><text font-family="Calibri,Calibri_MSFontService,sans-serif" font-weight="400" font-size="46" transform="matrix(1 0 0 1 520.792 1931)">1</text></g><g><text font-family="Calibri,Calibri_MSFontService,sans-serif" font-weight="400" font-size="46" transform="matrix(1 0 0 1 621.886 1931)">2</text></g><g><text font-family="Calibri,Calibri_MSFontService,sans-serif" font-weight="400" font-size="46" transform="matrix(1 0 0 1 722.979 1931)">3</text></g><g><text font-family="Calibri,Calibri_MSFontService,sans-serif" font-weight="400" font-size="46" transform="matrix(1 0 0 1 824.073 1931)">4</text></g><g><text font-family="Calibri,Calibri_MSFontService,sans-serif" font-weight="400" font-size="46" transform="matrix(1 0 0 1 925.166 1931)">5</text></g><g><text font-family="Calibri,Calibri_MSFontService,sans-serif" font-weight="400" font-size="46" transform="matrix(1 0 0 1 1026.26 1931)">6</text></g><g><text font-family="Calibri,Calibri_MSFontService,sans-serif" font-weight="400" font-size="46" transform="matrix(1 0 0 1 1127.35 1931)">7</text></g><g><text font-family="Calibri,Calibri_MSFontService,sans-serif" font-weight="400" font-size="46" transform="matrix(1 0 0 1 1228.45 1931)">8</text></g><g><text font-family="Calibri,Calibri_MSFontService,sans-serif" font-weight="400" font-size="46" transform="matrix(1 0 0 1 1329.54 1931)">9</text></g><g><text font-family="Calibri,Calibri_MSFontService,sans-serif" font-weight="400" font-size="46" transform="matrix(1 0 0 1 1419.02 1931)">10</text></g><g><text font-family="Calibri,Calibri_MSFontService,sans-serif" font-weight="400" font-size="46" transform="matrix(1 0 0 1 1520.11 1931)">11</text></g><g><text font-family="Calibri,Calibri_MSFontService,sans-serif" font-weight="400" font-size="46" transform="matrix(1 0 0 1 1621.2 1931)">12</text></g><g><text font-family="Calibri,Calibri_MSFontService,sans-serif" font-weight="400" font-size="46" transform="matrix(1 0 0 1 1722.3 1931)">13</text></g><g><text font-family="Calibri,Calibri_MSFontService,sans-serif" font-weight="400" font-size="46" transform="matrix(1 0 0 1 1823.39 1931)">14</text></g><g><text font-family="Calibri,Calibri_MSFontService,sans-serif" font-weight="400" font-size="46" transform="matrix(1 0 0 1 1924.48 1931)">15</text></g><g><text font-family="Calibri,Calibri_MSFontService,sans-serif" font-weight="400" font-size="46" transform="matrix(1 0 0 1 2025.58 1931)">16</text></g><g><text font-family="Calibri,Calibri_MSFontService,sans-serif" font-weight="400" font-size="46" transform="matrix(1 0 0 1 2126.67 1931)">17</text></g><g><text font-family="Calibri,Calibri_MSFontService,sans-serif" font-weight="400" font-size="46" transform="matrix(1 0 0 1 2227.76 1931)">18</text></g><g><text font-family="Calibri,Calibri_MSFontService,sans-serif" font-weight="400" font-size="46" transform="matrix(1 0 0 1 2328.86 1931)">19</text></g><g><text font-family="Calibri,Calibri_MSFontService,sans-serif" font-weight="400" font-size="46" transform="matrix(1 0 0 1 2429.95 1931)">20</text></g><g><text font-family="Calibri,Calibri_MSFontService,sans-serif" font-weight="400" font-size="46" transform="matrix(1 0 0 1 2531.04 1931)">21</text></g><g><text font-family="Calibri,Calibri_MSFontService,sans-serif" font-weight="400" font-size="46" transform="matrix(1 0 0 1 2632.14 1931)">22</text></g><g><text font-family="Calibri,Calibri_MSFontService,sans-serif" font-weight="400" font-size="46" transform="matrix(1 0 0 1 2733.23 1931)">23</text></g><g><text font-family="Calibri,Calibri_MSFontService,sans-serif" font-weight="400" font-size="46" transform="matrix(1 0 0 1 2834.32 1931)">24</text></g><g><text fill="#376C8A" font-family="Calibri,Calibri_MSFontService,sans-serif" font-weight="700" font-size="46" transform="matrix(1 0 0 1 1341.33 2027)">Years in Retirement</text></g></g></svg>