<svg width="2745" height="756" xmlns="http://www.w3.org/2000/svg" xmlns:xlink="http://www.w3.org/1999/xlink" xml:space="preserve" overflow="hidden"><defs><clipPath id="clip0"><rect x="217" y="581" width="2745" height="756"/></clipPath></defs><g clip-path="url(#clip0)" transform="translate(-217 -581)"><g><path d="M550.5 971.532 2911.5 971.532M550.5 867.529 2911.5 867.529M550.5 763.525 2911.5 763.525M550.5 660.5 2911.5 660.5" stroke="#F2F2F2" stroke-width="3.4375" stroke-linejoin="round" stroke-miterlimit="10" fill="none"/></g><g><path d="M580.019 712.023 620.02 712.023 620.02 1075 580.019 1075ZM679.022 712.023 718.024 712.023 718.024 1075 679.022 1075ZM777.026 712.023 816.027 712.023 816.027 1075 777.026 1075ZM875.029 712.023 915.03 712.023 915.03 1075 875.029 1075ZM974.032 712.023 1013.03 712.023 1013.03 1075 974.032 1075ZM1072.04 712.023 1111.04 712.023 1111.04 1075 1072.04 1075ZM1170.04 743.024 1210.04 743.024 1210.04 1075 1170.04 1075Z" fill="#F2D9BB"/></g><g><path d="M1170.04 712.023 1210.04 712.023 1210.04 743.024 1170.04 743.024ZM1269.04 681.022 1308.04 681.022 1308.04 1075 1269.04 1075ZM1367.04 660.022 1407.05 660.022 1407.05 1075 1367.04 1075ZM1466.05 650.021 1505.05 650.021 1505.05 1075 1466.05 1075ZM1564.05 650.021 1603.05 650.021 1603.05 1075 1564.05 1075ZM1662.05 650.021 1702.06 650.021 1702.06 1075 1662.05 1075ZM1761.06 650.021 1800.06 650.021 1800.06 1075 1761.06 1075ZM1859.06 650.021 1898.06 650.021 1898.06 1075 1859.06 1075ZM1957.06 650.021 1997.07 650.021 1997.07 1075 1957.06 1075ZM2056.07 650.021 2095.07 650.021 2095.07 1075 2056.07 1075ZM2154.07 650.021 2193.07 650.021 2193.07 1075 2154.07 1075ZM2252.07 650.021 2292.08 650.021 2292.08 1075 2252.07 1075ZM2351.08 878.029 2390.08 878.029 2390.08 1075 2351.08 1075Z" fill="#376C8A"/></g><g><path d="M2351.08 681.022 2390.08 681.022 2390.08 878.029 2351.08 878.029ZM2449.08 722.024 2488.08 722.024 2488.08 1075 2449.08 1075ZM2547.08 712.023 2587.08 712.023 2587.08 1075 2547.08 1075ZM2646.09 712.023 2685.09 712.023 2685.09 1075 2646.09 1075ZM2744.09 930.031 2783.09 930.031 2783.09 1075 2744.09 1075Z" fill="#E6B127"/></g><g><path d="M550.5 1075.5 2911.5 1075.5" stroke="#D9D9D9" stroke-width="3.4375" stroke-linejoin="round" stroke-miterlimit="10" fill="none" fill-rule="evenodd"/></g><g><text font-family="Barlow,Barlow_MSFontService,sans-serif" font-weight="400" font-size="46" transform="matrix(1 0 0 1 456.657 1091)">$0</text></g><g><text font-family="Barlow,Barlow_MSFontService,sans-serif" font-weight="400" font-size="46" transform="matrix(1 0 0 1 350.828 988)">$10,000</text></g><g><text font-family="Barlow,Barlow_MSFontService,sans-serif" font-weight="400" font-size="46" transform="matrix(1 0 0 1 342.303 884)">$20,000</text></g><g><text font-family="Barlow,Barlow_MSFontService,sans-serif" font-weight="400" font-size="46" transform="matrix(1 0 0 1 343.265 780)">$30,000</text></g><g><text font-family="Barlow,Barlow_MSFontService,sans-serif" font-weight="400" font-size="46" transform="matrix(1 0 0 1 341.615 676)">$40,000</text></g><g><text font-family="Barlow,Barlow_MSFontService,sans-serif" font-weight="400" font-size="46" transform="matrix(1 0 0 1 592.104 1152)">1</text></g><g><text font-family="Barlow,Barlow_MSFontService,sans-serif" font-weight="400" font-size="46" transform="matrix(1 0 0 1 686.188 1152)">2</text></g><g><text font-family="Barlow,Barlow_MSFontService,sans-serif" font-weight="400" font-size="46" transform="matrix(1 0 0 1 785.017 1152)">3</text></g><g><text font-family="Barlow,Barlow_MSFontService,sans-serif" font-weight="400" font-size="46" transform="matrix(1 0 0 1 882.539 1152)">4</text></g><g><text font-family="Barlow,Barlow_MSFontService,sans-serif" font-weight="400" font-size="46" transform="matrix(1 0 0 1 981.734 1152)">5</text></g><g><text font-family="Barlow,Barlow_MSFontService,sans-serif" font-weight="400" font-size="46" transform="matrix(1 0 0 1 1080.06 1152)">6</text></g><g><text font-family="Barlow,Barlow_MSFontService,sans-serif" font-weight="400" font-size="46" transform="matrix(1 0 0 1 1179.37 1152)">7</text></g><g><text font-family="Barlow,Barlow_MSFontService,sans-serif" font-weight="400" font-size="46" transform="matrix(1 0 0 1 1276.61 1152)">8</text></g><g><text font-family="Barlow,Barlow_MSFontService,sans-serif" font-weight="400" font-size="46" transform="matrix(1 0 0 1 1374.96 1152)">9</text></g><g><text font-family="Barlow,Barlow_MSFontService,sans-serif" font-weight="400" font-size="46" transform="matrix(1 0 0 1 1464.28 1152)">10</text></g><g><text font-family="Barlow,Barlow_MSFontService,sans-serif" font-weight="400" font-size="46" transform="matrix(1 0 0 1 1567.55 1152)">11</text></g><g><text font-family="Barlow,Barlow_MSFontService,sans-serif" font-weight="400" font-size="46" transform="matrix(1 0 0 1 1661.64 1152)">12</text></g><g><text font-family="Barlow,Barlow_MSFontService,sans-serif" font-weight="400" font-size="46" transform="matrix(1 0 0 1 1760.47 1152)">13</text></g><g><text font-family="Barlow,Barlow_MSFontService,sans-serif" font-weight="400" font-size="46" transform="matrix(1 0 0 1 1857.99 1152)">14</text></g><g><text font-family="Barlow,Barlow_MSFontService,sans-serif" font-weight="400" font-size="46" transform="matrix(1 0 0 1 1957.18 1152)">15</text></g><g><text font-family="Barlow,Barlow_MSFontService,sans-serif" font-weight="400" font-size="46" transform="matrix(1 0 0 1 2055.51 1152)">16</text></g><g><text font-family="Barlow,Barlow_MSFontService,sans-serif" font-weight="400" font-size="46" transform="matrix(1 0 0 1 2154.82 1152)">17</text></g><g><text font-family="Barlow,Barlow_MSFontService,sans-serif" font-weight="400" font-size="46" transform="matrix(1 0 0 1 2252.06 1152)">18</text></g><g><text font-family="Barlow,Barlow_MSFontService,sans-serif" font-weight="400" font-size="46" transform="matrix(1 0 0 1 2350.41 1152)">19</text></g><g><text font-family="Barlow,Barlow_MSFontService,sans-serif" font-weight="400" font-size="46" transform="matrix(1 0 0 1 2443.49 1152)">20</text></g><g><text font-family="Barlow,Barlow_MSFontService,sans-serif" font-weight="400" font-size="46" transform="matrix(1 0 0 1 2546.76 1152)">21</text></g><g><text font-family="Barlow,Barlow_MSFontService,sans-serif" font-weight="400" font-size="46" transform="matrix(1 0 0 1 2640.85 1152)">22</text></g><g><text font-family="Barlow,Barlow_MSFontService,sans-serif" font-weight="400" font-size="46" transform="matrix(1 0 0 1 2739.67 1152)">23</text></g><g><text font-family="Barlow,Barlow_MSFontService,sans-serif" font-weight="400" font-size="46" transform="matrix(1 0 0 1 2837.2 1152)">24</text></g><g><text fill="#376C8A" font-family="Barlow,Barlow_MSFontService,sans-serif" font-weight="700" font-size="46" transform="matrix(6.12323e-17 -1 1 6.12323e-17 270.78 1157)">Withdrawal Amount</text></g><g><text fill="#376C8A" font-family="Barlow,Barlow_MSFontService,sans-serif" font-weight="700" font-size="46" transform="matrix(1 0 0 1 1341.33 1221)">Years in Retirement</text></g><g><rect x="734" y="1274" width="25.0001" height="24.0001" fill="#F2D9BB"/></g><g><text font-family="Barlow,Barlow_MSFontService,sans-serif" font-weight="400" font-size="46" transform="matrix(1 0 0 1 769.375 1302)">Taxable Withdrawals</text></g><g><rect x="1374" y="1274" width="25.0001" height="24.0001" fill="#376C8A"/></g><g><text font-family="Barlow,Barlow_MSFontService,sans-serif" font-weight="400" font-size="46" transform="matrix(1 0 0 1 1409.23 1302)">Traditional Withdrawals</text></g><g><rect x="2074" y="1274" width="25" height="24.0001" fill="#E6B127"/></g><g><text font-family="Barlow,Barlow_MSFontService,sans-serif" font-weight="400" font-size="46" transform="matrix(1 0 0 1 2109.22 1302)">Roth Withdrawals</text></g></g></svg>