<svg width="301" height="301" xmlns="http://www.w3.org/2000/svg" xmlns:xlink="http://www.w3.org/1999/xlink" xml:space="preserve" overflow="hidden"><g transform="translate(-2645 -982)"><path d="M2706.08 1103.76C2705.52 1105.89 2703.63 1107.4 2701.43 1107.47L2694.8 1107.47C2692.47 1107.47 2690.47 1109.12 2690.02 1111.4 2687.33 1125 2687.33 1138.99 2690.02 1152.59 2690.47 1154.88 2692.47 1156.53 2694.8 1156.52L2701.43 1156.52C2703.63 1156.59 2705.52 1158.1 2706.08 1160.23 2707.69 1165.28 2709.73 1170.19 2712.17 1174.89 2713.27 1176.8 2712.99 1179.2 2711.5 1180.81L2706.79 1185.53C2705.14 1187.17 2704.89 1189.75 2706.19 1191.68 2713.92 1203.19 2723.81 1213.08 2735.32 1220.81 2737.24 1222.11 2739.83 1221.86 2741.47 1220.21L2746.19 1215.5C2747.81 1214 2750.21 1213.73 2752.11 1214.83 2756.82 1217.27 2761.72 1219.31 2766.77 1220.92 2768.9 1221.48 2770.4 1223.37 2770.47 1225.57L2770.47 1232.2C2770.47 1234.53 2772.12 1236.53 2774.41 1236.98 2788 1239.67 2802 1239.67 2815.59 1236.98 2817.88 1236.53 2819.53 1234.53 2819.53 1232.2L2819.53 1225.57C2819.6 1223.37 2821.1 1221.48 2823.23 1220.92 2828.28 1219.31 2833.19 1217.27 2837.89 1214.83 2839.8 1213.74 2842.2 1214.01 2843.81 1215.5L2848.53 1220.21C2850.17 1221.86 2852.75 1222.11 2854.68 1220.81 2866.19 1213.08 2876.08 1203.19 2883.81 1191.68 2885.11 1189.75 2884.86 1187.17 2883.21 1185.53L2878.5 1180.81C2877 1179.19 2876.73 1176.79 2877.83 1174.89 2880.27 1170.18 2882.31 1165.28 2883.92 1160.23 2884.48 1158.1 2886.37 1156.59 2888.57 1156.52L2895.2 1156.52C2897.53 1156.53 2899.53 1154.88 2899.98 1152.59 2902.67 1138.99 2902.67 1125 2899.98 1111.4 2899.53 1109.12 2897.53 1107.47 2895.2 1107.47L2888.57 1107.47C2886.37 1107.4 2884.48 1105.89 2883.92 1103.76 2882.31 1098.71 2880.27 1093.81 2877.83 1089.1 2876.73 1087.19 2877.01 1084.8 2878.5 1083.18L2883.21 1078.47C2884.86 1076.82 2885.11 1074.24 2883.81 1072.31 2876.08 1060.8 2866.19 1050.91 2854.68 1043.18 2852.75 1041.89 2850.17 1042.13 2848.53 1043.78L2843.81 1048.49 2843.81 1048.5C2842.19 1049.99 2839.8 1050.26 2837.89 1049.16 2833.18 1046.72 2828.28 1044.68 2823.23 1043.08 2821.1 1042.52 2819.6 1040.62 2819.53 1038.42L2819.53 1031.79C2819.53 1029.46 2817.88 1027.46 2815.59 1027.02 2802 1024.33 2788 1024.33 2774.41 1027.02 2772.12 1027.46 2770.47 1029.46 2770.47 1031.79L2770.47 1038.42C2770.4 1040.62 2768.9 1042.52 2766.77 1043.08 2761.72 1044.68 2756.81 1046.72 2752.11 1049.16 2750.2 1050.26 2747.8 1049.98 2746.19 1048.5L2741.47 1043.78C2739.83 1042.13 2737.24 1041.88 2735.32 1043.18 2723.81 1050.91 2713.92 1060.8 2706.19 1072.31 2704.89 1074.24 2705.14 1076.82 2706.78 1078.47L2711.5 1083.19 2711.5 1083.19C2713 1084.8 2713.27 1087.2 2712.17 1089.11 2709.73 1093.81 2707.69 1098.71 2706.08 1103.76ZM2715.35 1106.71 2715.35 1106.71C2716.79 1102.19 2718.61 1097.8 2720.8 1093.59 2722.29 1090.83 2722.87 1087.66 2722.43 1084.55 2722 1081.44 2720.58 1078.55 2718.38 1076.3L2716.56 1074.48 2716.56 1074.47C2722.42 1066.47 2729.48 1059.41 2737.48 1053.55L2739.31 1055.37C2741.55 1057.57 2744.44 1058.99 2747.55 1059.43 2750.66 1059.86 2753.83 1059.29 2756.6 1057.79 2760.81 1055.61 2765.19 1053.78 2769.71 1052.35 2772.72 1051.45 2775.35 1049.61 2777.24 1047.1 2779.13 1044.6 2780.17 1041.56 2780.2 1038.42L2780.2 1035.88 2780.2 1035.88C2790.01 1034.34 2799.99 1034.34 2809.8 1035.88L2809.8 1038.43 2809.8 1038.42C2809.84 1041.56 2810.88 1044.6 2812.76 1047.1 2814.65 1049.61 2817.28 1051.45 2820.29 1052.35 2824.81 1053.78 2829.19 1055.61 2833.4 1057.79 2836.16 1059.29 2839.33 1059.86 2842.44 1059.43 2845.56 1058.99 2848.45 1057.57 2850.69 1055.37L2852.52 1053.55 2852.52 1053.55C2860.53 1059.41 2867.58 1066.47 2873.45 1074.47L2871.62 1076.3C2869.43 1078.54 2868.01 1081.43 2867.57 1084.55 2867.13 1087.66 2867.71 1090.82 2869.2 1093.59 2871.39 1097.8 2873.21 1102.19 2874.65 1106.71 2875.55 1109.71 2877.39 1112.35 2879.89 1114.23 2882.39 1116.12 2885.43 1117.16 2888.57 1117.2L2891.12 1117.2 2891.11 1117.2C2892.66 1127 2892.66 1136.99 2891.11 1146.8L2888.57 1146.8 2888.57 1146.8C2885.43 1146.83 2882.39 1147.87 2879.89 1149.76 2877.39 1151.64 2875.55 1154.28 2874.65 1157.28 2873.21 1161.8 2871.39 1166.19 2869.2 1170.4 2867.71 1173.16 2867.13 1176.33 2867.57 1179.44 2868 1182.55 2869.43 1185.44 2871.62 1187.69L2873.45 1189.52 2873.45 1189.52C2867.58 1197.52 2860.53 1204.58 2852.52 1210.44L2850.7 1208.62C2848.45 1206.42 2845.56 1205 2842.45 1204.56 2839.34 1204.13 2836.17 1204.7 2833.41 1206.2 2829.2 1208.38 2824.81 1210.21 2820.29 1211.65 2817.28 1212.55 2814.65 1214.38 2812.76 1216.89 2810.88 1219.39 2809.84 1222.43 2809.8 1225.57L2809.8 1228.11 2809.8 1228.11C2799.99 1229.65 2790.01 1229.65 2780.2 1228.11L2780.2 1225.57 2780.2 1225.57C2780.16 1222.43 2779.13 1219.39 2777.24 1216.89 2775.35 1214.38 2772.72 1212.55 2769.71 1211.65 2765.2 1210.21 2760.81 1208.39 2756.6 1206.2 2753.84 1204.7 2750.67 1204.13 2747.56 1204.56 2744.45 1205 2741.56 1206.42 2739.31 1208.62L2737.48 1210.44 2737.48 1210.44C2729.48 1204.58 2722.42 1197.52 2716.56 1189.52L2718.38 1187.69C2720.58 1185.45 2722 1182.56 2722.43 1179.45 2722.87 1176.34 2722.3 1173.17 2720.8 1170.4 2718.62 1166.19 2716.79 1161.8 2715.35 1157.28 2714.45 1154.28 2712.62 1151.64 2710.11 1149.76 2707.61 1147.87 2704.57 1146.83 2701.43 1146.8L2698.89 1146.8 2698.89 1146.8C2697.34 1136.99 2697.34 1127 2698.89 1117.2L2701.43 1117.2 2701.43 1117.2C2704.57 1117.16 2707.61 1116.12 2710.11 1114.23 2712.62 1112.35 2714.45 1109.71 2715.35 1106.71Z" fill="#F2D9BB" fill-rule="evenodd"/><path d="M2795 1205C2814.36 1205 2832.93 1197.31 2846.62 1183.62 2860.31 1169.93 2868 1151.36 2868 1132 2868 1112.64 2860.31 1094.07 2846.62 1080.38 2832.93 1066.69 2814.36 1059 2795 1059 2775.64 1059 2757.07 1066.69 2743.38 1080.38 2729.69 1094.07 2722 1112.64 2722 1132 2722.02 1151.35 2729.72 1169.91 2743.4 1183.6 2757.09 1197.28 2775.65 1204.98 2795 1205ZM2795 1068.73C2811.78 1068.73 2827.87 1075.4 2839.74 1087.26 2851.6 1099.13 2858.27 1115.22 2858.27 1132 2858.27 1148.78 2851.6 1164.87 2839.74 1176.74 2827.87 1188.6 2811.78 1195.27 2795 1195.27 2778.22 1195.27 2762.13 1188.6 2750.26 1176.74 2738.4 1164.87 2731.73 1148.78 2731.73 1132 2731.75 1115.23 2738.43 1099.15 2750.29 1087.29 2762.15 1075.42 2778.23 1068.75 2795 1068.73Z" fill="#F2D9BB" fill-rule="evenodd"/><path d="M2768.5 1113C2771.81 1113 2775 1111.68 2777.34 1109.34 2779.68 1107 2781 1103.81 2781 1100.5 2781 1097.19 2779.68 1094 2777.34 1091.66 2775 1089.32 2771.81 1088 2768.5 1088 2765.19 1088 2762 1089.32 2759.66 1091.66 2757.32 1094 2756 1097.19 2756 1100.5 2756 1103.81 2757.32 1106.99 2759.67 1109.33 2762.01 1111.68 2765.19 1113 2768.5 1113ZM2768.5 1098C2769.51 1098 2770.42 1098.61 2770.81 1099.54 2771.2 1100.48 2770.98 1101.55 2770.27 1102.27 2769.55 1102.98 2768.48 1103.2 2767.54 1102.81 2766.61 1102.42 2766 1101.51 2766 1100.5 2766 1099.12 2767.12 1098 2768.5 1098Z" fill="#F2D9BB" fill-rule="evenodd"/><path d="M2768.5 1171C2771.81 1171 2775 1169.74 2777.34 1167.49 2779.68 1165.24 2781 1162.18 2781 1159 2781 1155.82 2779.68 1152.76 2777.34 1150.51 2775 1148.26 2771.81 1147 2768.5 1147 2765.19 1147 2762 1148.26 2759.66 1150.51 2757.32 1152.76 2756 1155.82 2756 1159 2756 1162.18 2757.32 1165.23 2759.67 1167.48 2762.01 1169.73 2765.19 1171 2768.5 1171ZM2768.5 1156.6C2769.51 1156.6 2770.42 1157.19 2770.81 1158.08 2771.2 1158.98 2770.98 1160.01 2770.27 1160.7 2769.55 1161.38 2768.48 1161.59 2767.54 1161.22 2766.61 1160.85 2766 1159.97 2766 1159 2766 1157.68 2767.12 1156.6 2768.5 1156.6Z" fill="#F2D9BB" fill-rule="evenodd"/><path d="M2768.5 1142C2771.81 1142 2775 1140.74 2777.34 1138.49 2779.68 1136.24 2781 1133.18 2781 1130 2781 1126.82 2779.68 1123.76 2777.34 1121.51 2775 1119.26 2771.81 1118 2768.5 1118 2765.19 1118 2762 1119.26 2759.66 1121.51 2757.32 1123.76 2756 1126.82 2756 1130 2756 1133.18 2757.32 1136.23 2759.67 1138.48 2762.01 1140.73 2765.19 1142 2768.5 1142ZM2768.5 1127.6C2769.51 1127.6 2770.42 1128.19 2770.81 1129.08 2771.2 1129.98 2770.98 1131.01 2770.27 1131.7 2769.55 1132.38 2768.48 1132.59 2767.54 1132.22 2766.61 1131.84 2766 1130.97 2766 1130 2766 1128.68 2767.12 1127.6 2768.5 1127.6Z" fill="#F2D9BB" fill-rule="evenodd"/><path d="M2786 1096 2834 1096 2834 1105 2786 1105Z" fill="#F2D9BB" fill-rule="evenodd"/><path d="M2786 1125 2834 1125 2834 1135 2786 1135Z" fill="#F2D9BB" fill-rule="evenodd"/><path d="M2786 1154 2834 1154 2834 1164 2786 1164Z" fill="#F2D9BB" fill-rule="evenodd"/><path d="M2669 1030C2675.36 1030 2681.47 1027.47 2685.97 1022.97 2690.47 1018.47 2693 1012.36 2693 1006 2693 999.636 2690.47 993.531 2685.97 989.028 2681.47 984.528 2675.36 982 2669 982 2662.64 982 2656.53 984.529 2652.03 989.028 2647.53 993.53 2645 999.636 2645 1006 2645.01 1012.36 2647.54 1018.46 2652.04 1022.96 2656.54 1027.46 2662.64 1029.99 2669 1030ZM2669 991.6C2672.82 991.6 2676.48 993.117 2679.18 995.817 2681.88 998.517 2683.4 1002.18 2683.4 1006 2683.4 1009.82 2681.88 1013.48 2679.18 1016.18 2676.48 1018.88 2672.82 1020.4 2669 1020.4 2665.18 1020.4 2661.52 1018.88 2658.82 1016.18 2656.12 1013.48 2654.6 1009.82 2654.6 1006 2654.6 1002.18 2656.12 998.521 2658.82 995.821 2661.52 993.123 2665.18 991.604 2669 991.6Z" fill="#F2D9BB" fill-rule="evenodd"/><path d="M2943.54 1254.25 2909.31 1234.65C2907.8 1233.78 2905.94 1233.78 2904.43 1234.66 2902.93 1235.54 2902 1237.15 2902 1238.9L2902 1278.1C2902 1279.85 2902.93 1281.46 2904.44 1282.34 2905.94 1283.21 2907.8 1283.22 2909.31 1282.35L2943.54 1262.76C2945.06 1261.88 2946 1260.26 2946 1258.5 2946 1256.74 2945.06 1255.12 2943.54 1254.25ZM2911.78 1269.65 2911.78 1247.35 2931.26 1258.5Z" fill="#F2D9BB" fill-rule="evenodd"/><path d="M2892.51 1001 2698 1001 2698 1010.71 2892.51 1010.71C2904.11 1010.73 2915.24 1015.34 2923.44 1023.53 2931.65 1031.73 2936.26 1042.84 2936.27 1054.43L2936.27 1103C2936.27 1109.44 2933.7 1115.61 2929.15 1120.16 2924.59 1124.72 2918.41 1127.28 2911.96 1127.29L2907.1 1127.29 2907.1 1137 2911.96 1137C2920.98 1136.99 2929.64 1133.4 2936.02 1127.03 2942.4 1120.66 2945.99 1112.01 2946 1103L2946 1054.43C2945.98 1040.26 2940.34 1026.68 2930.32 1016.67 2920.29 1006.65 2906.69 1001.02 2892.51 1001Z" fill="#F2D9BB" fill-rule="evenodd"/><path d="M2698.31 1263 2897 1263 2897 1253.29 2698.31 1253.29C2686.74 1253.27 2675.66 1248.66 2667.48 1240.47 2659.3 1232.27 2654.71 1221.16 2654.69 1209.57L2654.69 1161C2654.7 1154.56 2657.26 1148.39 2661.8 1143.84 2666.34 1139.28 2672.5 1136.72 2678.92 1136.71L2683.77 1136.71 2683.77 1127 2678.92 1127C2669.93 1127.01 2661.31 1130.6 2654.95 1136.97 2648.59 1143.35 2645.01 1151.99 2645 1161L2645 1209.57C2645.02 1223.74 2650.64 1237.32 2660.63 1247.33 2670.62 1257.35 2684.17 1262.98 2698.31 1263Z" fill="#F2D9BB" fill-rule="evenodd"/></g></svg>