<svg width="358" height="312" xmlns="http://www.w3.org/2000/svg" xmlns:xlink="http://www.w3.org/1999/xlink" xml:space="preserve" overflow="hidden"><g transform="translate(-1424 -977)"><path d="M1638.73 1121.6C1639.29 1125.95 1638.97 1129.99 1637.8 1133.75 1636.6 1137.53 1634.63 1140.88 1631.9 1143.82 1629.18 1146.78 1625.69 1149.28 1621.48 1151.37 1617.26 1153.45 1612.43 1155 1606.99 1155.97L1607.51 1173.83C1607.51 1174.18 1607.44 1174.49 1607.35 1174.81 1607.25 1175.13 1607.04 1175.41 1606.68 1175.64 1606.31 1175.88 1605.8 1176.11 1605.13 1176.3 1604.46 1176.49 1603.58 1176.67 1602.49 1176.8 1601.22 1176.96 1600.22 1177.02 1599.48 1176.99 1598.71 1176.95 1598.11 1176.86 1597.64 1176.73 1597.18 1176.59 1596.86 1176.36 1596.69 1176.02 1596.5 1175.69 1596.43 1175.29 1596.48 1174.85L1596.07 1157.05C1593.39 1157.06 1590.91 1156.96 1588.6 1156.73 1586.3 1156.5 1584.22 1156.21 1582.41 1155.82 1580.58 1155.46 1579.01 1155.04 1577.7 1154.54 1576.38 1154.04 1575.4 1153.56 1574.74 1153.06 1574.1 1152.57 1573.59 1151.87 1573.27 1150.98 1572.93 1150.09 1572.65 1148.84 1572.43 1147.22 1572.28 1146.01 1572.21 1145.02 1572.21 1144.21 1572.22 1143.42 1572.3 1142.75 1572.43 1142.19 1572.6 1141.66 1572.84 1141.26 1573.17 1141.04 1573.5 1140.81 1573.9 1140.64 1574.39 1140.58 1575.11 1140.48 1576.18 1140.76 1577.58 1141.38 1579.01 1141.98 1580.85 1142.63 1583.12 1143.3 1585.41 1143.96 1588.18 1144.51 1591.38 1144.91 1594.6 1145.33 1598.39 1145.25 1602.77 1144.69 1610.53 1143.69 1616.22 1141.42 1619.82 1137.86 1623.45 1134.3 1624.92 1129.92 1624.22 1124.72 1623.81 1121.53 1622.73 1118.94 1620.98 1116.99 1619.21 1115.04 1617.01 1113.46 1614.37 1112.22 1611.75 1110.99 1608.82 1110.01 1605.58 1109.3 1602.36 1108.58 1599.07 1107.87 1595.74 1107.15 1592.38 1106.42 1589.06 1105.52 1585.79 1104.46 1582.51 1103.4 1579.51 1101.94 1576.82 1100.09 1574.14 1098.23 1571.85 1095.83 1569.97 1092.91 1568.09 1089.98 1566.85 1086.24 1566.25 1081.69 1565.78 1078.07 1565.97 1074.59 1566.8 1071.28 1567.65 1067.98 1569.18 1064.99 1571.38 1062.31 1573.6 1059.61 1576.49 1057.28 1580.13 1055.28 1583.76 1053.31 1588.08 1051.82 1593.13 1050.85L1592.6 1034.2C1592.6 1033.86 1592.65 1033.54 1592.77 1033.22 1592.86 1032.91 1593.08 1032.62 1593.43 1032.35 1593.8 1032.09 1594.3 1031.86 1594.92 1031.7 1595.59 1031.54 1596.47 1031.37 1597.62 1031.23 1598.83 1031.07 1599.82 1031 1600.64 1031 1601.46 1031.02 1602.07 1031.11 1602.54 1031.29 1602.95 1031.49 1603.26 1031.75 1603.41 1032.05 1603.57 1032.35 1603.66 1032.75 1603.72 1033.17L1604.06 1049.67C1605.71 1049.61 1607.47 1049.69 1609.29 1049.86 1611.11 1050.05 1612.84 1050.29 1614.46 1050.6 1616.08 1050.91 1617.58 1051.3 1618.91 1051.77 1620.26 1052.23 1621.18 1052.64 1621.69 1053.02 1622.22 1053.38 1622.6 1053.76 1622.83 1054.11 1623.09 1054.47 1623.28 1054.88 1623.46 1055.37 1623.63 1055.83 1623.8 1056.4 1623.96 1057.04 1624.14 1057.67 1624.28 1058.4 1624.39 1059.22 1624.52 1060.25 1624.59 1061.14 1624.6 1061.91 1624.63 1062.68 1624.59 1063.3 1624.47 1063.76 1624.36 1064.22 1624.19 1064.57 1623.94 1064.81 1623.7 1065.07 1623.39 1065.22 1623.03 1065.27 1622.41 1065.35 1621.4 1065.11 1620.01 1064.58 1618.6 1064.04 1616.83 1063.49 1614.76 1062.94 1612.65 1062.39 1610.24 1061.92 1607.53 1061.55 1604.82 1061.19 1601.83 1061.22 1598.61 1061.64 1594.95 1062.1 1591.87 1062.86 1589.38 1063.9 1586.87 1064.94 1584.91 1066.19 1583.46 1067.69 1582.02 1069.17 1581.06 1070.85 1580.53 1072.72 1580.04 1074.61 1579.91 1076.61 1580.18 1078.72 1580.62 1081.98 1581.73 1084.6 1583.52 1086.56 1585.31 1088.54 1587.51 1090.14 1590.15 1091.34 1592.78 1092.54 1595.71 1093.49 1598.99 1094.17 1602.24 1094.85 1605.55 1095.56 1608.97 1096.3 1612.36 1097.07 1615.73 1097.93 1619.02 1098.94 1622.33 1099.95 1625.33 1101.38 1628.03 1103.24 1630.76 1105.1 1633.07 1107.48 1634.98 1110.4 1636.88 1113.3 1638.16 1117.04 1638.73 1121.6Z" stroke="#E6B127" stroke-width="10.3125" stroke-miterlimit="8" fill="#E6B127" fill-rule="evenodd"/><path d="M1712.9 1083.72 1704.37 1083.72C1701.69 1070.45 1696.43 1058.12 1689.21 1047.2L1695.27 1041.13C1699.97 1036.43 1699.97 1028.73 1695.27 1024.03L1682.97 1011.74C1678.28 1007.05 1670.59 1007.04 1665.87 1011.74L1659.79 1017.81C1648.89 1010.58 1636.56 1005.34 1623.29 1002.64L1623.29 994.115C1623.29 987.465 1617.84 982.014 1611.18 982.014L1593.81 982.014C1587.17 982.014 1581.73 987.463 1581.73 994.115L1581.73 1002.65C1568.44 1005.35 1556.11 1010.59 1545.2 1017.82L1539.14 1011.75C1534.44 1007.05 1526.73 1007.05 1522.03 1011.75L1509.74 1024.04C1505.04 1028.74 1505.04 1036.44 1509.74 1041.14L1515.81 1047.21C1508.58 1058.12 1503.34 1070.45 1500.64 1083.73L1492.12 1083.73C1485.47 1083.73 1480.02 1089.17 1480.02 1095.82L1480.02 1113.2C1480.02 1119.84 1485.46 1125.3 1492.12 1125.3L1500.66 1125.3C1503.35 1138.57 1508.59 1150.89 1515.82 1161.81L1509.75 1167.88C1505.05 1172.58 1505.05 1180.29 1509.75 1184.99L1522.04 1197.28C1526.74 1201.98 1534.45 1201.98 1539.16 1197.28L1545.21 1191.21C1556.13 1198.42 1568.45 1203.68 1581.74 1206.38L1581.74 1214.91C1581.74 1221.57 1587.18 1227.01 1593.82 1227.01L1611.19 1227.01C1617.85 1227.01 1623.3 1221.57 1623.3 1214.91L1623.3 1206.38C1636.57 1203.69 1648.9 1198.42 1659.8 1191.21L1665.88 1197.28C1670.6 1201.98 1678.29 1201.98 1682.98 1197.28L1695.28 1184.99C1699.98 1180.29 1699.98 1172.58 1695.28 1167.88L1689.22 1161.81C1696.44 1150.9 1701.69 1138.57 1704.38 1125.3L1712.91 1125.3C1719.57 1125.3 1725.02 1119.85 1725.02 1113.2L1725.02 1095.82C1725.01 1089.17 1719.56 1083.72 1712.9 1083.72Z" stroke="#E6B127" stroke-width="10.3125" stroke-miterlimit="8" fill="none" fill-rule="evenodd"/><path d="M1697.87 1179.59C1744.95 1189.67 1776.02 1206.99 1776.02 1226.67 1776.02 1257.8 1698.34 1283.03 1602.52 1283.03 1506.7 1283.02 1429.02 1257.81 1429.02 1226.67 1429.02 1206.62 1461.26 1189.02 1509.82 1179.03" stroke="#E6B127" stroke-width="10.3125" stroke-miterlimit="8" fill="none" fill-rule="evenodd"/><path d="M1638.84 1201.03C1681.46 1204.75 1712.02 1214.87 1712.02 1226.76 1712.02 1241.81 1663 1254.03 1602.52 1254.03 1542.05 1254.03 1493.02 1241.82 1493.02 1226.76 1493.02 1215.2 1521.91 1205.32 1562.69 1201.35" stroke="#E6B127" stroke-width="10.3125" stroke-miterlimit="8" fill="none" fill-rule="evenodd"/></g></svg>