<svg width="273" height="272" xmlns="http://www.w3.org/2000/svg" xmlns:xlink="http://www.w3.org/1999/xlink" xml:space="preserve" overflow="hidden"><defs><clipPath id="clip0"><rect x="2063" y="1342" width="273" height="272"/></clipPath></defs><g clip-path="url(#clip0)" transform="translate(-2063 -1342)"><path d="M2331.01 1528.36 2312.23 1509.66C2318.94 1497.67 2322.79 1483.9 2322.79 1469.23 2322.79 1423.26 2285.26 1385.87 2239.13 1385.87 2219.85 1385.87 2202.13 1392.47 2187.97 1403.42L2139.06 1403.42C2146.4 1396.98 2151.06 1387.58 2151.06 1377.1 2151.06 1357.74 2135.26 1342 2115.84 1342 2096.42 1342 2080.61 1357.74 2080.61 1377.1 2080.61 1388.14 2085.77 1398 2093.81 1404.44 2076.2 1408.45 2063 1424.16 2063 1442.9L2063 1469.23C2063 1483.11 2072.3 1494.86 2085.02 1498.64L2085.02 1596.45C2085.02 1606.13 2092.92 1614 2102.63 1614 2107.91 1614 2112.61 1611.62 2115.84 1607.94 2119.07 1611.62 2123.76 1614 2129.05 1614 2138.76 1614 2146.66 1606.13 2146.66 1596.45L2146.66 1589.49 2183.71 1552.58 2179.31 1548.19 2190.57 1536.97C2199.7 1543.49 2210.17 1548.25 2221.52 1550.68L2221.52 1573.55 2232.15 1576.2 2226.51 1585.57 2250.06 1609.03 2259.45 1603.4 2262.11 1614 2295.41 1614 2298.06 1603.4 2307.46 1609.02 2331 1585.57 2325.36 1576.2 2336 1573.55 2336 1540.38 2325.36 1537.73ZM2313.99 1469.23C2313.99 1510.35 2280.41 1543.81 2239.13 1543.81 2197.85 1543.81 2164.28 1510.35 2164.28 1469.23 2164.28 1428.1 2197.85 1394.65 2239.13 1394.65 2280.41 1394.65 2313.99 1428.1 2313.99 1469.23ZM2300.78 1556.97C2300.78 1569.06 2290.9 1578.9 2278.76 1578.9 2266.62 1578.9 2256.74 1569.06 2256.74 1556.97 2256.74 1554.7 2257.19 1552.52 2257.86 1550.4 2268.76 1547.9 2278.84 1543.28 2287.66 1536.99 2295.57 1540.48 2300.78 1548.23 2300.78 1556.97ZM2155.47 1524.44 2146.66 1533.22 2146.66 1499.94 2148.86 1499.94C2153.12 1499.94 2156.97 1498.21 2159.77 1495.42 2162.43 1503.43 2166.3 1510.88 2171.14 1517.61L2159.87 1528.83ZM2155.47 1469.23C2155.47 1469.76 2155.54 1470.28 2155.55 1470.81 2153.52 1469.83 2151.27 1469.23 2148.86 1469.23L2146.66 1469.23 2146.66 1440.71C2146.66 1437.08 2149.63 1434.13 2153.27 1434.13L2163.35 1434.13C2158.35 1444.81 2155.47 1456.68 2155.47 1469.23ZM2120.06 1445.65 2115.84 1449.86 2111.62 1445.65 2114.88 1412.19 2116.8 1412.19ZM2089.42 1377.1C2089.42 1362.58 2101.27 1350.78 2115.84 1350.78 2130.41 1350.78 2142.26 1362.58 2142.26 1377.1 2142.26 1391.61 2130.41 1403.42 2115.84 1403.42 2101.27 1403.42 2089.42 1391.61 2089.42 1377.1ZM2102.63 1412.2 2106.03 1412.2 2102.45 1448.93 2115.84 1462.27 2129.23 1448.93 2125.64 1412.2 2178.29 1412.2C2174.48 1416.23 2171.08 1420.63 2168.13 1425.36L2153.27 1425.36C2144.77 1425.36 2137.86 1432.24 2137.86 1440.71L2137.86 1469.23 2098.23 1469.23C2095.8 1469.23 2093.83 1467.26 2093.83 1464.84L2093.83 1434.13 2085.02 1434.13 2085.02 1460.45 2071.81 1460.45 2071.81 1442.91C2071.81 1425.98 2085.64 1412.2 2102.63 1412.2ZM2071.81 1469.23 2085.83 1469.23C2087.65 1474.32 2092.49 1478 2098.23 1478L2148.86 1478C2152.5 1478 2155.47 1480.96 2155.47 1484.58 2155.47 1488.21 2152.5 1491.16 2148.86 1491.16L2093.82 1491.16C2081.68 1491.16 2071.8 1481.32 2071.8 1469.23ZM2129.05 1605.23C2124.19 1605.23 2120.24 1601.29 2120.24 1596.45L2120.24 1517.49 2111.44 1517.49 2111.44 1596.45C2111.44 1601.29 2107.49 1605.23 2102.63 1605.23 2097.77 1605.23 2093.82 1601.29 2093.82 1596.45L2093.82 1499.94 2137.86 1499.94 2137.86 1596.45C2137.86 1601.29 2133.91 1605.23 2129.05 1605.23ZM2146.66 1577.09 2146.66 1545.63 2155.47 1536.85 2171.26 1552.58ZM2173.08 1541.99 2166.1 1535.03 2176.67 1524.5C2178.86 1526.95 2181.19 1529.27 2183.66 1531.46ZM2327.19 1547.23 2327.19 1566.7 2318.61 1568.84 2316.26 1569.74 2314.21 1574.74 2319.92 1584.21 2306.1 1597.97 2296.6 1592.29 2291.22 1594.47 2288.53 1605.23 2268.99 1605.23 2266.84 1596.68 2265.95 1594.33 2260.92 1592.3 2251.42 1597.98 2237.6 1584.21 2243.31 1574.74 2241.11 1569.39 2230.32 1566.71 2230.32 1552.11C2233.22 1552.42 2236.15 1552.58 2239.13 1552.58 2242.26 1552.58 2245.33 1552.38 2248.37 1552.05 2248.1 1553.67 2247.94 1555.3 2247.94 1556.97 2247.94 1573.9 2261.76 1587.68 2278.76 1587.68 2295.75 1587.68 2309.58 1573.9 2309.58 1556.97 2309.58 1546.21 2303.93 1536.55 2295.07 1531.03 2299.66 1526.9 2303.8 1522.29 2307.39 1517.25L2319.92 1529.73 2314.21 1539.2 2316.43 1544.55Z" fill="#638FA9" fill-rule="evenodd"/><path d="M2336 1364C2336 1351.87 2326.07 1342 2313.86 1342L2296.14 1342C2283.93 1342 2274 1351.87 2274 1364L2274 1386 2313.86 1386C2326.07 1386 2336 1376.13 2336 1364ZM2282.86 1364C2282.86 1356.72 2288.82 1350.8 2296.14 1350.8L2313.86 1350.8C2321.18 1350.8 2327.14 1356.72 2327.14 1364 2327.14 1371.28 2321.18 1377.2 2313.86 1377.2L2282.86 1377.2Z" fill="#638FA9" fill-rule="evenodd"/><path d="M2292 1359 2301 1359 2301 1368 2292 1368Z" fill="#638FA9" fill-rule="evenodd"/><path d="M2310 1359 2318 1359 2318 1368 2310 1368Z" fill="#638FA9" fill-rule="evenodd"/><path d="M2239 1535C2275.39 1535 2305 1505.39 2305 1469 2305 1432.61 2275.39 1403 2239 1403 2202.61 1403 2173 1432.61 2173 1469 2173 1505.39 2202.61 1535 2239 1535ZM2217 1491 2225.8 1491 2225.8 1524.6C2222.77 1523.89 2219.82 1522.97 2217 1521.79ZM2208.2 1517.12C2205.04 1515.09 2202.09 1512.77 2199.4 1510.18L2199.4 1464.6 2208.2 1464.6ZM2234.6 1525.98 2234.6 1429.4 2243.4 1429.4 2243.4 1525.98C2241.94 1526.09 2240.49 1526.2 2239 1526.2 2237.51 1526.2 2236.06 1526.09 2234.6 1525.98ZM2252.2 1473.4 2261 1473.4 2261 1521.79C2258.18 1522.97 2255.23 1523.88 2252.2 1524.61ZM2278.6 1510.18C2275.91 1512.77 2272.96 1515.1 2269.8 1517.13L2269.8 1455.8 2278.6 1455.8ZM2239 1411.8C2270.54 1411.8 2296.2 1437.46 2296.2 1469 2296.2 1480.16 2292.94 1490.54 2287.4 1499.34L2287.4 1447 2261 1447 2261 1464.6 2252.2 1464.6 2252.2 1420.6 2225.8 1420.6 2225.8 1482.2 2217 1482.2 2217 1455.8 2190.6 1455.8 2190.6 1499.34C2185.06 1490.54 2181.8 1480.15 2181.8 1469 2181.8 1437.46 2207.46 1411.8 2239 1411.8Z" fill="#638FA9" fill-rule="evenodd"/></g></svg>