<svg width="277" height="276" xmlns="http://www.w3.org/2000/svg" xmlns:xlink="http://www.w3.org/1999/xlink" xml:space="preserve" overflow="hidden"><g transform="translate(-3274 -1340)"><path d="M3412.5 1556C3392.25 1556 3373.06 1548.37 3358.45 1534.51 3342.91 1519.93 3334 1499.33 3334 1478 3334 1434.99 3369.21 1400 3412.5 1400 3455.79 1400 3491 1434.99 3491 1478 3491 1499.32 3482.08 1519.93 3466.54 1534.53 3451.89 1548.37 3432.69 1556 3412.5 1556ZM3412.5 1405.78C3372.42 1405.78 3339.81 1438.18 3339.81 1478 3339.81 1497.75 3348.06 1516.82 3362.45 1530.33 3375.98 1543.16 3393.76 1550.23 3412.5 1550.23 3431.19 1550.23 3448.97 1543.16 3462.54 1530.34 3476.94 1516.82 3485.19 1497.74 3485.19 1478 3485.19 1438.18 3452.58 1405.78 3412.5 1405.78Z" stroke="#7F7F7F" stroke-width="3.53566" stroke-miterlimit="8" fill="#7F7F7F" fill-rule="evenodd"/><path d="M3412 1485C3397.66 1485 3386 1473.34 3386 1459 3386 1444.66 3397.66 1433 3412 1433 3426.34 1433 3438 1444.66 3438 1459 3438 1473.34 3426.34 1485 3412 1485ZM3412 1438.87C3400.9 1438.87 3391.87 1447.9 3391.87 1459 3391.87 1470.1 3400.9 1479.12 3412 1479.12 3423.1 1479.12 3432.13 1470.1 3432.13 1459 3432.13 1447.9 3423.1 1438.87 3412 1438.87Z" stroke="#7F7F7F" stroke-width="3.53566" stroke-miterlimit="8" fill="#7F7F7F" fill-rule="evenodd"/><path d="M3412 1556C3391.73 1556 3372.52 1548.33 3357.9 1534.41 3357.31 1533.85 3356.98 1533.05 3357 1532.23 3357.86 1502.38 3382.01 1479 3412 1479 3441.99 1479 3466.14 1502.38 3467 1532.23 3467.02 1533.06 3466.69 1533.85 3466.1 1534.42 3451.42 1548.33 3432.21 1556 3412 1556ZM3362.87 1531.11C3376.28 1543.43 3393.68 1550.2 3412 1550.2 3430.28 1550.2 3447.67 1543.43 3461.13 1531.1 3459.71 1505.04 3438.38 1484.8 3412 1484.8 3385.62 1484.8 3364.28 1505.04 3362.87 1531.11Z" stroke="#7F7F7F" stroke-width="3.53566" stroke-miterlimit="8" fill="#7F7F7F" fill-rule="evenodd"/><path d="M3429.4 1595.99C3428.74 1595.99 3428.09 1595.77 3427.58 1595.35 3426.94 1594.85 3426.55 1594.1 3426.49 1593.29 3425.96 1585.74 3419.6 1579.82 3412 1579.82 3404.28 1579.82 3398.05 1585.61 3397.51 1593.29 3397.45 1594.1 3397.06 1594.85 3396.42 1595.36 3395.8 1595.86 3394.99 1596.1 3394.17 1595.96 3342.91 1588.26 3301.73 1547.08 3294.03 1495.82 3293.91 1495.02 3294.13 1494.2 3294.64 1493.57 3295.15 1492.94 3295.9 1492.54 3296.7 1492.49 3304.26 1491.96 3310.18 1485.6 3310.18 1478 3310.18 1470.4 3304.26 1464.04 3296.71 1463.5 3295.89 1463.45 3295.15 1463.06 3294.64 1462.42 3294.13 1461.79 3293.91 1460.97 3294.04 1460.17 3301.74 1408.91 3342.91 1367.73 3394.17 1360.03 3394.98 1359.91 3395.8 1360.13 3396.42 1360.64 3397.06 1361.15 3397.45 1361.89 3397.51 1362.7 3398.04 1370.25 3404.4 1376.18 3412 1376.18 3419.6 1376.18 3425.96 1370.26 3426.49 1362.71 3426.55 1361.9 3426.94 1361.15 3427.58 1360.64 3428.21 1360.13 3429.03 1359.91 3429.83 1360.03 3481.09 1367.73 3522.27 1408.91 3529.97 1460.17 3530.09 1460.97 3529.87 1461.79 3529.36 1462.42 3528.85 1463.06 3528.11 1463.45 3527.3 1463.5 3519.62 1464.05 3513.83 1470.28 3513.83 1478 3513.83 1485.6 3519.74 1491.96 3527.29 1492.49 3528.1 1492.54 3528.85 1492.94 3529.36 1493.57 3529.87 1494.21 3530.09 1495.02 3529.96 1495.82 3522.26 1547.08 3481.09 1588.26 3429.83 1595.96 3429.68 1595.98 3429.54 1595.99 3429.4 1595.99ZM3300.25 1497.82C3308.49 1544.29 3345.7 1581.5 3392.17 1589.74 3394.27 1580.7 3402.44 1574 3412 1574 3421.56 1574 3429.73 1580.7 3431.82 1589.74 3478.29 1581.5 3515.5 1544.29 3523.74 1497.82 3514.7 1495.73 3508 1487.56 3508 1478 3508 1468.44 3514.7 1460.27 3523.74 1458.17 3515.51 1411.7 3478.29 1374.49 3431.82 1366.26 3429.73 1375.3 3421.56 1382 3412 1382 3402.44 1382 3394.27 1375.3 3392.17 1366.26 3345.7 1374.49 3308.49 1411.7 3300.25 1458.17 3309.29 1460.27 3315.99 1468.44 3315.99 1478 3315.99 1487.56 3309.3 1495.73 3300.25 1497.82Z" stroke="#7F7F7F" stroke-width="3.53566" stroke-miterlimit="8" fill="#7F7F7F" fill-rule="evenodd"/><path d="M3412 1382C3401.55 1382 3392.8 1373.85 3392.06 1363.45 3392.01 1363.12 3392 1362.52 3392 1362 3392 1350.97 3400.97 1342 3412 1342 3423.03 1342 3432 1350.97 3432 1362 3432 1362.53 3431.99 1363.15 3431.9 1363.68 3431.2 1373.85 3422.45 1382 3412 1382ZM3412 1347.71C3404.12 1347.71 3397.71 1354.12 3397.71 1362 3397.71 1362.27 3397.7 1362.58 3397.74 1362.86 3398.29 1370.47 3404.54 1376.29 3412 1376.29 3419.46 1376.29 3425.71 1370.48 3426.23 1363.05 3426.3 1362.56 3426.29 1362.26 3426.29 1362 3426.29 1354.12 3419.88 1347.71 3412 1347.71Z" stroke="#7F7F7F" stroke-width="3.53566" stroke-miterlimit="8" fill="#7F7F7F" fill-rule="evenodd"/><path d="M3412 1614C3400.97 1614 3392 1605.03 3392 1594 3392 1593.48 3392.01 1592.87 3392.08 1592.35 3392.8 1582.14 3401.55 1574 3412 1574 3422.45 1574 3431.2 1582.14 3431.93 1592.54 3431.99 1592.84 3432 1593.46 3432 1594 3432 1605.03 3423.03 1614 3412 1614ZM3412 1579.71C3404.42 1579.71 3398.3 1585.4 3397.76 1592.94 3397.7 1593.41 3397.71 1593.72 3397.71 1594 3397.71 1601.88 3404.12 1608.28 3412 1608.28 3419.88 1608.28 3426.29 1601.88 3426.29 1594 3426.29 1593.74 3426.3 1593.44 3426.26 1593.17 3425.71 1585.52 3419.46 1579.71 3412 1579.71Z" stroke="#7F7F7F" stroke-width="3.53566" stroke-miterlimit="8" fill="#7F7F7F" fill-rule="evenodd"/><path d="M3296 1498C3284.97 1498 3276 1489.03 3276 1478 3276 1466.97 3284.97 1458 3296 1458 3296.52 1458 3297.12 1458.01 3297.65 1458.08 3307.85 1458.8 3316 1467.55 3316 1478 3316 1488.45 3307.85 1497.2 3297.46 1497.93 3297.15 1497.99 3296.53 1498 3296 1498ZM3296.21 1463.71 3296 1463.71C3288.12 1463.71 3281.71 1470.12 3281.71 1478 3281.71 1485.97 3288.01 1492.4 3296.3 1492.29 3296.47 1492.29 3296.66 1492.28 3296.83 1492.26 3304.48 1491.71 3310.29 1485.46 3310.29 1478 3310.29 1470.54 3304.47 1464.29 3297.05 1463.76 3296.7 1463.72 3296.43 1463.71 3296.21 1463.71Z" stroke="#7F7F7F" stroke-width="3.53566" stroke-miterlimit="8" fill="#7F7F7F" fill-rule="evenodd"/><path d="M3528.5 1498C3527.95 1498 3527.32 1497.99 3526.77 1497.9 3516.35 1497.2 3508 1488.45 3508 1478 3508 1467.55 3516.35 1458.8 3527 1458.06 3527.35 1458.01 3527.96 1458 3528.5 1458 3539.8 1458 3549 1466.97 3549 1478 3549 1489.03 3539.8 1498 3528.5 1498ZM3528.2 1463.71C3528 1463.71 3527.8 1463.72 3527.61 1463.74 3519.69 1464.3 3513.86 1470.42 3513.86 1478 3513.86 1485.46 3519.81 1491.71 3527.41 1492.23 3527.92 1492.3 3528.24 1492.28 3528.5 1492.29 3536.58 1492.29 3543.14 1485.88 3543.14 1478 3543.14 1470.12 3536.58 1463.71 3528.5 1463.71L3528.2 1463.71Z" stroke="#7F7F7F" stroke-width="3.53566" stroke-miterlimit="8" fill="#7F7F7F" fill-rule="evenodd"/></g></svg>