<svg width="387" height="272" xmlns="http://www.w3.org/2000/svg" xmlns:xlink="http://www.w3.org/1999/xlink" xml:space="preserve" overflow="hidden"><defs><clipPath id="clip0"><rect x="794" y="1342" width="387" height="272"/></clipPath></defs><g clip-path="url(#clip0)" transform="translate(-794 -1342)"><path d="M1157.39 1386.4 1148.16 1394.36C1161.46 1409.74 1168.8 1429.41 1168.8 1449.74 1168.8 1496.55 1130.6 1534.63 1083.65 1534.63 1036.71 1534.63 998.513 1496.55 998.513 1449.74 998.513 1402.95 1036.71 1364.88 1083.65 1364.88 1102.11 1364.88 1119.67 1370.67 1134.44 1381.62L1141.72 1371.86C1124.82 1359.33 1104.74 1352.71 1083.64 1352.71 1072.02 1352.71 1060.92 1354.86 1050.58 1358.6L1050.58 1356.19 1008.93 1356.19 1008.93 1342 996.722 1342 996.722 1356.19 960.741 1356.19 960.741 1342 948.535 1342 948.535 1356.19 912.554 1356.19 912.554 1342 900.348 1342 900.348 1356.19 858.697 1356.19 858.697 1429 823.988 1395.05 794 1425.55 858.708 1488.8 858.708 1614 994.278 1614 1050.59 1569.69 1050.59 1540.91C1060.93 1544.65 1072.03 1546.79 1083.65 1546.79 1137.33 1546.79 1181 1503.26 1181 1449.74 1180.99 1426.49 1172.61 1403.99 1157.39 1386.4ZM909.826 1496 912.542 1511.51 896.921 1509.11 841.947 1455.37 854.842 1442.26ZM824.165 1412.27 846.129 1433.74 833.234 1446.86 811.265 1425.38ZM998.367 1595.28 998.555 1572.83 1026.9 1572.83ZM1038.38 1560.66 986.454 1560.66 986.105 1601.83 870.914 1601.84 870.914 1500.73 891.181 1520.54 927.487 1526.12 921.172 1490.05 870.909 1440.92 870.909 1368.34 900.355 1368.34 900.355 1382.54 912.56 1382.54 912.56 1368.34 948.542 1368.34 948.542 1382.54 960.747 1382.54 960.747 1368.34 996.729 1368.34 996.729 1382.54 1008.93 1382.54 1008.93 1368.34 1030.84 1368.34C1004.08 1385.66 986.305 1415.64 986.305 1449.74 986.305 1486.96 1007.46 1519.31 1038.38 1535.58L1038.38 1560.65Z" fill="#376C8A" fill-rule="evenodd"/><path d="M1142.37 1389 1151 1379.78C1149.39 1378.13 1147.72 1376.54 1145.99 1375L1138 1384.83C1139.51 1386.17 1140.97 1387.55 1142.37 1389Z" fill="#376C8A" fill-rule="evenodd"/><path d="M1073.5 1370C1037.1 1374.53 1008.52 1403.11 1004 1439.5L1016.11 1441C1019.94 1410.16 1044.16 1385.95 1075 1382.11Z" fill="#376C8A" fill-rule="evenodd"/><path d="M1163 1459.51 1150.89 1458C1147.05 1488.83 1122.84 1513.05 1092 1516.89L1093.51 1529C1129.9 1524.46 1158.48 1495.88 1163 1459.51Z" fill="#376C8A" fill-rule="evenodd"/><path d="M1063.73 1498 1142 1419.84 1123.32 1401 1063.7 1461.11 1042.66 1439.88 1024 1458.72 1059 1494.02ZM1042.66 1457.27 1063.69 1478.5 1123.31 1418.38 1124.71 1419.79 1063.33 1481 1041.23 1458.72Z" fill="#376C8A" fill-rule="evenodd"/><path d="M906 1541 968 1541 968 1553 906 1553Z" fill="#376C8A" fill-rule="evenodd"/></g></svg>