<svg width="214" height="213" xmlns="http://www.w3.org/2000/svg" xmlns:xlink="http://www.w3.org/1999/xlink" xml:space="preserve" overflow="hidden"><defs><clipPath id="clip0"><rect x="424" y="1186" width="214" height="213"/></clipPath></defs><g clip-path="url(#clip0)" transform="translate(-424 -1186)"><path d="M634.433 1306.7 588.067 1306.7 588.067 1189.55C588.067 1187.59 586.468 1186 584.5 1186L452.533 1186C450.565 1186 448.967 1187.59 448.967 1189.55L448.967 1203.75 427.567 1203.75C425.598 1203.75 424 1205.34 424 1207.3L424 1395.45C424 1397.41 425.598 1399 427.567 1399L634.433 1399C636.401 1399 638 1397.41 638 1395.45L638 1310.25C638 1308.29 636.401 1306.7 634.433 1306.7ZM456.1 1193.1 580.933 1193.1 580.933 1306.7 563.1 1306.7 563.1 1207.3C563.1 1205.34 561.501 1203.75 559.533 1203.75L456.1 1203.75ZM552.4 1310.25 552.4 1391.9 431.133 1391.9 431.133 1210.85 555.967 1210.85 555.967 1306.7C553.999 1306.7 552.4 1308.29 552.4 1310.25ZM630.867 1391.9 559.533 1391.9 559.533 1313.8 630.867 1313.8Z" fill="#FFFFFF" fill-rule="evenodd"/><path d="M570 1324.5 570 1338.5C570 1340.43 571.601 1342 573.571 1342L616.429 1342C618.399 1342 620 1340.43 620 1338.5L620 1324.5C620 1322.57 618.399 1321 616.429 1321L573.571 1321C571.601 1321 570 1322.57 570 1324.5ZM577.143 1328 612.857 1328 612.857 1335 577.143 1335Z" fill="#FFFFFF" fill-rule="evenodd"/><path d="M570 1349 577 1349 577 1357 570 1357Z" fill="#FFFFFF" fill-rule="evenodd"/><path d="M584 1349 591 1349 591 1357 584 1357Z" fill="#FFFFFF" fill-rule="evenodd"/><path d="M598 1349 606 1349 606 1357 598 1357Z" fill="#FFFFFF" fill-rule="evenodd"/><path d="M613 1349 620 1349 620 1357 613 1357Z" fill="#FFFFFF" fill-rule="evenodd"/><path d="M570 1364 577 1364 577 1371 570 1371Z" fill="#FFFFFF" fill-rule="evenodd"/><path d="M584 1364 591 1364 591 1371 584 1371Z" fill="#FFFFFF" fill-rule="evenodd"/><path d="M598 1364 606 1364 606 1371 598 1371Z" fill="#FFFFFF" fill-rule="evenodd"/><path d="M613 1364 620 1364 620 1371 613 1371Z" fill="#FFFFFF" fill-rule="evenodd"/><path d="M570 1378 577 1378 577 1385 570 1385Z" fill="#FFFFFF" fill-rule="evenodd"/><path d="M584 1378 591 1378 591 1385 584 1385Z" fill="#FFFFFF" fill-rule="evenodd"/><path d="M598 1378 606 1378 606 1385 598 1385Z" fill="#FFFFFF" fill-rule="evenodd"/><path d="M613 1378 620 1378 620 1385 613 1385Z" fill="#FFFFFF" fill-rule="evenodd"/><path d="M498.444 1363.53 487.778 1363.53 487.778 1349.21C487.778 1347.24 486.184 1345.63 484.222 1345.63L473.555 1345.63 473.555 1320.58C473.555 1318.6 471.962 1317 470 1317L455.778 1317C453.816 1317 452.222 1318.6 452.222 1320.58L452.222 1338.47 441.555 1338.47C439.594 1338.47 438 1340.08 438 1342.05L438 1381.42C438 1383.4 439.594 1385 441.555 1385L498.444 1385C500.406 1385 502 1383.4 502 1381.42L502 1367.11C502 1365.13 500.406 1363.53 498.444 1363.53ZM445.111 1345.63 452.222 1345.63 452.222 1377.84 445.111 1377.84ZM459.333 1342.05 459.333 1324.16 466.444 1324.16 466.444 1377.84 459.333 1377.84ZM473.555 1352.79 480.667 1352.79 480.667 1377.84 473.555 1377.84ZM494.889 1377.84 487.778 1377.84 487.778 1370.68 494.889 1370.68Z" fill="#FFFFFF" fill-rule="evenodd"/><path d="M438.507 1290.03C438.511 1290.05 438.519 1290.08 438.525 1290.1 439.501 1294.83 441.825 1299.18 445.322 1302.68 445.339 1302.7 445.365 1302.71 445.385 1302.72 449.907 1307.21 456.137 1310 463 1310 469.864 1310 476.093 1307.21 480.615 1302.72 480.633 1302.7 480.658 1302.69 480.679 1302.68 484.175 1299.18 486.5 1294.82 487.476 1290.09 487.479 1290.07 487.487 1290.05 487.493 1290.02 487.637 1289.33 487.732 1288.62 487.815 1287.91 487.83 1287.78 487.858 1287.66 487.873 1287.53 487.954 1286.7 488 1285.85 488 1285 488 1271.21 476.785 1260 463 1260 449.215 1260 438 1271.21 438 1285 438 1285.85 438.046 1286.7 438.129 1287.53 438.143 1287.66 438.172 1287.79 438.186 1287.92 438.268 1288.63 438.368 1289.33 438.507 1290.03ZM453.168 1299.88 458.41 1294.64C459.807 1295.31 461.35 1295.71 463.001 1295.71 464.651 1295.71 466.194 1295.31 467.589 1294.64L472.832 1299.88C470.008 1301.75 466.632 1302.86 463.001 1302.86 459.369 1302.86 455.993 1301.75 453.168 1299.88ZM463.001 1281.43C464.968 1281.43 466.572 1283.03 466.572 1285 466.572 1285.49 466.472 1285.96 466.293 1286.38 466.178 1286.65 465.982 1286.88 465.804 1287.11 465.15 1287.98 464.165 1288.57 463.001 1288.57 461.805 1288.57 460.794 1287.94 460.143 1287.03 459.99 1286.82 459.807 1286.62 459.708 1286.38 459.53 1285.96 459.429 1285.49 459.429 1285 459.429 1283.03 461.033 1281.43 463.001 1281.43ZM480.529 1288.25C480.48 1288.52 480.411 1288.79 480.347 1289.07 480.148 1289.91 479.895 1290.74 479.579 1291.53 479.501 1291.73 479.436 1291.93 479.351 1292.13 478.936 1293.08 478.447 1293.98 477.883 1294.83L472.672 1289.62C472.707 1289.54 472.721 1289.46 472.758 1289.38 472.951 1288.95 473.086 1288.5 473.222 1288.04 473.3 1287.78 473.407 1287.53 473.464 1287.27 473.622 1286.53 473.715 1285.78 473.715 1285 473.715 1284.33 473.637 1283.67 473.515 1283.03 473.48 1282.83 473.423 1282.64 473.372 1282.45 473.265 1282.01 473.133 1281.58 472.972 1281.16 472.893 1280.96 472.814 1280.76 472.721 1280.57 472.528 1280.15 472.307 1279.75 472.064 1279.36 471.972 1279.21 471.892 1279.06 471.793 1278.91 471.436 1278.4 471.044 1277.92 470.604 1277.47 470.529 1277.39 470.44 1277.33 470.362 1277.26 469.987 1276.9 469.59 1276.57 469.166 1276.27 468.998 1276.15 468.823 1276.05 468.648 1275.94 468.279 1275.71 467.898 1275.5 467.498 1275.31 467.305 1275.22 467.115 1275.14 466.916 1275.05 466.798 1275.01 466.691 1274.94 466.57 1274.9L466.57 1267.51 466.581 1267.51C466.645 1267.52 466.702 1267.55 466.766 1267.56 467.795 1267.79 468.788 1268.1 469.741 1268.49 470.081 1268.63 470.392 1268.81 470.72 1268.97 471.374 1269.29 472.02 1269.62 472.627 1270.01 472.981 1270.24 473.306 1270.5 473.641 1270.75 474.174 1271.15 474.692 1271.57 475.177 1272.02 475.494 1272.32 475.791 1272.63 476.087 1272.95 476.53 1273.43 476.945 1273.93 477.331 1274.46 477.587 1274.81 477.841 1275.16 478.077 1275.53 478.434 1276.1 478.745 1276.69 479.034 1277.3 479.215 1277.68 479.411 1278.05 479.569 1278.44 479.84 1279.13 480.044 1279.84 480.229 1280.57 480.322 1280.92 480.443 1281.26 480.515 1281.62 480.728 1282.71 480.858 1283.84 480.858 1285 480.858 1286.11 480.725 1287.19 480.529 1288.25ZM445.486 1281.61C445.558 1281.24 445.682 1280.9 445.772 1280.55 445.957 1279.83 446.161 1279.12 446.432 1278.43 446.59 1278.04 446.786 1277.66 446.967 1277.28 447.261 1276.68 447.572 1276.08 447.924 1275.52 448.157 1275.15 448.41 1274.8 448.67 1274.44 449.059 1273.92 449.471 1273.41 449.914 1272.94 450.21 1272.62 450.507 1272.3 450.824 1272 451.306 1271.55 451.827 1271.14 452.36 1270.74 452.696 1270.49 453.02 1270.23 453.374 1270 453.981 1269.61 454.624 1269.28 455.277 1268.96 455.606 1268.8 455.917 1268.62 456.256 1268.48 457.21 1268.08 458.203 1267.77 459.232 1267.55 459.295 1267.54 459.353 1267.51 459.417 1267.49L459.428 1267.49 459.428 1274.89C459.307 1274.93 459.2 1274.99 459.082 1275.04 458.882 1275.12 458.693 1275.21 458.5 1275.3 458.1 1275.48 457.717 1275.69 457.35 1275.92 457.175 1276.03 456.999 1276.14 456.832 1276.25 456.406 1276.55 456.011 1276.88 455.636 1277.24 455.558 1277.32 455.469 1277.38 455.394 1277.46 454.954 1277.9 454.562 1278.38 454.204 1278.9 454.104 1279.04 454.026 1279.19 453.933 1279.34 453.691 1279.73 453.469 1280.13 453.277 1280.55 453.187 1280.75 453.104 1280.94 453.029 1281.14 452.868 1281.56 452.736 1281.99 452.629 1282.43 452.583 1282.63 452.526 1282.82 452.486 1283.02 452.365 1283.67 452.286 1284.33 452.286 1285 452.286 1285.78 452.379 1286.53 452.537 1287.26 452.597 1287.54 452.709 1287.8 452.787 1288.07 452.919 1288.51 453.052 1288.95 453.237 1289.37 453.272 1289.45 453.286 1289.54 453.326 1289.62L448.119 1294.83C447.554 1293.98 447.065 1293.07 446.65 1292.13 446.564 1291.93 446.5 1291.73 446.422 1291.53 446.108 1290.73 445.855 1289.91 445.654 1289.07 445.59 1288.79 445.521 1288.52 445.472 1288.24 445.276 1287.19 445.143 1286.11 445.143 1285 445.143 1283.84 445.273 1282.71 445.486 1281.61Z" fill="#FFFFFF" fill-rule="evenodd"/><path d="M438 1218 499 1218 499 1225 438 1225Z" fill="#FFFFFF" fill-rule="evenodd"/><path d="M438 1232 545 1232 545 1239 438 1239Z" fill="#FFFFFF" fill-rule="evenodd"/><path d="M541.5 1264 520.5 1264C518.569 1264 517 1265.6 517 1267.56L517 1367.21C517 1367.97 517.245 1368.72 517.7 1369.34L528.2 1383.58C528.858 1384.47 529.897 1385 531 1385 532.103 1385 533.139 1384.47 533.8 1383.58L544.3 1369.34C544.755 1368.72 545 1367.97 545 1367.21L545 1267.56C545 1265.6 543.431 1264 541.5 1264ZM538 1271.12 538 1281.79 524 1281.79 524 1271.12ZM524 1360.09 524 1288.91 538 1288.91 538 1360.09ZM531 1375.51 524.875 1367.21 537.125 1367.21Z" fill="#FFFFFF" fill-rule="evenodd"/></g></svg>