<svg width="276" height="313" xmlns="http://www.w3.org/2000/svg" xmlns:xlink="http://www.w3.org/1999/xlink" xml:space="preserve" overflow="hidden"><defs><clipPath id="clip0"><rect x="218" y="1133" width="276" height="313"/></clipPath></defs><g clip-path="url(#clip0)" transform="translate(-218 -1133)"><path d="M367.649 1133C289.75 1133 229.159 1203.68 243.101 1282.05L218.576 1327.72C217.132 1330.13 218.576 1333.5 220.98 1334.46L254.162 1347.44 254.162 1404.17C254.162 1407.06 256.085 1408.98 258.97 1408.98L306.577 1408.98 306.577 1441.19C306.577 1444.08 308.501 1446 311.385 1446L428.719 1446C431.604 1446 433.528 1444.08 433.528 1441.19L433.528 1367.15C541.726 1301.76 495.564 1133 367.649 1133ZM426.795 1360.42C425.352 1361.38 424.391 1362.82 424.391 1364.75L424.391 1436.39 316.193 1436.39 316.193 1404.17C316.193 1401.29 314.269 1399.37 311.385 1399.37L263.778 1399.37 263.778 1344.07C263.778 1342.15 262.334 1340.23 260.893 1339.75L229.636 1327.73 251.757 1286.86C252.717 1285.9 253.68 1283.97 253.2 1282.53 238.774 1209.45 295.035 1143.1 367.649 1143.1 486.91 1142.62 529.223 1300.8 426.795 1360.42Z" fill="#376C8A" fill-rule="evenodd"/><path d="M444.567 1229.52 444.567 1228.07C444.567 1202.55 423.874 1181.83 398.369 1181.83 386.82 1181.83 375.751 1186.17 367.569 1193.87 356.5 1178.46 338.213 1171.72 318.965 1176.53 297.792 1181.83 283.836 1199.65 283.836 1221.33 283.836 1224.7 284.317 1228.07 284.797 1231.45 251.591 1243.49 260.254 1292.62 295.866 1292.62L329.553 1292.62 329.553 1406.3C329.553 1412.57 339.178 1412.57 339.178 1406.3L339.178 1399.08 396.927 1399.08 396.927 1406.3C396.927 1412.57 406.551 1412.57 406.551 1406.3L406.551 1292.62 440.238 1292.62C457.564 1292.62 472 1278.65 472 1260.83 471.519 1244.93 459.97 1231.93 444.57 1229.52ZM339.175 1310.93 396.925 1310.93 396.925 1330.68 339.175 1330.68ZM339.175 1340.31 396.925 1340.31 396.925 1360.06 339.175 1360.06ZM396.925 1301.29 339.175 1301.29 339.175 1281.54 396.925 1281.54ZM339.175 1389.92 339.175 1370.17 396.925 1370.17 396.925 1389.92ZM440.234 1282.99 406.547 1282.99 406.547 1263.72C406.547 1260.83 404.621 1258.9 401.735 1258.9 398.848 1258.9 396.922 1260.83 396.922 1263.72L396.922 1271.91 339.173 1271.91 339.173 1263.72C339.173 1260.83 337.248 1258.9 334.361 1258.9 331.474 1258.9 329.549 1260.83 329.549 1263.72L329.549 1282.99 295.862 1282.99C283.832 1282.99 273.725 1272.87 273.725 1260.83 273.725 1250.23 281.423 1241.08 292.011 1239.15 294.898 1238.67 296.823 1235.78 295.862 1232.89 294.417 1229.03 293.937 1225.18 293.937 1220.85 293.937 1200.13 308.856 1188.57 321.367 1185.68 334.361 1182.31 352.647 1185.2 362.753 1203.51 364.197 1206.4 368.529 1206.88 370.451 1204.47 377.67 1196.28 387.777 1191.46 398.362 1191.46 418.575 1191.46 434.936 1207.84 434.936 1228.07 434.936 1232.89 433.491 1234.81 435.417 1237.22 437.342 1239.15 439.267 1238.67 439.748 1238.67 451.778 1238.67 461.885 1248.78 461.885 1260.83 461.885 1273.35 452.261 1282.99 440.231 1282.99Z" fill="#376C8A" fill-rule="evenodd"/></g></svg>