<svg width="192" height="192" xmlns="http://www.w3.org/2000/svg" xmlns:xlink="http://www.w3.org/1999/xlink" xml:space="preserve" overflow="hidden"><g transform="translate(-2269 -1135)"><path d="M2308.49 1213.05C2308.14 1214.41 2306.93 1215.37 2305.54 1215.41L2301.32 1215.41C2299.84 1215.41 2298.57 1216.46 2298.29 1217.91 2296.57 1226.55 2296.57 1235.44 2298.29 1244.09 2298.57 1245.54 2299.84 1246.59 2301.32 1246.59L2305.54 1246.59C2306.93 1246.63 2308.14 1247.59 2308.49 1248.94 2309.51 1252.15 2310.81 1255.27 2312.36 1258.26 2313.06 1259.47 2312.88 1260.99 2311.94 1262.02L2308.94 1265.02C2307.89 1266.06 2307.73 1267.7 2308.56 1268.93 2313.47 1276.24 2319.76 1282.53 2327.07 1287.44 2328.3 1288.27 2329.94 1288.11 2330.98 1287.06L2333.98 1284.06C2335.01 1283.11 2336.53 1282.94 2337.74 1283.64 2340.73 1285.19 2343.85 1286.49 2347.06 1287.51 2348.41 1287.86 2349.37 1289.07 2349.41 1290.46L2349.41 1294.68C2349.41 1296.16 2350.46 1297.43 2351.91 1297.71 2360.55 1299.43 2369.45 1299.43 2378.09 1297.71 2379.54 1297.43 2380.59 1296.16 2380.59 1294.68L2380.59 1290.46C2380.63 1289.07 2381.59 1287.86 2382.94 1287.51 2386.15 1286.48 2389.27 1285.19 2392.26 1283.64 2393.47 1282.94 2394.99 1283.12 2396.02 1284.06L2399.02 1287.06C2400.06 1288.11 2401.7 1288.27 2402.93 1287.44 2410.24 1282.53 2416.53 1276.24 2421.44 1268.93 2422.27 1267.7 2422.11 1266.06 2421.06 1265.02L2418.06 1262.02C2417.11 1260.99 2416.94 1259.47 2417.64 1258.26 2419.19 1255.26 2420.49 1252.15 2421.51 1248.94 2421.86 1247.59 2423.07 1246.63 2424.46 1246.58L2428.68 1246.58C2430.16 1246.59 2431.43 1245.54 2431.71 1244.09 2433.43 1235.44 2433.43 1226.55 2431.71 1217.91 2431.43 1216.46 2430.16 1215.41 2428.68 1215.41L2424.46 1215.41C2423.07 1215.37 2421.86 1214.41 2421.51 1213.05 2420.49 1209.84 2419.19 1206.73 2417.64 1203.74 2416.94 1202.52 2417.12 1201 2418.06 1199.98L2421.06 1196.98C2422.11 1195.93 2422.27 1194.29 2421.44 1193.07 2416.53 1185.75 2410.24 1179.47 2402.93 1174.56 2401.7 1173.73 2400.06 1173.89 2399.02 1174.93L2396.02 1177.93 2396.02 1177.93C2394.99 1178.88 2393.47 1179.05 2392.26 1178.35 2389.27 1176.8 2386.15 1175.51 2382.94 1174.49 2381.59 1174.13 2380.63 1172.93 2380.59 1171.53L2380.59 1167.31C2380.59 1165.83 2379.54 1164.56 2378.09 1164.28 2369.45 1162.57 2360.55 1162.57 2351.91 1164.28 2350.46 1164.56 2349.41 1165.83 2349.41 1167.31L2349.41 1171.53C2349.37 1172.93 2348.41 1174.13 2347.06 1174.49 2343.85 1175.51 2340.73 1176.8 2337.74 1178.36 2336.53 1179.05 2335.01 1178.88 2333.98 1177.93L2330.98 1174.93C2329.94 1173.88 2328.3 1173.73 2327.07 1174.56 2319.76 1179.47 2313.47 1185.75 2308.56 1193.07 2307.73 1194.29 2307.89 1195.93 2308.94 1196.98L2311.93 1199.98 2311.94 1199.98C2312.89 1201 2313.06 1202.53 2312.36 1203.74 2310.81 1206.73 2309.51 1209.85 2308.49 1213.05ZM2314.38 1214.93 2314.38 1214.93C2315.3 1212.06 2316.46 1209.27 2317.84 1206.59 2318.79 1204.84 2319.16 1202.82 2318.88 1200.85 2318.61 1198.87 2317.7 1197.03 2316.31 1195.6L2315.15 1194.44 2315.15 1194.44C2318.87 1189.35 2323.36 1184.87 2328.45 1181.14L2329.61 1182.3C2331.03 1183.7 2332.87 1184.6 2334.85 1184.88 2336.82 1185.15 2338.84 1184.79 2340.59 1183.84 2343.27 1182.45 2346.06 1181.29 2348.93 1180.38 2350.84 1179.81 2352.51 1178.64 2353.71 1177.05 2354.91 1175.46 2355.57 1173.52 2355.6 1171.53L2355.6 1169.91 2355.6 1169.91C2361.83 1168.94 2368.17 1168.94 2374.41 1169.91L2374.41 1171.53 2374.41 1171.53C2374.43 1173.52 2375.09 1175.46 2376.29 1177.05 2377.49 1178.64 2379.16 1179.81 2381.07 1180.38 2383.94 1181.29 2386.73 1182.45 2389.41 1183.84 2391.16 1184.79 2393.17 1185.15 2395.15 1184.88 2397.13 1184.6 2398.97 1183.7 2400.39 1182.3L2401.55 1181.14 2401.56 1181.14C2406.64 1184.87 2411.13 1189.35 2414.85 1194.44L2413.7 1195.6C2412.3 1197.03 2411.4 1198.86 2411.12 1200.84 2410.84 1202.82 2411.21 1204.83 2412.16 1206.59 2413.54 1209.26 2414.7 1212.05 2415.62 1214.93 2416.19 1216.84 2417.36 1218.51 2418.95 1219.71 2420.54 1220.91 2422.47 1221.57 2424.46 1221.59L2426.08 1221.59 2426.08 1221.59C2427.06 1227.82 2427.06 1234.17 2426.08 1240.4L2424.46 1240.4 2424.46 1240.4C2422.47 1240.43 2420.54 1241.09 2418.95 1242.29 2417.36 1243.48 2416.19 1245.16 2415.62 1247.07 2414.7 1249.94 2413.55 1252.73 2412.16 1255.4 2411.21 1257.16 2410.84 1259.17 2411.12 1261.15 2411.39 1263.13 2412.3 1264.96 2413.7 1266.39L2414.85 1267.55 2414.85 1267.55C2411.13 1272.64 2406.64 1277.13 2401.56 1280.85L2400.4 1279.69C2398.97 1278.3 2397.13 1277.39 2395.16 1277.12 2393.18 1276.84 2391.16 1277.2 2389.41 1278.15 2386.73 1279.54 2383.94 1280.7 2381.07 1281.62 2379.16 1282.19 2377.49 1283.36 2376.29 1284.95 2375.09 1286.54 2374.43 1288.47 2374.41 1290.46L2374.41 1292.08 2374.41 1292.08C2368.17 1293.06 2361.83 1293.06 2355.6 1292.08L2355.6 1290.46 2355.6 1290.46C2355.57 1288.47 2354.91 1286.54 2353.71 1284.95 2352.51 1283.36 2350.84 1282.19 2348.93 1281.62 2346.06 1280.7 2343.27 1279.54 2340.6 1278.16 2338.84 1277.2 2336.83 1276.84 2334.85 1277.11 2332.87 1277.39 2331.03 1278.29 2329.61 1279.69L2328.45 1280.85 2328.45 1280.85C2323.36 1277.13 2318.87 1272.64 2315.15 1267.55L2316.31 1266.39C2317.7 1264.97 2318.61 1263.13 2318.88 1261.15 2319.16 1259.18 2318.8 1257.16 2317.85 1255.41 2316.46 1252.73 2315.3 1249.94 2314.38 1247.07 2313.81 1245.16 2312.64 1243.48 2311.05 1242.29 2309.46 1241.09 2307.53 1240.43 2305.54 1240.4L2303.92 1240.4 2303.92 1240.4C2302.94 1234.17 2302.94 1227.82 2303.92 1221.59L2305.54 1221.59 2305.54 1221.59C2307.53 1221.57 2309.46 1220.91 2311.05 1219.71 2312.64 1218.51 2313.81 1216.84 2314.38 1214.93Z" fill="#376C8A" fill-rule="evenodd"/><path d="M2365 1277C2377.2 1277 2388.9 1272.1 2397.53 1263.38 2406.15 1254.66 2411 1242.83 2411 1230.5 2411 1218.17 2406.15 1206.34 2397.53 1197.62 2388.9 1188.9 2377.2 1184 2365 1184 2352.8 1184 2341.1 1188.9 2332.47 1197.62 2323.85 1206.34 2319 1218.17 2319 1230.5 2319.01 1242.83 2323.86 1254.65 2332.49 1263.37 2341.11 1272.08 2352.8 1276.99 2365 1277ZM2365 1190.2C2375.57 1190.2 2385.71 1194.45 2393.19 1202 2400.67 1209.56 2404.87 1219.81 2404.87 1230.5 2404.87 1241.19 2400.67 1251.44 2393.19 1259 2385.71 1266.55 2375.57 1270.8 2365 1270.8 2354.43 1270.8 2344.29 1266.55 2336.81 1259 2329.33 1251.44 2325.13 1241.19 2325.13 1230.5 2325.15 1219.82 2329.35 1209.57 2336.82 1202.02 2344.3 1194.46 2354.43 1190.21 2365 1190.2Z" fill="#376C8A" fill-rule="evenodd"/><path d="M2348 1218C2350.12 1218 2352.16 1217.21 2353.66 1215.8 2355.16 1214.4 2356 1212.49 2356 1210.5 2356 1208.51 2355.16 1206.6 2353.66 1205.2 2352.16 1203.79 2350.12 1203 2348 1203 2345.88 1203 2343.84 1203.79 2342.34 1205.2 2340.84 1206.6 2340 1208.51 2340 1210.5 2340 1212.49 2340.85 1214.39 2342.35 1215.8 2343.85 1217.21 2345.88 1218 2348 1218ZM2348 1209C2348.65 1209 2349.23 1209.37 2349.48 1209.93 2349.73 1210.49 2349.59 1211.13 2349.13 1211.56 2348.67 1211.99 2347.99 1212.12 2347.39 1211.89 2346.79 1211.65 2346.4 1211.11 2346.4 1210.5 2346.4 1209.67 2347.12 1209 2348 1209Z" fill="#376C8A" fill-rule="evenodd"/><path d="M2348 1256C2350.12 1256 2352.16 1255.16 2353.66 1253.66 2355.16 1252.16 2356 1250.12 2356 1248 2356 1245.88 2355.16 1243.84 2353.66 1242.34 2352.16 1240.84 2350.12 1240 2348 1240 2345.88 1240 2343.84 1240.84 2342.34 1242.34 2340.84 1243.84 2340 1245.88 2340 1248 2340 1250.12 2340.85 1252.15 2342.35 1253.65 2343.85 1255.15 2345.88 1256 2348 1256ZM2348 1246.4C2348.65 1246.4 2349.23 1246.79 2349.48 1247.39 2349.73 1247.99 2349.59 1248.67 2349.13 1249.13 2348.67 1249.59 2347.99 1249.73 2347.39 1249.48 2346.79 1249.23 2346.4 1248.65 2346.4 1248 2346.4 1247.12 2347.12 1246.4 2348 1246.4Z" fill="#376C8A" fill-rule="evenodd"/><path d="M2348 1237C2350.12 1237 2352.16 1236.21 2353.66 1234.8 2355.16 1233.4 2356 1231.49 2356 1229.5 2356 1227.51 2355.16 1225.6 2353.66 1224.2 2352.16 1222.79 2350.12 1222 2348 1222 2345.88 1222 2343.84 1222.79 2342.34 1224.2 2340.84 1225.6 2340 1227.51 2340 1229.5 2340 1231.49 2340.85 1233.39 2342.35 1234.8 2343.85 1236.21 2345.88 1237 2348 1237ZM2348 1228C2348.65 1228 2349.23 1228.37 2349.48 1228.93 2349.73 1229.49 2349.59 1230.13 2349.13 1230.56 2348.67 1230.99 2347.99 1231.12 2347.39 1230.89 2346.79 1230.65 2346.4 1230.11 2346.4 1229.5 2346.4 1228.67 2347.12 1228 2348 1228Z" fill="#376C8A" fill-rule="evenodd"/><path d="M2359 1208 2390 1208 2390 1214 2359 1214Z" fill="#376C8A" fill-rule="evenodd"/><path d="M2359 1226 2390 1226 2390 1232 2359 1232Z" fill="#376C8A" fill-rule="evenodd"/><path d="M2359 1245 2390 1245 2390 1251 2359 1251Z" fill="#376C8A" fill-rule="evenodd"/><path d="M2284.5 1166C2288.61 1166 2292.55 1164.37 2295.46 1161.46 2298.37 1158.55 2300 1154.61 2300 1150.5 2300 1146.39 2298.37 1142.45 2295.46 1139.54 2292.55 1136.63 2288.61 1135 2284.5 1135 2280.39 1135 2276.45 1136.63 2273.54 1139.54 2270.63 1142.45 2269 1146.39 2269 1150.5 2269 1154.61 2270.64 1158.55 2273.54 1161.46 2276.45 1164.36 2280.39 1166 2284.5 1166ZM2284.5 1141.2C2286.97 1141.2 2289.33 1142.18 2291.08 1143.92 2292.82 1145.67 2293.8 1148.03 2293.8 1150.5 2293.8 1152.97 2292.82 1155.33 2291.08 1157.08 2289.33 1158.82 2286.97 1159.8 2284.5 1159.8 2282.03 1159.8 2279.67 1158.82 2277.92 1157.08 2276.18 1155.33 2275.2 1152.97 2275.2 1150.5 2275.2 1148.03 2276.18 1145.67 2277.93 1143.93 2279.67 1142.18 2282.03 1141.2 2284.5 1141.2Z" fill="#376C8A" fill-rule="evenodd"/><path d="M2459.43 1308.81 2437.65 1296.41C2436.69 1295.86 2435.51 1295.86 2434.55 1296.42 2433.59 1296.97 2433 1297.99 2433 1299.1L2433 1323.9C2433 1325.01 2433.59 1326.03 2434.55 1326.58 2435.51 1327.14 2436.69 1327.14 2437.65 1326.59L2459.43 1314.19C2460.4 1313.64 2461 1312.61 2461 1311.5 2461 1310.39 2460.4 1309.36 2459.43 1308.81ZM2439.22 1318.56 2439.22 1304.44 2451.62 1311.5Z" fill="#376C8A" fill-rule="evenodd"/><path d="M2426.92 1147 2303 1147 2303 1153.21 2426.92 1153.21C2434.31 1153.22 2441.4 1156.17 2446.63 1161.41 2451.86 1166.66 2454.8 1173.76 2454.8 1181.18L2454.8 1212.25C2454.8 1216.37 2453.17 1220.32 2450.26 1223.23 2447.36 1226.14 2443.42 1227.78 2439.31 1227.79L2436.22 1227.79 2436.22 1234 2439.31 1234C2445.06 1233.99 2450.57 1231.7 2454.64 1227.62 2458.71 1223.54 2460.99 1218.02 2461 1212.25L2461 1181.18C2460.99 1172.12 2457.4 1163.43 2451.01 1157.02 2444.62 1150.62 2435.96 1147.01 2426.92 1147Z" fill="#376C8A" fill-rule="evenodd"/><path d="M2303.06 1314 2430 1314 2430 1307.86 2303.06 1307.86C2295.67 1307.85 2288.59 1304.93 2283.36 1299.75 2278.14 1294.57 2275.2 1287.54 2275.19 1280.21L2275.19 1249.5C2275.2 1245.43 2276.83 1241.53 2279.73 1238.65 2282.63 1235.77 2286.57 1234.15 2290.67 1234.14L2293.77 1234.14 2293.77 1228 2290.67 1228C2284.93 1228.01 2279.42 1230.27 2275.36 1234.3 2271.29 1238.34 2269.01 1243.8 2269 1249.5L2269 1280.21C2269.01 1289.17 2272.6 1297.76 2278.99 1304.09 2285.37 1310.43 2294.03 1313.99 2303.06 1314Z" fill="#376C8A" fill-rule="evenodd"/></g></svg>