<svg width="192" height="159" xmlns="http://www.w3.org/2000/svg" xmlns:xlink="http://www.w3.org/1999/xlink" xml:space="preserve" overflow="hidden"><defs><clipPath id="clip0"><rect x="2269" y="1900" width="192" height="159"/></clipPath></defs><g clip-path="url(#clip0)" transform="translate(-2269 -1900)"><path d="M2316.71 1970.85 2316.71 1963.39 2323.82 1963.39C2325.6 1963.39 2327.03 1961.96 2327.03 1960.19 2327.03 1958.43 2325.6 1957 2323.82 1957L2303.18 1957C2301.41 1957 2299.97 1958.43 2299.97 1960.19 2299.97 1961.96 2301.41 1963.39 2303.18 1963.39L2310.29 1963.39 2310.29 1970.85C2287.25 1972.5 2269 1991.63 2269 2014.96 2271.44 2073.69 2355.56 2073.67 2358 2014.96 2358 1991.63 2339.75 1972.5 2316.71 1970.85ZM2313.5 2052.84C2292.5 2052.84 2275.42 2035.85 2275.42 2014.96 2277.51 1964.71 2349.49 1964.72 2351.58 2014.96 2351.58 2035.85 2334.5 2052.84 2313.5 2052.84Z" fill="#376C8A" fill-rule="evenodd"/><path d="M2313.26 1988C2311.46 1988 2310 1989.42 2310 1991.18L2310 2014.99C2310 2015.83 2310.34 2016.64 2310.96 2017.23L2328.26 2034.07C2328.9 2034.69 2329.73 2035 2330.57 2035 2331.4 2035 2332.24 2034.69 2332.88 2034.07 2338.11 2028.98 2341 2022.2 2341 2014.99 2341 2000.11 2328.56 1988 2313.26 1988ZM2330.4 2027.17 2316.53 2013.67 2316.53 1994.59C2331.7 1996.39 2339.89 2015.31 2330.4 2027.17Z" fill="#376C8A" fill-rule="evenodd"/><path d="M2457.81 1900 2311.19 1900C2309.43 1900 2308 1901.42 2308 1903.17L2308 1947.57C2308 1949.32 2309.43 1950.74 2311.19 1950.74 2312.95 1950.74 2314.38 1949.32 2314.38 1947.57L2314.38 1931.71 2406.81 1931.71 2406.81 2004.66 2367.19 2004.66C2363.04 2004.71 2362.97 2010.93 2367.19 2011L2457.81 2011C2459.57 2011 2461 2009.58 2461 2007.83L2461 1903.17C2461 1901.42 2459.57 1900 2457.81 1900ZM2314.38 1906.34 2454.62 1906.34 2454.62 1925.37 2314.38 1925.37ZM2413.19 2004.66 2413.19 1931.71 2454.62 1931.71 2454.62 2004.66Z" fill="#376C8A" fill-rule="evenodd"/><path d="M2369.52 1938.94 2355.81 1952.42 2348.48 1945.22C2345.52 1942.33 2341.01 1946.75 2343.96 1949.66L2353.55 1959.08C2354.17 1959.69 2354.99 1960 2355.81 1960 2356.62 1960 2357.44 1959.69 2358.07 1959.08L2374.04 1943.38C2376.98 1940.47 2372.5 1936.05 2369.52 1938.94Z" fill="#376C8A" fill-rule="evenodd"/><path d="M2362 1973C2362 1974.66 2363.46 1976 2365.26 1976L2379.74 1976C2381.54 1976 2383 1974.66 2383 1973 2383 1971.34 2381.54 1970 2379.74 1970L2365.26 1970C2363.46 1970 2362 1971.34 2362 1973Z" fill="#376C8A" fill-rule="evenodd"/><path d="M2396.89 1989C2401.03 1988.98 2401.05 1983.02 2396.89 1983L2365.12 1983C2360.97 1983.02 2360.95 1988.98 2365.12 1989L2396.89 1989Z" fill="#376C8A" fill-rule="evenodd"/></g></svg>