<svg width="192" height="190" xmlns="http://www.w3.org/2000/svg" xmlns:xlink="http://www.w3.org/1999/xlink" xml:space="preserve" overflow="hidden"><g transform="translate(-2269 -1510)"><path d="M2352 1607C2345.92 1607 2341 1611.7 2341 1617.5 2341 1623.3 2345.92 1628 2352 1628 2358.08 1628 2363 1623.3 2363 1617.5 2363 1611.7 2358.08 1607 2352 1607Z" fill="#376C8A" fill-rule="evenodd"/><path d="M2457.77 1551.53 2450.68 1551.53C2449.7 1547.62 2448.16 1543.91 2446.11 1540.43L2451 1535.56C2452.25 1534.31 2452.26 1532.29 2451.01 1531.04L2439.9 1519.91C2438.65 1518.65 2436.59 1518.64 2435.35 1519.89L2430.3 1524.82C2426.81 1522.81 2423.1 1521.27 2419.22 1520.21L2419.22 1513.21C2419.22 1511.43 2417.77 1510 2415.99 1510L2400.3 1510C2398.51 1510 2397.07 1511.43 2397.07 1513.21L2397.07 1520.18C2393.13 1521.22 2389.37 1522.76 2385.85 1524.8L2380.92 1519.9C2379.66 1518.65 2377.61 1518.65 2376.35 1519.9L2365.15 1531.03C2364.54 1531.63 2364.2 1532.45 2364.2 1533.3 2364.2 1534.15 2364.54 1534.96 2365.15 1535.57L2370.1 1540.46C2368.11 1543.86 2366.61 1547.5 2365.57 1551.3 2362.15 1550.61 2358.68 1550.13 2355.18 1549.97L2355.17 1538.37C2355.17 1536.59 2353.73 1535.16 2351.95 1535.16 2350.16 1535.16 2348.72 1536.59 2348.72 1538.37L2348.72 1549.98C2343.98 1550.21 2339.24 1550.9 2334.55 1552.13 2316.94 1556.74 2302.21 1567.89 2293.05 1583.53 2287.34 1593.26 2284.41 1603.83 2283.92 1614.38L2272.23 1614.38C2270.44 1614.38 2269 1615.82 2269 1617.58 2269 1619.35 2270.44 1620.79 2272.23 1620.79L2283.92 1620.79C2285 1642.95 2296.94 1664.15 2317.62 1676.13 2327.1 1681.61 2337.8 1684.61 2348.71 1685.12L2348.71 1696.79C2348.71 1698.57 2350.16 1700 2351.94 1700 2353.72 1700 2355.16 1698.56 2355.16 1696.79L2355.16 1685.1C2367 1684.58 2378.28 1680.99 2388.24 1674.64 2388.52 1675.23 2388.67 1675.86 2388.98 1676.42L2385.97 1679.35C2385.35 1679.95 2385.01 1680.77 2385 1681.62 2385 1682.47 2385.34 1683.3 2385.94 1683.91L2393.86 1691.77C2394.46 1692.37 2395.28 1692.71 2396.14 1692.71L2396.16 1692.71C2397.02 1692.7 2397.84 1692.36 2398.45 1691.74L2401.37 1688.77C2403.51 1689.95 2405.77 1690.88 2408.12 1691.54L2408.12 1695.65C2408.12 1697.42 2409.57 1698.85 2411.34 1698.85L2422.42 1698.85C2424.2 1698.85 2425.65 1697.41 2425.65 1695.65L2425.65 1691.53C2427.97 1690.86 2430.2 1689.93 2432.33 1688.75L2435.36 1691.77C2435.97 1692.37 2436.79 1692.71 2437.64 1692.71L2437.65 1692.71C2438.51 1692.7 2439.34 1692.37 2439.93 1691.76L2447.77 1683.89C2449.02 1682.64 2449.01 1680.62 2447.76 1679.38L2444.81 1676.44C2445.98 1674.3 2446.9 1672.07 2447.56 1669.73L2451.84 1669.73C2452.7 1669.73 2453.52 1669.4 2454.11 1668.8 2454.72 1668.19 2455.07 1667.38 2455.07 1666.53L2455.07 1655.51C2455.07 1653.74 2453.62 1652.31 2451.84 1652.31L2447.58 1652.31C2446.93 1649.97 2446.01 1647.71 2444.82 1645.58L2447.76 1642.65C2449.02 1641.4 2449.01 1639.38 2447.76 1638.13L2439.93 1630.34C2438.68 1629.08 2436.65 1629.08 2435.39 1630.31L2432.35 1633.27C2430.22 1632.08 2427.98 1631.14 2425.65 1630.47L2425.65 1626.28C2425.65 1624.51 2424.2 1623.08 2422.42 1623.08L2419.74 1623.08C2419.79 1622.31 2419.85 1621.56 2419.88 1620.81L2431.63 1620.81C2433.41 1620.81 2434.85 1619.36 2434.85 1617.6 2434.85 1615.84 2433.4 1614.39 2431.63 1614.39L2419.95 1614.39C2419.82 1611.89 2419.61 1609.38 2419.22 1606.92 2419.22 1606.9 2419.24 1606.87 2419.24 1606.84L2419.24 1604.93C2423.11 1603.88 2426.82 1602.35 2430.3 1600.35L2435.3 1605.32C2435.9 1605.92 2436.72 1606.26 2437.58 1606.26 2438.79 1606.46 2439.27 1605.92 2439.88 1605.3L2450.95 1594.09C2452.2 1592.83 2452.18 1590.81 2450.92 1589.57L2446.02 1584.75C2448.06 1581.25 2449.6 1577.52 2450.59 1573.61L2457.77 1573.61C2459.55 1573.61 2461 1572.17 2461 1570.4L2461 1554.74C2461 1552.97 2459.55 1551.53 2457.77 1551.53ZM2374.73 1620.8 2383.05 1620.8C2381.52 1635.43 2369.89 1646.98 2355.17 1648.51L2355.17 1640.23C2355.17 1638.46 2353.72 1637.03 2351.94 1637.03 2350.16 1637.03 2348.71 1638.47 2348.71 1640.23L2348.71 1648.51C2333.99 1646.98 2322.36 1635.43 2320.83 1620.8L2329.14 1620.8C2330.93 1620.8 2332.37 1619.36 2332.37 1617.59 2332.37 1615.83 2330.93 1614.39 2329.14 1614.39L2320.82 1614.39C2322.36 1599.75 2333.98 1588.19 2348.71 1586.67L2348.71 1594.94C2348.71 1596.71 2350.16 1598.15 2351.94 1598.15 2353.72 1598.15 2355.17 1596.71 2355.17 1594.94L2355.17 1586.66C2369.89 1588.19 2381.52 1599.74 2383.05 1614.38L2374.73 1614.38C2372.95 1614.38 2371.5 1615.82 2371.5 1617.58 2371.5 1619.35 2372.95 1620.8 2374.73 1620.8ZM2298.62 1586.75C2309.47 1568.25 2328.64 1557.52 2348.71 1556.45L2348.71 1580.26C2330.43 1581.82 2315.95 1596.21 2314.38 1614.38L2290.38 1614.38C2290.87 1604.93 2293.52 1595.47 2298.62 1586.75ZM2320.86 1670.59C2302.24 1659.8 2291.44 1640.75 2290.37 1620.8L2314.37 1620.8C2315.94 1638.97 2330.43 1653.36 2348.71 1654.92L2348.71 1678.68C2338.91 1678.06 2329.36 1675.51 2320.86 1670.6ZM2421.79 1636.13C2425.1 1636.79 2428.21 1638.08 2431.02 1639.97 2432.3 1640.82 2433.99 1640.66 2435.09 1639.6L2437.64 1637.11 2440.93 1640.38 2438.48 1642.83C2437.39 1643.91 2437.23 1645.6 2438.07 1646.87 2439.95 1649.69 2441.23 1652.78 2441.85 1656.1 2442.15 1657.61 2443.48 1658.72 2445.03 1658.72L2448.62 1658.72 2448.62 1663.33 2445.03 1663.32C2443.49 1663.32 2442.17 1664.41 2441.86 1665.91 2441.21 1669.24 2439.92 1672.37 2438.06 1675.19 2437.22 1676.46 2437.39 1678.14 2438.47 1679.21L2440.94 1681.67 2437.64 1684.98 2435.1 1682.45C2434.01 1681.37 2432.3 1681.21 2431.02 1682.06 2428.2 1683.94 2425.1 1685.23 2421.78 1685.89 2420.28 1686.2 2419.2 1687.51 2419.2 1689.04L2419.2 1692.47 2414.58 1692.47 2414.58 1689.04C2414.58 1687.51 2413.48 1686.2 2411.97 1685.89 2408.64 1685.24 2405.5 1683.96 2402.67 1682.06 2401.39 1681.19 2399.66 1681.37 2398.56 1682.48L2396.12 1684.97 2392.81 1681.69 2395.33 1679.25C2396.43 1678.17 2396.61 1676.46 2395.75 1675.19 2393.87 1672.35 2392.56 1669.23 2391.89 1665.91 2391.59 1664.41 2390.27 1663.33 2388.73 1663.33L2385.17 1663.33 2385.17 1658.72 2388.69 1658.72C2390.22 1658.72 2391.55 1657.65 2391.85 1656.16 2392.54 1652.81 2393.85 1649.69 2395.73 1646.86 2396.58 1645.59 2396.4 1643.88 2395.3 1642.8L2392.8 1640.37 2396.1 1637.12 2398.56 1639.57C2399.65 1640.67 2401.36 1640.83 2402.65 1639.97 2405.48 1638.08 2408.6 1636.79 2411.95 1636.13 2413.46 1635.83 2414.55 1634.52 2414.55 1632.98L2414.55 1629.48 2419.19 1629.48 2419.19 1632.98C2419.2 1634.51 2420.29 1635.82 2421.79 1636.13ZM2413.29 1623.07 2411.33 1623.07C2409.55 1623.07 2408.1 1624.51 2408.1 1626.28L2408.1 1630.45C2405.74 1631.12 2403.48 1632.06 2401.32 1633.25L2398.4 1630.34C2397.15 1629.08 2395.11 1629.09 2393.85 1630.32L2385.94 1638.12C2385.33 1638.72 2384.98 1639.54 2384.98 1640.4 2384.99 1641.26 2385.34 1642.08 2385.95 1642.69L2388.97 1645.61C2387.79 1647.74 2386.84 1649.97 2386.17 1652.31L2381.94 1652.31C2380.16 1652.31 2378.71 1653.75 2378.71 1655.51L2378.71 1666.54C2378.71 1668.31 2380.17 1669.74 2381.94 1669.74L2383.99 1669.74C2375.25 1675.12 2365.45 1678.19 2355.16 1678.68L2355.16 1654.92C2373.45 1653.36 2387.93 1638.97 2389.51 1620.8L2413.43 1620.8C2413.4 1621.55 2413.35 1622.31 2413.29 1623.07ZM2389.51 1614.38C2387.93 1596.21 2373.45 1581.82 2355.17 1580.26L2355.17 1556.46C2364.68 1556.94 2374.22 1559.57 2383.01 1564.66 2392.52 1570.06 2400.35 1577.95 2405.67 1587.48 2405.78 1587.67 2405.9 1587.86 2406.06 1588.03 2409.4 1594.06 2411.68 1600.57 2412.82 1607.37 2413.19 1609.66 2413.27 1612.03 2413.39 1614.38ZM2410.15 1582.55C2404.68 1573.46 2397.11 1565.85 2388.05 1560.3 2389.17 1550.26 2397.52 1542.47 2407.86 1542.3 2418.99 1542.47 2428.34 1551.05 2428.53 1562.2 2428.7 1572.78 2420.57 1581.53 2410.15 1582.55ZM2454.54 1567.18 2448.04 1567.18C2446.49 1567.18 2445.16 1568.27 2444.86 1569.79 2443.92 1574.68 2442.03 1579.28 2439.26 1583.45 2438.41 1584.72 2438.59 1586.42 2439.69 1587.5L2444.13 1591.86 2437.59 1598.48 2433.08 1594C2432 1592.93 2430.3 1592.76 2429.02 1593.59 2425.43 1595.93 2421.49 1597.54 2417.36 1598.64 2416.35 1595.19 2415.09 1591.83 2413.54 1588.58 2425.92 1586.07 2435.19 1575.1 2434.98 1562.1 2434.73 1547.41 2422.39 1535.73 2407.75 1535.9 2395.06 1536.1 2384.57 1545.01 2382.01 1556.93 2378.74 1555.31 2375.38 1553.98 2371.94 1552.92 2373.03 1548.97 2374.58 1545.19 2376.88 1541.76 2377.73 1540.49 2377.57 1538.79 2376.47 1537.71L2371.99 1533.28 2378.62 1526.69 2383.07 1531.12C2384.17 1532.2 2385.85 1532.38 2387.13 1531.53 2391.34 1528.77 2396 1526.86 2400.93 1525.86 2402.44 1525.55 2403.51 1524.24 2403.51 1522.71L2403.51 1516.42 2412.76 1516.42 2412.76 1522.73C2412.76 1524.24 2413.83 1525.55 2415.31 1525.86 2420.2 1526.9 2424.8 1528.81 2428.98 1531.54 2430.26 1532.37 2431.93 1532.2 2433.01 1531.14L2437.57 1526.69 2444.16 1533.28 2439.69 1537.72C2438.6 1538.81 2438.44 1540.52 2439.31 1541.79 2442.11 1545.89 2443.99 1550.43 2444.88 1555.31 2445.16 1556.84 2446.5 1557.94 2448.06 1557.94L2454.55 1557.95Z" fill="#376C8A" fill-rule="evenodd"/><path d="M2409.19 1643.55 2409.19 1643.55C2402.03 1646.53 2397 1653.45 2397 1661.5 2397 1672.25 2405.97 1681 2417 1681 2428.02 1681 2437 1672.25 2437 1661.5 2437 1650.76 2428.02 1642 2417 1642 2414.23 1642 2411.59 1642.55 2409.19 1643.55ZM2430.48 1661.5C2430.48 1668.75 2424.43 1674.65 2417 1674.65 2409.56 1674.65 2403.52 1668.75 2403.52 1661.5 2403.52 1656.13 2406.84 1651.52 2411.59 1649.47 2411.67 1649.44 2411.74 1649.4 2411.81 1649.37 2413.41 1648.72 2415.16 1648.35 2417 1648.35 2424.43 1648.35 2430.48 1654.25 2430.48 1661.5Z" fill="#376C8A" fill-rule="evenodd"/></g></svg>