<svg width="179" height="200" xmlns="http://www.w3.org/2000/svg" xmlns:xlink="http://www.w3.org/1999/xlink" xml:space="preserve" overflow="hidden"><g transform="translate(-2276 -757)"><path d="M2447.87 905.005 2446.07 888.752C2444.98 878.773 2439.69 869.721 2431.51 863.868L2421.24 856.5 2422.66 852.247C2423.75 849.005 2424.3 845.552 2424.3 842.142L2424.3 830.184C2424.3 829.258 2423.54 828.5 2422.62 828.5L2395.77 828.5C2394.85 828.5 2394.1 829.258 2394.1 830.184L2394.1 842.1C2394.1 845.552 2394.64 848.963 2395.73 852.205L2397.16 856.458 2386.84 863.868C2378.7 869.721 2373.41 878.773 2372.28 888.752L2367.29 934.016 2362.09 941.805C2359.19 946.142 2360.37 951.995 2364.69 954.9 2366.24 955.953 2368.05 956.5 2369.89 956.5L2422.62 956.5C2440.2 956.5 2454.5 942.227 2454.5 924.542 2454.5 917.469 2452.19 910.606 2447.87 905.006ZM2442.76 889.089 2444.06 900.794C2439.44 896.584 2433.74 893.847 2427.61 892.879L2433.65 888.837C2434.41 888.331 2434.62 887.321 2434.16 886.563L2416.96 858.984 2417.04 858.858 2418.76 858.858 2429.63 866.647C2436.97 871.91 2441.75 880.079 2442.76 889.089ZM2413.31 858.816 2398.25 892.121 2391.45 889.847 2406.89 858.816ZM2415.28 862.647 2430.42 886.984 2423.21 891.826 2411.46 871.152ZM2397.45 831.868 2420.94 831.868 2420.94 842.1C2420.94 845.174 2420.44 848.247 2419.47 851.153L2418.05 855.447 2400.35 855.447 2398.92 851.153C2397.95 848.247 2397.45 845.174 2397.45 842.1ZM2369.93 953.131C2366.58 953.131 2363.89 950.394 2363.89 947.068 2363.89 945.889 2364.23 944.71 2364.9 943.699L2370.31 935.531C2370.48 935.32 2370.56 935.068 2370.56 934.773L2375.64 889.09C2376.64 880.037 2381.43 871.869 2388.81 866.563L2399.67 858.774 2403.11 858.774 2387.55 890.016C2387.13 890.858 2387.47 891.869 2388.31 892.29 2388.39 892.332 2388.43 892.374 2388.52 892.374L2398.58 895.742C2399.38 895.995 2400.3 895.616 2400.64 894.858L2409.7 874.858 2419.81 892.584C2402.27 894.142 2389.31 909.679 2390.86 927.279 2391.83 938.353 2398.5 948.121 2408.4 953.089L2369.93 953.089ZM2422.62 953.131C2406.85 953.131 2394.1 940.331 2394.1 924.5 2394.1 908.668 2406.85 895.868 2422.62 895.868 2438.4 895.868 2451.15 908.668 2451.15 924.5 2451.15 940.289 2438.35 953.131 2422.62 953.131Z" stroke="#376C8A" stroke-width="1.14583" stroke-miterlimit="8" fill="#376C8A" fill-rule="evenodd"/><path d="M2279.86 774.363 2394.16 774.363 2394.16 796.286C2394.16 797.214 2394.92 797.973 2395.84 797.973L2417.69 797.973 2417.69 823.269 2421.06 823.269 2421.06 796.286C2421.06 795.823 2420.89 795.401 2420.55 795.106L2397.02 771.496C2396.68 771.158 2396.26 770.99 2395.84 770.99L2293.31 770.99 2293.31 760.871 2431.14 760.871 2431.14 857 2434.5 857 2434.5 759.187C2434.5 758.259 2433.74 757.5 2432.82 757.5L2291.63 757.5C2290.7 757.5 2289.95 758.259 2289.95 759.187L2289.95 770.992 2278.18 770.992C2277.26 770.992 2276.5 771.751 2276.5 772.678L2276.5 954.814C2276.5 955.741 2277.26 956.5 2278.18 956.5L2355.5 956.5 2355.5 953.127 2279.86 953.127ZM2397.52 776.766 2415.3 794.6 2397.52 794.6Z" stroke="#376C8A" stroke-width="1.14583" stroke-miterlimit="8" fill="#376C8A" fill-rule="evenodd"/><path d="M2323.5 810C2323.5 824.068 2334.93 835.5 2349 835.5 2363.07 835.5 2374.5 824.068 2374.5 810 2374.5 795.933 2363.07 784.5 2349 784.5 2334.93 784.5 2323.5 795.933 2323.5 810ZM2371.1 810C2371.1 822.198 2361.2 832.1 2349 832.1 2336.8 832.1 2326.9 822.198 2326.9 810 2326.9 797.802 2336.8 787.9 2349 787.9 2361.2 787.9 2371.1 797.802 2371.1 810Z" stroke="#376C8A" stroke-width="1.14583" stroke-miterlimit="8" fill="#376C8A" fill-rule="evenodd"/><path d="M2340.5 822.965 2354.4 795.5 2357.5 797.035 2343.6 824.5Z" stroke="#376C8A" stroke-width="1.14583" stroke-miterlimit="8" fill="#376C8A" fill-rule="evenodd"/><path d="M2338.5 798.5 2345.5 798.5 2345.5 801.5 2338.5 801.5Z" stroke="#376C8A" stroke-width="1.14583" stroke-miterlimit="8" fill="#376C8A" fill-rule="evenodd"/><path d="M2352.5 818.5 2358.5 818.5 2358.5 821.5 2352.5 821.5Z" stroke="#376C8A" stroke-width="1.14583" stroke-miterlimit="8" fill="#376C8A" fill-rule="evenodd"/><path d="M2337.29 922.431 2362.55 922.431 2362.55 919.086 2323.81 919.086 2323.81 902.362 2365.92 902.362 2365.92 899.017 2350.76 899.017 2350.76 882.293 2369.29 882.293 2369.29 878.948 2317.08 878.948 2317.08 862.224 2379.4 862.224 2379.4 858.879 2296.87 858.879 2296.87 848.845 2389.5 848.845 2389.5 845.5 2295.18 845.5C2294.26 845.5 2293.5 846.253 2293.5 847.173L2293.5 940.828C2293.5 941.747 2294.26 942.5 2295.18 942.5L2355.82 942.5 2355.82 939.155 2337.29 939.155ZM2320.44 919.086 2296.86 919.086 2296.86 902.362 2320.44 902.362ZM2347.39 899.017 2296.86 899.017 2296.86 882.293 2347.39 882.293ZM2313.71 862.224 2313.71 878.948 2296.86 878.948 2296.86 862.224ZM2296.86 922.431 2333.92 922.431 2333.92 939.155 2296.86 939.155Z" stroke="#376C8A" stroke-width="1.14583" stroke-miterlimit="8" fill="#376C8A" fill-rule="evenodd"/><path d="M2435.49 906.909C2435.45 906.405 2435.15 905.942 2434.67 905.69 2424.08 899.427 2410.26 902.664 2403.77 912.962 2399.41 919.939 2399.41 928.724 2403.77 935.701 2404.03 936.122 2404.51 936.416 2405.03 936.5L2405.24 936.5C2405.72 936.5 2406.15 936.332 2406.45 935.995L2434.98 908.254C2435.36 907.96 2435.54 907.455 2435.49 906.909ZM2405.67 932.044C2401.31 922.755 2405.5 911.784 2415.05 907.539 2420.07 905.311 2425.86 905.311 2430.91 907.539Z" stroke="#376C8A" stroke-width="1.14583" stroke-miterlimit="8" fill="#376C8A" fill-rule="evenodd"/><path d="M2441.32 913.305C2440.82 912.509 2439.81 912.257 2439.01 912.76 2438.88 912.844 2438.8 912.928 2438.72 913.012L2411 940.678C2410.33 941.348 2410.33 942.396 2411 943.067 2411.09 943.151 2411.21 943.235 2411.3 943.318 2421.58 949.564 2435.02 946.336 2441.32 936.067 2445.56 929.024 2445.56 920.264 2441.32 913.305ZM2422.68 943.109C2420.03 943.109 2417.39 942.522 2414.99 941.432L2439.51 916.994C2443.75 926.258 2439.68 937.198 2430.4 941.432 2427.97 942.522 2425.32 943.109 2422.68 943.109Z" stroke="#376C8A" stroke-width="1.14583" stroke-miterlimit="8" fill="#376C8A" fill-rule="evenodd"/></g></svg>