<svg width="3970" height="653" xmlns="http://www.w3.org/2000/svg" xmlns:xlink="http://www.w3.org/1999/xlink" xml:space="preserve" overflow="hidden"><g transform="translate(-216 -418)"><path d="M217.912 420.588 4182.09 420.588 4182.09 485.072 217.912 485.072Z" fill="#376C8A" fill-rule="evenodd"/><path d="M217.912 485.072 618.75 485.072 618.75 599.056 217.912 599.056Z" fill="#FFFFFF" fill-rule="evenodd"/><path d="M618.75 485.072 1014.75 485.072 1014.75 599.056 618.75 599.056Z" fill="#FFFFFF" fill-rule="evenodd"/><path d="M1014.75 485.072 1510.67 485.072 1510.67 599.056 1014.75 599.056Z" fill="#FFFFFF" fill-rule="evenodd"/><path d="M1510.67 485.072 1705 485.072 1705 599.056 1510.67 599.056Z" fill="#FFFFFF" fill-rule="evenodd"/><path d="M1705 485.072 1894.44 485.072 1894.44 599.056 1705 599.056Z" fill="#FFFFFF" fill-rule="evenodd"/><path d="M1894.44 485.072 2046.95 485.072 2046.95 599.056 1894.44 599.056Z" fill="#FFFFFF" fill-rule="evenodd"/><path d="M2046.95 485.072 2199.46 485.072 2199.46 599.056 2046.95 599.056Z" fill="#FFFFFF" fill-rule="evenodd"/><path d="M2199.46 485.072 2351.97 485.072 2351.97 599.056 2199.46 599.056Z" fill="#FFFFFF" fill-rule="evenodd"/><path d="M2351.97 485.072 2504.48 485.072 2504.48 599.056 2351.97 599.056Z" fill="#FFFFFF" fill-rule="evenodd"/><path d="M2504.48 485.072 2656.99 485.072 2656.99 599.056 2504.48 599.056Z" fill="#FFFFFF" fill-rule="evenodd"/><path d="M2656.99 485.072 2809.5 485.072 2809.5 599.056 2656.99 599.056Z" fill="#FFFFFF" fill-rule="evenodd"/><path d="M2809.5 485.072 2962.01 485.072 2962.01 599.056 2809.5 599.056Z" fill="#FFFFFF" fill-rule="evenodd"/><path d="M2962.01 485.072 3114.52 485.072 3114.52 599.056 2962.01 599.056Z" fill="#FFFFFF" fill-rule="evenodd"/><path d="M3114.52 485.072 3267.03 485.072 3267.03 599.056 3114.52 599.056Z" fill="#FFFFFF" fill-rule="evenodd"/><path d="M3267.03 485.072 3419.54 485.072 3419.54 599.056 3267.03 599.056Z" fill="#FFFFFF" fill-rule="evenodd"/><path d="M3419.54 485.072 3572.05 485.072 3572.05 599.056 3419.54 599.056Z" fill="#FFFFFF" fill-rule="evenodd"/><path d="M3572.05 485.072 3724.56 485.072 3724.56 599.056 3572.05 599.056Z" fill="#FFFFFF" fill-rule="evenodd"/><path d="M3724.56 485.072 3877.07 485.072 3877.07 599.056 3724.56 599.056Z" fill="#FFFFFF" fill-rule="evenodd"/><path d="M3877.07 485.072 4029.58 485.072 4029.58 599.056 3877.07 599.056Z" fill="#FFFFFF" fill-rule="evenodd"/><path d="M4029.58 485.072 4182.09 485.072 4182.09 599.056 4029.58 599.056Z" fill="#FFFFFF" fill-rule="evenodd"/><path d="M217.912 599.056 618.75 599.056 618.75 677.1 217.912 677.1Z" fill="#FFFFFF" fill-rule="evenodd"/><path d="M618.75 599.056 1014.75 599.056 1014.75 677.1 618.75 677.1Z" fill="#FFFFFF" fill-rule="evenodd"/><path d="M1014.75 599.056 1510.67 599.056 1510.67 677.1 1014.75 677.1Z" fill="#FFFFFF" fill-rule="evenodd"/><path d="M1510.67 599.056 1705 599.056 1705 677.1 1510.67 677.1Z" fill="#FFFFFF" fill-rule="evenodd"/><path d="M1705 599.056 1894.44 599.056 1894.44 677.1 1705 677.1Z" fill="#FFFFFF" fill-rule="evenodd"/><path d="M1894.44 599.056 2046.95 599.056 2046.95 677.1 1894.44 677.1Z" fill="#FFFFFF" fill-rule="evenodd"/><path d="M2046.95 599.056 2199.46 599.056 2199.46 677.1 2046.95 677.1Z" fill="#FFFFFF" fill-rule="evenodd"/><path d="M2199.46 599.056 2351.97 599.056 2351.97 677.1 2199.46 677.1Z" fill="#FFFFFF" fill-rule="evenodd"/><path d="M2351.97 599.056 2504.48 599.056 2504.48 677.1 2351.97 677.1Z" fill="#FFFFFF" fill-rule="evenodd"/><path d="M2504.48 599.056 2656.99 599.056 2656.99 677.1 2504.48 677.1Z" fill="#FFFFFF" fill-rule="evenodd"/><path d="M2656.99 599.056 2809.5 599.056 2809.5 677.1 2656.99 677.1Z" fill="#FFFFFF" fill-rule="evenodd"/><path d="M2809.5 599.056 2962.01 599.056 2962.01 677.1 2809.5 677.1Z" fill="#FFFFFF" fill-rule="evenodd"/><path d="M2962.01 599.056 3114.52 599.056 3114.52 677.1 2962.01 677.1Z" fill="#FFFFFF" fill-rule="evenodd"/><path d="M3114.52 599.056 3267.03 599.056 3267.03 677.1 3114.52 677.1Z" fill="#FFFFFF" fill-rule="evenodd"/><path d="M3267.03 599.056 3419.54 599.056 3419.54 677.1 3267.03 677.1Z" fill="#FFFFFF" fill-rule="evenodd"/><path d="M3419.54 599.056 3572.05 599.056 3572.05 677.1 3419.54 677.1Z" fill="#FFFFFF" fill-rule="evenodd"/><path d="M3572.05 599.056 3724.56 599.056 3724.56 677.1 3572.05 677.1Z" fill="#FFFFFF" fill-rule="evenodd"/><path d="M3724.56 599.056 3877.07 599.056 3877.07 677.1 3724.56 677.1Z" fill="#FFFFFF" fill-rule="evenodd"/><path d="M3877.07 599.056 4029.58 599.056 4029.58 677.1 3877.07 677.1Z" fill="#FFFFFF" fill-rule="evenodd"/><path d="M4029.58 599.056 4182.09 599.056 4182.09 677.1 4029.58 677.1Z" fill="#FFFFFF" fill-rule="evenodd"/><path d="M217.912 677.1 618.75 677.1 618.75 755.144 217.912 755.144Z" fill="#FFFFFF" fill-rule="evenodd"/><path d="M618.75 677.1 1014.75 677.1 1014.75 755.144 618.75 755.144Z" fill="#FFFFFF" fill-rule="evenodd"/><path d="M1014.75 677.1 1510.67 677.1 1510.67 755.144 1014.75 755.144Z" fill="#FFFFFF" fill-rule="evenodd"/><path d="M1510.67 677.1 1705 677.1 1705 755.144 1510.67 755.144Z" fill="#FFFFFF" fill-rule="evenodd"/><path d="M1705 677.1 1894.44 677.1 1894.44 755.144 1705 755.144Z" fill="#FFFFFF" fill-rule="evenodd"/><path d="M1894.44 677.1 2046.95 677.1 2046.95 755.144 1894.44 755.144Z" fill="#FFFFFF" fill-rule="evenodd"/><path d="M2046.95 677.1 2199.46 677.1 2199.46 755.144 2046.95 755.144Z" fill="#FFFFFF" fill-rule="evenodd"/><path d="M2199.46 677.1 2351.97 677.1 2351.97 755.144 2199.46 755.144Z" fill="#FFFFFF" fill-rule="evenodd"/><path d="M2351.97 677.1 2504.48 677.1 2504.48 755.144 2351.97 755.144Z" fill="#FFFFFF" fill-rule="evenodd"/><path d="M2504.48 677.1 2656.99 677.1 2656.99 755.144 2504.48 755.144Z" fill="#FFFFFF" fill-rule="evenodd"/><path d="M2656.99 677.1 2809.5 677.1 2809.5 755.144 2656.99 755.144Z" fill="#FFFFFF" fill-rule="evenodd"/><path d="M2809.5 677.1 2962.01 677.1 2962.01 755.144 2809.5 755.144Z" fill="#FFFFFF" fill-rule="evenodd"/><path d="M2962.01 677.1 3114.52 677.1 3114.52 755.144 2962.01 755.144Z" fill="#FFFFFF" fill-rule="evenodd"/><path d="M3114.52 677.1 3267.03 677.1 3267.03 755.144 3114.52 755.144Z" fill="#FFFFFF" fill-rule="evenodd"/><path d="M3267.03 677.1 3419.54 677.1 3419.54 755.144 3267.03 755.144Z" fill="#FFFFFF" fill-rule="evenodd"/><path d="M3419.54 677.1 3572.05 677.1 3572.05 755.144 3419.54 755.144Z" fill="#FFFFFF" fill-rule="evenodd"/><path d="M3572.05 677.1 3724.56 677.1 3724.56 755.144 3572.05 755.144Z" fill="#FFFFFF" fill-rule="evenodd"/><path d="M3724.56 677.1 3877.07 677.1 3877.07 755.144 3724.56 755.144Z" fill="#FFFFFF" fill-rule="evenodd"/><path d="M3877.07 677.1 4029.58 677.1 4029.58 755.144 3877.07 755.144Z" fill="#FFFFFF" fill-rule="evenodd"/><path d="M4029.58 677.1 4182.09 677.1 4182.09 755.144 4029.58 755.144Z" fill="#FFFFFF" fill-rule="evenodd"/><path d="M217.912 755.144 618.75 755.144 618.75 833.188 217.912 833.188Z" fill="#FFFFFF" fill-rule="evenodd"/><path d="M618.75 755.144 1014.75 755.144 1014.75 833.188 618.75 833.188Z" fill="#FFFFFF" fill-rule="evenodd"/><path d="M1014.75 755.144 1510.67 755.144 1510.67 833.188 1014.75 833.188Z" fill="#FFFFFF" fill-rule="evenodd"/><path d="M1510.67 755.144 1705 755.144 1705 833.188 1510.67 833.188Z" fill="#FFFFFF" fill-rule="evenodd"/><path d="M1705 755.144 1894.44 755.144 1894.44 833.188 1705 833.188Z" fill="#FFFFFF" fill-rule="evenodd"/><path d="M1894.44 755.144 2046.95 755.144 2046.95 833.188 1894.44 833.188Z" fill="#FFFFFF" fill-rule="evenodd"/><path d="M2046.95 755.144 2199.46 755.144 2199.46 833.188 2046.95 833.188Z" fill="#FFFFFF" fill-rule="evenodd"/><path d="M2199.46 755.144 2351.97 755.144 2351.97 833.188 2199.46 833.188Z" fill="#FFFFFF" fill-rule="evenodd"/><path d="M2351.97 755.144 2504.48 755.144 2504.48 833.188 2351.97 833.188Z" fill="#FFFFFF" fill-rule="evenodd"/><path d="M2504.48 755.144 2656.99 755.144 2656.99 833.188 2504.48 833.188Z" fill="#FFFFFF" fill-rule="evenodd"/><path d="M2656.99 755.144 2809.5 755.144 2809.5 833.188 2656.99 833.188Z" fill="#FFFFFF" fill-rule="evenodd"/><path d="M2809.5 755.144 2962.01 755.144 2962.01 833.188 2809.5 833.188Z" fill="#FFFFFF" fill-rule="evenodd"/><path d="M2962.01 755.144 3114.52 755.144 3114.52 833.188 2962.01 833.188Z" fill="#FFFFFF" fill-rule="evenodd"/><path d="M3114.52 755.144 3267.03 755.144 3267.03 833.188 3114.52 833.188Z" fill="#FFFFFF" fill-rule="evenodd"/><path d="M3267.03 755.144 3419.54 755.144 3419.54 833.188 3267.03 833.188Z" fill="#FFFFFF" fill-rule="evenodd"/><path d="M3419.54 755.144 3572.05 755.144 3572.05 833.188 3419.54 833.188Z" fill="#FFFFFF" fill-rule="evenodd"/><path d="M3572.05 755.144 3724.56 755.144 3724.56 833.188 3572.05 833.188Z" fill="#FFFFFF" fill-rule="evenodd"/><path d="M3724.56 755.144 3877.07 755.144 3877.07 833.188 3724.56 833.188Z" fill="#FFFFFF" fill-rule="evenodd"/><path d="M3877.07 755.144 4029.58 755.144 4029.58 833.188 3877.07 833.188Z" fill="#FFFFFF" fill-rule="evenodd"/><path d="M4029.58 755.144 4182.09 755.144 4182.09 833.188 4029.58 833.188Z" fill="#FFFFFF" fill-rule="evenodd"/><path d="M217.912 833.188 618.75 833.188 618.75 911.231 217.912 911.231Z" fill="#FFFFFF" fill-rule="evenodd"/><path d="M618.75 833.188 1014.75 833.188 1014.75 911.231 618.75 911.231Z" fill="#FFFFFF" fill-rule="evenodd"/><path d="M1014.75 833.188 1510.67 833.188 1510.67 911.231 1014.75 911.231Z" fill="#FFFFFF" fill-rule="evenodd"/><path d="M1510.67 833.188 1705 833.188 1705 911.231 1510.67 911.231Z" fill="#FFFFFF" fill-rule="evenodd"/><path d="M1705 833.188 1894.44 833.188 1894.44 911.231 1705 911.231Z" fill="#FFFFFF" fill-rule="evenodd"/><path d="M1894.44 833.188 2046.95 833.188 2046.95 911.231 1894.44 911.231Z" fill="#FFFFFF" fill-rule="evenodd"/><path d="M2046.95 833.188 2199.46 833.188 2199.46 911.231 2046.95 911.231Z" fill="#FFFFFF" fill-rule="evenodd"/><path d="M2199.46 833.188 2351.97 833.188 2351.97 911.231 2199.46 911.231Z" fill="#FFFFFF" fill-rule="evenodd"/><path d="M2351.97 833.188 2504.48 833.188 2504.48 911.231 2351.97 911.231Z" fill="#FFFFFF" fill-rule="evenodd"/><path d="M2504.48 833.188 2656.99 833.188 2656.99 911.231 2504.48 911.231Z" fill="#FFFFFF" fill-rule="evenodd"/><path d="M2656.99 833.188 2809.5 833.188 2809.5 911.231 2656.99 911.231Z" fill="#FFFFFF" fill-rule="evenodd"/><path d="M2809.5 833.188 2962.01 833.188 2962.01 911.231 2809.5 911.231Z" fill="#FFFFFF" fill-rule="evenodd"/><path d="M2962.01 833.188 3114.52 833.188 3114.52 911.231 2962.01 911.231Z" fill="#FFFFFF" fill-rule="evenodd"/><path d="M3114.52 833.188 3267.03 833.188 3267.03 911.231 3114.52 911.231Z" fill="#FFFFFF" fill-rule="evenodd"/><path d="M3267.03 833.188 3419.54 833.188 3419.54 911.231 3267.03 911.231Z" fill="#FFFFFF" fill-rule="evenodd"/><path d="M3419.54 833.188 3572.05 833.188 3572.05 911.231 3419.54 911.231Z" fill="#FFFFFF" fill-rule="evenodd"/><path d="M3572.05 833.188 3724.56 833.188 3724.56 911.231 3572.05 911.231Z" fill="#FFFFFF" fill-rule="evenodd"/><path d="M3724.56 833.188 3877.07 833.188 3877.07 911.231 3724.56 911.231Z" fill="#FFFFFF" fill-rule="evenodd"/><path d="M3877.07 833.188 4029.58 833.188 4029.58 911.231 3877.07 911.231Z" fill="#FFFFFF" fill-rule="evenodd"/><path d="M4029.58 833.188 4182.09 833.188 4182.09 911.231 4029.58 911.231Z" fill="#FFFFFF" fill-rule="evenodd"/><path d="M217.912 911.231 618.75 911.231 618.75 989.275 217.912 989.275Z" fill="#FFFFFF" fill-rule="evenodd"/><path d="M618.75 911.231 1014.75 911.231 1014.75 989.275 618.75 989.275Z" fill="#FFFFFF" fill-rule="evenodd"/><path d="M1014.75 911.231 1510.67 911.231 1510.67 989.275 1014.75 989.275Z" fill="#FFFFFF" fill-rule="evenodd"/><path d="M1510.67 911.231 1705 911.231 1705 989.275 1510.67 989.275Z" fill="#FFFFFF" fill-rule="evenodd"/><path d="M1705 911.231 1894.44 911.231 1894.44 989.275 1705 989.275Z" fill="#FFFFFF" fill-rule="evenodd"/><path d="M1894.44 911.231 2046.95 911.231 2046.95 989.275 1894.44 989.275Z" fill="#FFFFFF" fill-rule="evenodd"/><path d="M2046.95 911.231 2199.46 911.231 2199.46 989.275 2046.95 989.275Z" fill="#FFFFFF" fill-rule="evenodd"/><path d="M2199.46 911.231 2351.97 911.231 2351.97 989.275 2199.46 989.275Z" fill="#FFFFFF" fill-rule="evenodd"/><path d="M2351.97 911.231 2504.48 911.231 2504.48 989.275 2351.97 989.275Z" fill="#FFFFFF" fill-rule="evenodd"/><path d="M2504.48 911.231 2656.99 911.231 2656.99 989.275 2504.48 989.275Z" fill="#FFFFFF" fill-rule="evenodd"/><path d="M2656.99 911.231 2809.5 911.231 2809.5 989.275 2656.99 989.275Z" fill="#FFFFFF" fill-rule="evenodd"/><path d="M2809.5 911.231 2962.01 911.231 2962.01 989.275 2809.5 989.275Z" fill="#FFFFFF" fill-rule="evenodd"/><path d="M2962.01 911.231 3114.52 911.231 3114.52 989.275 2962.01 989.275Z" fill="#FFFFFF" fill-rule="evenodd"/><path d="M3114.52 911.231 3267.03 911.231 3267.03 989.275 3114.52 989.275Z" fill="#FFFFFF" fill-rule="evenodd"/><path d="M3267.03 911.231 3419.54 911.231 3419.54 989.275 3267.03 989.275Z" fill="#FFFFFF" fill-rule="evenodd"/><path d="M3419.54 911.231 3572.05 911.231 3572.05 989.275 3419.54 989.275Z" fill="#FFFFFF" fill-rule="evenodd"/><path d="M3572.05 911.231 3724.56 911.231 3724.56 989.275 3572.05 989.275Z" fill="#FFFFFF" fill-rule="evenodd"/><path d="M3724.56 911.231 3877.07 911.231 3877.07 989.275 3724.56 989.275Z" fill="#FFFFFF" fill-rule="evenodd"/><path d="M3877.07 911.231 4029.58 911.231 4029.58 989.275 3877.07 989.275Z" fill="#FFFFFF" fill-rule="evenodd"/><path d="M4029.58 911.231 4182.09 911.231 4182.09 989.275 4029.58 989.275Z" fill="#FFFFFF" fill-rule="evenodd"/><path d="M217.912 989.275 618.75 989.275 618.75 1067.32 217.912 1067.32Z" fill="#FFFFFF" fill-rule="evenodd"/><path d="M618.75 989.275 1014.75 989.275 1014.75 1067.32 618.75 1067.32Z" fill="#FFFFFF" fill-rule="evenodd"/><path d="M1014.75 989.275 1510.67 989.275 1510.67 1067.32 1014.75 1067.32Z" fill="#FFFFFF" fill-rule="evenodd"/><path d="M1510.67 989.275 1705 989.275 1705 1067.32 1510.67 1067.32Z" fill="#FFFFFF" fill-rule="evenodd"/><path d="M1705 989.275 1894.44 989.275 1894.44 1067.32 1705 1067.32Z" fill="#FFFFFF" fill-rule="evenodd"/><path d="M1894.44 989.275 2046.95 989.275 2046.95 1067.32 1894.44 1067.32Z" fill="#FFFFFF" fill-rule="evenodd"/><path d="M2046.95 989.275 2199.46 989.275 2199.46 1067.32 2046.95 1067.32Z" fill="#FFFFFF" fill-rule="evenodd"/><path d="M2199.46 989.275 2351.97 989.275 2351.97 1067.32 2199.46 1067.32Z" fill="#FFFFFF" fill-rule="evenodd"/><path d="M2351.97 989.275 2504.48 989.275 2504.48 1067.32 2351.97 1067.32Z" fill="#FFFFFF" fill-rule="evenodd"/><path d="M2504.48 989.275 2656.99 989.275 2656.99 1067.32 2504.48 1067.32Z" fill="#FFFFFF" fill-rule="evenodd"/><path d="M2656.99 989.275 2809.5 989.275 2809.5 1067.32 2656.99 1067.32Z" fill="#FFFFFF" fill-rule="evenodd"/><path d="M2809.5 989.275 2962.01 989.275 2962.01 1067.32 2809.5 1067.32Z" fill="#FFFFFF" fill-rule="evenodd"/><path d="M2962.01 989.275 3114.52 989.275 3114.52 1067.32 2962.01 1067.32Z" fill="#FFFFFF" fill-rule="evenodd"/><path d="M3114.52 989.275 3267.03 989.275 3267.03 1067.32 3114.52 1067.32Z" fill="#FFFFFF" fill-rule="evenodd"/><path d="M3267.03 989.275 3419.54 989.275 3419.54 1067.32 3267.03 1067.32Z" fill="#FFFFFF" fill-rule="evenodd"/><path d="M3419.54 989.275 3572.05 989.275 3572.05 1067.32 3419.54 1067.32Z" fill="#FFFFFF" fill-rule="evenodd"/><path d="M3572.05 989.275 3724.56 989.275 3724.56 1067.32 3572.05 1067.32Z" fill="#FFFFFF" fill-rule="evenodd"/><path d="M3724.56 989.275 3877.07 989.275 3877.07 1067.32 3724.56 1067.32Z" fill="#FFFFFF" fill-rule="evenodd"/><path d="M3877.07 989.275 4029.58 989.275 4029.58 1067.32 3877.07 1067.32Z" fill="#FFFFFF" fill-rule="evenodd"/><path d="M4029.58 989.275 4182.09 989.275 4182.09 1067.32 4029.58 1067.32Z" fill="#FFFFFF" fill-rule="evenodd"/><path d="M618.75 483.354 618.75 1069.04" stroke="#376C8A" stroke-width="3.4375" stroke-linejoin="round" stroke-miterlimit="10" fill="none" fill-rule="evenodd"/><path d="M1014.75 483.354 1014.75 1069.04" stroke="#376C8A" stroke-width="3.4375" stroke-linejoin="round" stroke-miterlimit="10" fill="none" fill-rule="evenodd"/><path d="M1510.67 483.354 1510.67 1069.04" stroke="#376C8A" stroke-width="3.4375" stroke-linejoin="round" stroke-miterlimit="10" fill="none" fill-rule="evenodd"/><path d="M1705 483.354 1705 1069.04" stroke="#376C8A" stroke-width="3.4375" stroke-linejoin="round" stroke-miterlimit="10" fill="none" fill-rule="evenodd"/><path d="M1894.44 483.354 1894.44 1069.04" stroke="#376C8A" stroke-width="3.4375" stroke-linejoin="round" stroke-miterlimit="10" fill="none" fill-rule="evenodd"/><path d="M2046.95 483.354 2046.95 1069.04" stroke="#376C8A" stroke-width="3.4375" stroke-linejoin="round" stroke-miterlimit="10" fill="none" fill-rule="evenodd"/><path d="M2199.46 483.354 2199.46 1069.04" stroke="#376C8A" stroke-width="3.4375" stroke-linejoin="round" stroke-miterlimit="10" fill="none" fill-rule="evenodd"/><path d="M2351.97 483.354 2351.97 1069.04" stroke="#376C8A" stroke-width="3.4375" stroke-linejoin="round" stroke-miterlimit="10" fill="none" fill-rule="evenodd"/><path d="M2504.48 483.354 2504.48 1069.04" stroke="#376C8A" stroke-width="3.4375" stroke-linejoin="round" stroke-miterlimit="10" fill="none" fill-rule="evenodd"/><path d="M2656.99 483.354 2656.99 1069.04" stroke="#376C8A" stroke-width="3.4375" stroke-linejoin="round" stroke-miterlimit="10" fill="none" fill-rule="evenodd"/><path d="M2809.5 483.354 2809.5 1069.04" stroke="#376C8A" stroke-width="3.4375" stroke-linejoin="round" stroke-miterlimit="10" fill="none" fill-rule="evenodd"/><path d="M2962.01 483.354 2962.01 1069.04" stroke="#376C8A" stroke-width="3.4375" stroke-linejoin="round" stroke-miterlimit="10" fill="none" fill-rule="evenodd"/><path d="M3114.52 483.354 3114.52 1069.04" stroke="#376C8A" stroke-width="3.4375" stroke-linejoin="round" stroke-miterlimit="10" fill="none" fill-rule="evenodd"/><path d="M3267.03 483.354 3267.03 1069.04" stroke="#376C8A" stroke-width="3.4375" stroke-linejoin="round" stroke-miterlimit="10" fill="none" fill-rule="evenodd"/><path d="M3419.54 483.354 3419.54 1069.04" stroke="#376C8A" stroke-width="3.4375" stroke-linejoin="round" stroke-miterlimit="10" fill="none" fill-rule="evenodd"/><path d="M3572.05 483.354 3572.05 1069.04" stroke="#376C8A" stroke-width="3.4375" stroke-linejoin="round" stroke-miterlimit="10" fill="none" fill-rule="evenodd"/><path d="M3724.56 483.354 3724.56 1069.04" stroke="#376C8A" stroke-width="3.4375" stroke-linejoin="round" stroke-miterlimit="10" fill="none" fill-rule="evenodd"/><path d="M3877.07 483.354 3877.07 1069.04" stroke="#376C8A" stroke-width="3.4375" stroke-linejoin="round" stroke-miterlimit="10" fill="none" fill-rule="evenodd"/><path d="M4029.58 483.354 4029.58 1069.04" stroke="#376C8A" stroke-width="3.4375" stroke-linejoin="round" stroke-miterlimit="10" fill="none" fill-rule="evenodd"/><path d="M216.193 485.072 4183.81 485.072" stroke="#376C8A" stroke-width="3.4375" stroke-linejoin="round" stroke-miterlimit="10" fill="none" fill-rule="evenodd"/><path d="M216.193 599.056 4183.81 599.056" stroke="#376C8A" stroke-width="3.4375" stroke-linejoin="round" stroke-miterlimit="10" fill="none" fill-rule="evenodd"/><path d="M216.193 677.1 4183.81 677.1" stroke="#376C8A" stroke-width="3.4375" stroke-linejoin="round" stroke-miterlimit="10" fill="none" fill-rule="evenodd"/><path d="M216.193 755.144 4183.81 755.144" stroke="#376C8A" stroke-width="3.4375" stroke-linejoin="round" stroke-miterlimit="10" fill="none" fill-rule="evenodd"/><path d="M216.193 833.188 4183.81 833.188" stroke="#376C8A" stroke-width="3.4375" stroke-linejoin="round" stroke-miterlimit="10" fill="none" fill-rule="evenodd"/><path d="M216.193 911.231 4183.81 911.231" stroke="#376C8A" stroke-width="3.4375" stroke-linejoin="round" stroke-miterlimit="10" fill="none" fill-rule="evenodd"/><path d="M216.193 989.275 4183.81 989.275" stroke="#376C8A" stroke-width="3.4375" stroke-linejoin="round" stroke-miterlimit="10" fill="none" fill-rule="evenodd"/><path d="M217.912 418.869 217.912 1069.04" stroke="#376C8A" stroke-width="3.4375" stroke-linejoin="round" stroke-miterlimit="10" fill="none" fill-rule="evenodd"/><path d="M4182.09 418.869 4182.09 1069.04" stroke="#376C8A" stroke-width="3.4375" stroke-linejoin="round" stroke-miterlimit="10" fill="none" fill-rule="evenodd"/><path d="M216.193 420.588 4183.81 420.588" stroke="#376C8A" stroke-width="3.4375" stroke-linejoin="round" stroke-miterlimit="10" fill="none" fill-rule="evenodd"/><path d="M216.193 1067.32 4183.81 1067.32" stroke="#376C8A" stroke-width="3.4375" stroke-linejoin="round" stroke-miterlimit="10" fill="none" fill-rule="evenodd"/><text fill="#FFFFFF" font-family="Barlow,Barlow_MSFontService,sans-serif" font-weight="700" font-size="32" transform="matrix(1 0 0 1 2039.87 466)">Calendar Year Returns</text><text fill="#376C8A" font-family="Barlow,Barlow_MSFontService,sans-serif" font-weight="700" font-size="32" transform="matrix(1 0 0 1 4070.6 555)">2007</text><text fill="#376C8A" font-family="Barlow,Barlow_MSFontService,sans-serif" font-weight="700" font-size="32" transform="matrix(1 0 0 1 3917.52 555)">2008</text><text fill="#376C8A" font-family="Barlow,Barlow_MSFontService,sans-serif" font-weight="700" font-size="32" transform="matrix(1 0 0 1 3765.01 555)">2009</text><text fill="#376C8A" font-family="Barlow,Barlow_MSFontService,sans-serif" font-weight="700" font-size="32" transform="matrix(1 0 0 1 3615.36 555)">2010</text><text fill="#376C8A" font-family="Barlow,Barlow_MSFontService,sans-serif" font-weight="700" font-size="32" transform="matrix(1 0 0 1 3466.29 555)">2011</text><text fill="#376C8A" font-family="Barlow,Barlow_MSFontService,sans-serif" font-weight="700" font-size="32" transform="matrix(1 0 0 1 3310.63 555)">2012</text><text fill="#376C8A" font-family="Barlow,Barlow_MSFontService,sans-serif" font-weight="700" font-size="32" transform="matrix(1 0 0 1 3158.41 555)">2013</text><text fill="#376C8A" font-family="Barlow,Barlow_MSFontService,sans-serif" font-weight="700" font-size="32" transform="matrix(1 0 0 1 3004.75 555)">2014</text><text fill="#376C8A" font-family="Barlow,Barlow_MSFontService,sans-serif" font-weight="700" font-size="32" transform="matrix(1 0 0 1 2853.39 555)">2015</text><text fill="#376C8A" font-family="Barlow,Barlow_MSFontService,sans-serif" font-weight="700" font-size="32" transform="matrix(1 0 0 1 2700.88 555)">2016</text><text fill="#376C8A" font-family="Barlow,Barlow_MSFontService,sans-serif" font-weight="700" font-size="32" transform="matrix(1 0 0 1 2548.94 555)">2017</text><text fill="#376C8A" font-family="Barlow,Barlow_MSFontService,sans-serif" font-weight="700" font-size="32" transform="matrix(1 0 0 1 2395.86 555)">2018</text><text fill="#376C8A" font-family="Barlow,Barlow_MSFontService,sans-serif" font-weight="700" font-size="32" transform="matrix(1 0 0 1 2243.35 555)">2019</text><text fill="#376C8A" font-family="Barlow,Barlow_MSFontService,sans-serif" font-weight="700" font-size="32" transform="matrix(1 0 0 1 2087.11 555)">2020</text><text fill="#376C8A" font-family="Barlow,Barlow_MSFontService,sans-serif" font-weight="700" font-size="32" transform="matrix(1 0 0 1 1938.04 555)">2021</text><text fill="#376C8A" font-family="Barlow,Barlow_MSFontService,sans-serif" font-weight="700" font-size="32" transform="matrix(1 0 0 1 1763.91 555)">2022</text><text fill="#376C8A" font-family="Barlow,Barlow_MSFontService,sans-serif" font-weight="700" font-size="32" transform="matrix(1 0 0 1 1547.39 536)">Average </text><text fill="#376C8A" font-family="Barlow,Barlow_MSFontService,sans-serif" font-weight="700" font-size="32" transform="matrix(1 0 0 1 1559.42 575)">Return</text><text fill="#376C8A" font-family="Barlow,Barlow_MSFontService,sans-serif" font-weight="700" font-size="32" transform="matrix(1 0 0 1 1057.03 536)">Used in your plan Investment </text><text fill="#376C8A" font-family="Barlow,Barlow_MSFontService,sans-serif" font-weight="700" font-size="32" transform="matrix(1 0 0 1 1110.04 575)">Return Time Horizons</text><text fill="#376C8A" font-family="Barlow,Barlow_MSFontService,sans-serif" font-weight="700" font-size="32" transform="matrix(1 0 0 1 712.479 555)">Equity / Bonds</text><text fill="#376C8A" font-family="Barlow,Barlow_MSFontService,sans-serif" font-weight="700" font-size="32" transform="matrix(1 0 0 1 300.596 555)">Asset Allocation</text><text font-family="Barlow,Barlow_MSFontService,sans-serif" font-weight="400" font-size="32" transform="matrix(1 0 0 1 4064.87 651)">12.2%</text><text font-family="Barlow,Barlow_MSFontService,sans-serif" font-weight="400" font-size="32" transform="matrix(1 0 0 1 3906.06 651)">-</text><text font-family="Barlow,Barlow_MSFontService,sans-serif" font-weight="400" font-size="32" transform="matrix(1 0 0 1 3918.66 651)">41.9%</text><text font-family="Barlow,Barlow_MSFontService,sans-serif" font-weight="400" font-size="32" transform="matrix(1 0 0 1 3757.27 651)">35.4%</text><text font-family="Barlow,Barlow_MSFontService,sans-serif" font-weight="400" font-size="32" transform="matrix(1 0 0 1 3607.63 651)">13.2%</text><text font-family="Barlow,Barlow_MSFontService,sans-serif" font-weight="400" font-size="32" transform="matrix(1 0 0 1 3454.83 651)">-</text><text font-family="Barlow,Barlow_MSFontService,sans-serif" font-weight="400" font-size="32" transform="matrix(1 0 0 1 3467.43 651)">6.9%</text><text font-family="Barlow,Barlow_MSFontService,sans-serif" font-weight="400" font-size="32" transform="matrix(1 0 0 1 3302.89 651)">16.8%</text><text font-family="Barlow,Barlow_MSFontService,sans-serif" font-weight="400" font-size="32" transform="matrix(1 0 0 1 3147.52 651)">23.5%</text><text font-family="Barlow,Barlow_MSFontService,sans-serif" font-weight="400" font-size="32" transform="matrix(1 0 0 1 3003.89 651)">4.7%</text><text font-family="Barlow,Barlow_MSFontService,sans-serif" font-weight="400" font-size="32" transform="matrix(1 0 0 1 2847.37 651)">-</text><text font-family="Barlow,Barlow_MSFontService,sans-serif" font-weight="400" font-size="32" transform="matrix(1 0 0 1 2859.98 651)">1.8%</text><text font-family="Barlow,Barlow_MSFontService,sans-serif" font-weight="400" font-size="32" transform="matrix(1 0 0 1 2698.59 651)">8.5%</text><text font-family="Barlow,Barlow_MSFontService,sans-serif" font-weight="400" font-size="32" transform="matrix(1 0 0 1 2536.91 651)">24.6%</text><text font-family="Barlow,Barlow_MSFontService,sans-serif" font-weight="400" font-size="32" transform="matrix(1 0 0 1 2387.26 651)">-</text><text font-family="Barlow,Barlow_MSFontService,sans-serif" font-weight="400" font-size="32" transform="matrix(1 0 0 1 2399.87 651)">8.9%</text><text font-family="Barlow,Barlow_MSFontService,sans-serif" font-weight="400" font-size="32" transform="matrix(1 0 0 1 2233.32 651)">27.3%</text><text font-family="Barlow,Barlow_MSFontService,sans-serif" font-weight="400" font-size="32" transform="matrix(1 0 0 1 2082.82 651)">16.8%</text><text font-family="Barlow,Barlow_MSFontService,sans-serif" font-weight="400" font-size="32" transform="matrix(1 0 0 1 1929.45 651)">1</text><text font-family="Barlow,Barlow_MSFontService,sans-serif" font-weight="400" font-size="32" transform="matrix(1 0 0 1 1940.91 651)">9</text><text font-family="Barlow,Barlow_MSFontService,sans-serif" font-weight="400" font-size="32" transform="matrix(1 0 0 1 1957.52 651)">.0</text><text font-family="Barlow,Barlow_MSFontService,sans-serif" font-weight="400" font-size="32" transform="matrix(1 0 0 1 1985.02 651)">%</text><text font-family="Barlow,Barlow_MSFontService,sans-serif" font-weight="400" font-size="32" transform="matrix(1 0 0 1 1749.31 651)">-</text><text font-family="Barlow,Barlow_MSFontService,sans-serif" font-weight="400" font-size="32" transform="matrix(1 0 0 1 1761.91 651)">20.8%</text><text font-family="Barlow,Barlow_MSFontService,sans-serif" font-weight="400" font-size="32" transform="matrix(1 0 0 1 1574.03 651)">7.6%</text><g><text font-family="Barlow,Barlow_MSFontService,sans-serif" font-weight="400" font-size="32" transform="matrix(1 0 0 1 638.238 651)">100% Equity / 0% Bonds</text></g><g><text font-family="Barlow,Barlow_MSFontService,sans-serif" font-weight="400" font-size="32" transform="matrix(1 0 0 1 237.4 651)">Very Aggressive</text></g><text font-family="Barlow,Barlow_MSFontService,sans-serif" font-weight="400" font-size="32" transform="matrix(1 0 0 1 4068.02 729)">11.9%</text><text font-family="Barlow,Barlow_MSFontService,sans-serif" font-weight="400" font-size="32" transform="matrix(1 0 0 1 3906.63 729)">-</text><text font-family="Barlow,Barlow_MSFontService,sans-serif" font-weight="400" font-size="32" transform="matrix(1 0 0 1 3919.23 729)">36.1%</text><text font-family="Barlow,Barlow_MSFontService,sans-serif" font-weight="400" font-size="32" transform="matrix(1 0 0 1 3759.56 729)">31.0%</text><text font-family="Barlow,Barlow_MSFontService,sans-serif" font-weight="400" font-size="32" transform="matrix(1 0 0 1 3607.34 729)">12.2%</text><text font-family="Barlow,Barlow_MSFontService,sans-serif" font-weight="400" font-size="32" transform="matrix(1 0 0 1 3453.97 729)">-</text><text font-family="Barlow,Barlow_MSFontService,sans-serif" font-weight="400" font-size="32" transform="matrix(1 0 0 1 3466.58 729)">5.0%</text><text font-family="Barlow,Barlow_MSFontService,sans-serif" font-weight="400" font-size="32" transform="matrix(1 0 0 1 3302.32 729)">14.9%</text><text font-family="Barlow,Barlow_MSFontService,sans-serif" font-weight="400" font-size="32" transform="matrix(1 0 0 1 3150.1 729)">19.2%</text><text font-family="Barlow,Barlow_MSFontService,sans-serif" font-weight="400" font-size="32" transform="matrix(1 0 0 1 3005.61 729)">4.1%</text><text font-family="Barlow,Barlow_MSFontService,sans-serif" font-weight="400" font-size="32" transform="matrix(1 0 0 1 2847.37 729)">-</text><text font-family="Barlow,Barlow_MSFontService,sans-serif" font-weight="400" font-size="32" transform="matrix(1 0 0 1 2859.98 729)">1.9%</text><text font-family="Barlow,Barlow_MSFontService,sans-serif" font-weight="400" font-size="32" transform="matrix(1 0 0 1 2699.44 729)">7.6%</text><text font-family="Barlow,Barlow_MSFontService,sans-serif" font-weight="400" font-size="32" transform="matrix(1 0 0 1 2540.06 729)">21.9%</text><text font-family="Barlow,Barlow_MSFontService,sans-serif" font-weight="400" font-size="32" transform="matrix(1 0 0 1 2388.98 729)">-</text><text font-family="Barlow,Barlow_MSFontService,sans-serif" font-weight="400" font-size="32" transform="matrix(1 0 0 1 2401.59 729)">7.7%</text><text font-family="Barlow,Barlow_MSFontService,sans-serif" font-weight="400" font-size="32" transform="matrix(1 0 0 1 2234.47 729)">24.1%</text><text font-family="Barlow,Barlow_MSFontService,sans-serif" font-weight="400" font-size="32" transform="matrix(1 0 0 1 2081.96 729)">16.0%</text><text font-family="Barlow,Barlow_MSFontService,sans-serif" font-weight="400" font-size="32" transform="matrix(1 0 0 1 1930.02 729)">15.2%</text><text font-family="Barlow,Barlow_MSFontService,sans-serif" font-weight="400" font-size="32" transform="matrix(1 0 0 1 1750.16 729)">-</text><text font-family="Barlow,Barlow_MSFontService,sans-serif" font-weight="400" font-size="32" transform="matrix(1 0 0 1 1762.77 729)">20.7%</text><text font-family="Barlow,Barlow_MSFontService,sans-serif" font-weight="400" font-size="32" transform="matrix(1 0 0 1 1574.03 729)">6.7%</text><text font-family="Barlow,Barlow_MSFontService,sans-serif" font-weight="400" font-size="32" transform="matrix(1 0 0 1 1062.47 729)">Long Term and Discretionary</text><g><text font-family="Barlow,Barlow_MSFontService,sans-serif" font-weight="400" font-size="32" transform="matrix(1 0 0 1 638.238 729)">85% Equity / 15% Bonds</text></g><g><text font-family="Barlow,Barlow_MSFontService,sans-serif" font-weight="400" font-size="32" transform="matrix(1 0 0 1 237.4 729)">Aggressive</text></g><text font-family="Barlow,Barlow_MSFontService,sans-serif" font-weight="400" font-size="32" transform="matrix(1 0 0 1 4068.02 807)">11.6%</text><text font-family="Barlow,Barlow_MSFontService,sans-serif" font-weight="400" font-size="32" transform="matrix(1 0 0 1 3906.34 807)">-</text><text font-family="Barlow,Barlow_MSFontService,sans-serif" font-weight="400" font-size="32" transform="matrix(1 0 0 1 3918.95 807)">32.1%</text><text font-family="Barlow,Barlow_MSFontService,sans-serif" font-weight="400" font-size="32" transform="matrix(1 0 0 1 3760.14 807)">28.1%</text><text font-family="Barlow,Barlow_MSFontService,sans-serif" font-weight="400" font-size="32" transform="matrix(1 0 0 1 3610.49 807)">11.6%</text><text font-family="Barlow,Barlow_MSFontService,sans-serif" font-weight="400" font-size="32" transform="matrix(1 0 0 1 3455.69 807)">-</text><text font-family="Barlow,Barlow_MSFontService,sans-serif" font-weight="400" font-size="32" transform="matrix(1 0 0 1 3468.29 807)">3.7%</text><text font-family="Barlow,Barlow_MSFontService,sans-serif" font-weight="400" font-size="32" transform="matrix(1 0 0 1 3303.75 807)">13.7%</text><text font-family="Barlow,Barlow_MSFontService,sans-serif" font-weight="400" font-size="32" transform="matrix(1 0 0 1 3150.38 807)">16.5%</text><text font-family="Barlow,Barlow_MSFontService,sans-serif" font-weight="400" font-size="32" transform="matrix(1 0 0 1 3004.46 807)">3.7%</text><text font-family="Barlow,Barlow_MSFontService,sans-serif" font-weight="400" font-size="32" transform="matrix(1 0 0 1 2843.65 807)">-</text><text font-family="Barlow,Barlow_MSFontService,sans-serif" font-weight="400" font-size="32" transform="matrix(1 0 0 1 2856.25 807)">2.0%</text><text font-family="Barlow,Barlow_MSFontService,sans-serif" font-weight="400" font-size="32" transform="matrix(1 0 0 1 2698.59 807)">7.0%</text><text font-family="Barlow,Barlow_MSFontService,sans-serif" font-weight="400" font-size="32" transform="matrix(1 0 0 1 2539.2 807)">20.1%</text><text font-family="Barlow,Barlow_MSFontService,sans-serif" font-weight="400" font-size="32" transform="matrix(1 0 0 1 2387.26 807)">-</text><text font-family="Barlow,Barlow_MSFontService,sans-serif" font-weight="400" font-size="32" transform="matrix(1 0 0 1 2399.87 807)">6.9%</text><text font-family="Barlow,Barlow_MSFontService,sans-serif" font-weight="400" font-size="32" transform="matrix(1 0 0 1 2234.75 807)">22.1%</text><text font-family="Barlow,Barlow_MSFontService,sans-serif" font-weight="400" font-size="32" transform="matrix(1 0 0 1 2082.25 807)">15.4%</text><text font-family="Barlow,Barlow_MSFontService,sans-serif" font-weight="400" font-size="32" transform="matrix(1 0 0 1 1930.88 807)">12.7%</text><text font-family="Barlow,Barlow_MSFontService,sans-serif" font-weight="400" font-size="32" transform="matrix(1 0 0 1 1749.31 807)">-</text><text font-family="Barlow,Barlow_MSFontService,sans-serif" font-weight="400" font-size="32" transform="matrix(1 0 0 1 1761.91 807)">20.6%</text><text font-family="Barlow,Barlow_MSFontService,sans-serif" font-weight="400" font-size="32" transform="matrix(1 0 0 1 1575.75 807)">6.1%</text><g><text font-family="Barlow,Barlow_MSFontService,sans-serif" font-weight="400" font-size="32" transform="matrix(1 0 0 1 638.238 807)">75% Equity / 25% Bonds</text></g><g><text font-family="Barlow,Barlow_MSFontService,sans-serif" font-weight="400" font-size="32" transform="matrix(1 0 0 1 237.4 807)">Moderately Aggressive</text></g><text font-family="Barlow,Barlow_MSFontService,sans-serif" font-weight="400" font-size="32" transform="matrix(1 0 0 1 4068.02 885)">11.3%</text><text font-family="Barlow,Barlow_MSFontService,sans-serif" font-weight="400" font-size="32" transform="matrix(1 0 0 1 3904.62 885)">-</text><text font-family="Barlow,Barlow_MSFontService,sans-serif" font-weight="400" font-size="32" transform="matrix(1 0 0 1 3917.23 885)">25.7%</text><text font-family="Barlow,Barlow_MSFontService,sans-serif" font-weight="400" font-size="32" transform="matrix(1 0 0 1 3757.56 885)">23.8%</text><text font-family="Barlow,Barlow_MSFontService,sans-serif" font-weight="400" font-size="32" transform="matrix(1 0 0 1 3607.05 885)">10.5%</text><text font-family="Barlow,Barlow_MSFontService,sans-serif" font-weight="400" font-size="32" transform="matrix(1 0 0 1 3457.41 885)">-</text><text font-family="Barlow,Barlow_MSFontService,sans-serif" font-weight="400" font-size="32" transform="matrix(1 0 0 1 3470.01 885)">1.8%</text><text font-family="Barlow,Barlow_MSFontService,sans-serif" font-weight="400" font-size="32" transform="matrix(1 0 0 1 3305.47 885)">11.8%</text><text font-family="Barlow,Barlow_MSFontService,sans-serif" font-weight="400" font-size="32" transform="matrix(1 0 0 1 3149.53 885)">12.4%</text><text font-family="Barlow,Barlow_MSFontService,sans-serif" font-weight="400" font-size="32" transform="matrix(1 0 0 1 3006.18 885)">3.1%</text><text font-family="Barlow,Barlow_MSFontService,sans-serif" font-weight="400" font-size="32" transform="matrix(1 0 0 1 2844.22 885)">-</text><text font-family="Barlow,Barlow_MSFontService,sans-serif" font-weight="400" font-size="32" transform="matrix(1 0 0 1 2856.82 885)">2.2%</text><text font-family="Barlow,Barlow_MSFontService,sans-serif" font-weight="400" font-size="32" transform="matrix(1 0 0 1 2701.16 885)">6.1%</text><text font-family="Barlow,Barlow_MSFontService,sans-serif" font-weight="400" font-size="32" transform="matrix(1 0 0 1 2541.21 885)">17.5%</text><text font-family="Barlow,Barlow_MSFontService,sans-serif" font-weight="400" font-size="32" transform="matrix(1 0 0 1 2388.12 885)">-</text><text font-family="Barlow,Barlow_MSFontService,sans-serif" font-weight="400" font-size="32" transform="matrix(1 0 0 1 2400.73 885)">5.7%</text><text font-family="Barlow,Barlow_MSFontService,sans-serif" font-weight="400" font-size="32" transform="matrix(1 0 0 1 2234.47 885)">19.0%</text><text font-family="Barlow,Barlow_MSFontService,sans-serif" font-weight="400" font-size="32" transform="matrix(1 0 0 1 2081.67 885)">14.4%</text><text font-family="Barlow,Barlow_MSFontService,sans-serif" font-weight="400" font-size="32" transform="matrix(1 0 0 1 1938.62 885)">9.1%</text><text font-family="Barlow,Barlow_MSFontService,sans-serif" font-weight="400" font-size="32" transform="matrix(1 0 0 1 1749.31 885)">-</text><text font-family="Barlow,Barlow_MSFontService,sans-serif" font-weight="400" font-size="32" transform="matrix(1 0 0 1 1761.91 885)">20.5%</text><text font-family="Barlow,Barlow_MSFontService,sans-serif" font-weight="400" font-size="32" transform="matrix(1 0 0 1 1572.89 885)">5.2%</text><text font-family="Barlow,Barlow_MSFontService,sans-serif" font-weight="400" font-size="32" transform="matrix(1 0 0 1 1168.18 885)">Medium Term</text><g><text font-family="Barlow,Barlow_MSFontService,sans-serif" font-weight="400" font-size="32" transform="matrix(1 0 0 1 638.238 885)">60% Equity / 40% Bonds</text></g><g><text font-family="Barlow,Barlow_MSFontService,sans-serif" font-weight="400" font-size="32" transform="matrix(1 0 0 1 237.4 885)">Moderate</text></g><text font-family="Barlow,Barlow_MSFontService,sans-serif" font-weight="400" font-size="32" transform="matrix(1 0 0 1 4064.58 963)">10.6%</text><text font-family="Barlow,Barlow_MSFontService,sans-serif" font-weight="400" font-size="32" transform="matrix(1 0 0 1 3906.63 963)">-</text><text font-family="Barlow,Barlow_MSFontService,sans-serif" font-weight="400" font-size="32" transform="matrix(1 0 0 1 3919.23 963)">13.9%</text><text font-family="Barlow,Barlow_MSFontService,sans-serif" font-weight="400" font-size="32" transform="matrix(1 0 0 1 3760.42 963)">16.6%</text><text font-family="Barlow,Barlow_MSFontService,sans-serif" font-weight="400" font-size="32" transform="matrix(1 0 0 1 3613.64 963)">8.5%</text><text font-family="Barlow,Barlow_MSFontService,sans-serif" font-weight="400" font-size="32" transform="matrix(1 0 0 1 3463.14 963)">1.4%</text><text font-family="Barlow,Barlow_MSFontService,sans-serif" font-weight="400" font-size="32" transform="matrix(1 0 0 1 3309.48 963)">8.7%</text><text font-family="Barlow,Barlow_MSFontService,sans-serif" font-weight="400" font-size="32" transform="matrix(1 0 0 1 3156.11 963)">5.9%</text><text font-family="Barlow,Barlow_MSFontService,sans-serif" font-weight="400" font-size="32" transform="matrix(1 0 0 1 3005.9 963)">2.1%</text><text font-family="Barlow,Barlow_MSFontService,sans-serif" font-weight="400" font-size="32" transform="matrix(1 0 0 1 2844.51 963)">-</text><text font-family="Barlow,Barlow_MSFontService,sans-serif" font-weight="400" font-size="32" transform="matrix(1 0 0 1 2857.11 963)">2.5%</text><text font-family="Barlow,Barlow_MSFontService,sans-serif" font-weight="400" font-size="32" transform="matrix(1 0 0 1 2698.01 963)">4.5%</text><text font-family="Barlow,Barlow_MSFontService,sans-serif" font-weight="400" font-size="32" transform="matrix(1 0 0 1 2540.06 963)">13.2%</text><text font-family="Barlow,Barlow_MSFontService,sans-serif" font-weight="400" font-size="32" transform="matrix(1 0 0 1 2387.26 963)">-</text><text font-family="Barlow,Barlow_MSFontService,sans-serif" font-weight="400" font-size="32" transform="matrix(1 0 0 1 2399.87 963)">3.8%</text><text font-family="Barlow,Barlow_MSFontService,sans-serif" font-weight="400" font-size="32" transform="matrix(1 0 0 1 2235.33 963)">13.8%</text><text font-family="Barlow,Barlow_MSFontService,sans-serif" font-weight="400" font-size="32" transform="matrix(1 0 0 1 2081.96 963)">12.4%</text><text font-family="Barlow,Barlow_MSFontService,sans-serif" font-weight="400" font-size="32" transform="matrix(1 0 0 1 1935.75 963)">3.2%</text><text font-family="Barlow,Barlow_MSFontService,sans-serif" font-weight="400" font-size="32" transform="matrix(1 0 0 1 1748.73 963)">-</text><text font-family="Barlow,Barlow_MSFontService,sans-serif" font-weight="400" font-size="32" transform="matrix(1 0 0 1 1761.34 963)">20.4%</text><text font-family="Barlow,Barlow_MSFontService,sans-serif" font-weight="400" font-size="32" transform="matrix(1 0 0 1 1573.17 963)">3.8%</text><g><text font-family="Barlow,Barlow_MSFontService,sans-serif" font-weight="400" font-size="32" transform="matrix(1 0 0 1 638.238 963)">35% Equity / 65% Bonds</text></g><g><text font-family="Barlow,Barlow_MSFontService,sans-serif" font-weight="400" font-size="32" transform="matrix(1 0 0 1 237.4 963)">Moderately Conservative</text></g><text font-family="Barlow,Barlow_MSFontService,sans-serif" font-weight="400" font-size="32" transform="matrix(1 0 0 1 4067.16 1041)">10.1%</text><text font-family="Barlow,Barlow_MSFontService,sans-serif" font-weight="400" font-size="32" transform="matrix(1 0 0 1 3912.36 1041)">-</text><text font-family="Barlow,Barlow_MSFontService,sans-serif" font-weight="400" font-size="32" transform="matrix(1 0 0 1 3924.96 1041)">6.3%</text><text font-family="Barlow,Barlow_MSFontService,sans-serif" font-weight="400" font-size="32" transform="matrix(1 0 0 1 3759.56 1041)">12.4%</text><text font-family="Barlow,Barlow_MSFontService,sans-serif" font-weight="400" font-size="32" transform="matrix(1 0 0 1 3614.5 1041)">7.3%</text><text font-family="Barlow,Barlow_MSFontService,sans-serif" font-weight="400" font-size="32" transform="matrix(1 0 0 1 3460.85 1041)">3.2%</text><text font-family="Barlow,Barlow_MSFontService,sans-serif" font-weight="400" font-size="32" transform="matrix(1 0 0 1 3308.62 1041)">6.8%</text><text font-family="Barlow,Barlow_MSFontService,sans-serif" font-weight="400" font-size="32" transform="matrix(1 0 0 1 3155.54 1041)">2.2%</text><text font-family="Barlow,Barlow_MSFontService,sans-serif" font-weight="400" font-size="32" transform="matrix(1 0 0 1 3005.61 1041)">1.4%</text><text font-family="Barlow,Barlow_MSFontService,sans-serif" font-weight="400" font-size="32" transform="matrix(1 0 0 1 2844.51 1041)">-</text><text font-family="Barlow,Barlow_MSFontService,sans-serif" font-weight="400" font-size="32" transform="matrix(1 0 0 1 2857.11 1041)">2.8%</text><text font-family="Barlow,Barlow_MSFontService,sans-serif" font-weight="400" font-size="32" transform="matrix(1 0 0 1 2698.59 1041)">3.5%</text><text font-family="Barlow,Barlow_MSFontService,sans-serif" font-weight="400" font-size="32" transform="matrix(1 0 0 1 2540.35 1041)">10.7%</text><text font-family="Barlow,Barlow_MSFontService,sans-serif" font-weight="400" font-size="32" transform="matrix(1 0 0 1 2387.84 1041)">-</text><text font-family="Barlow,Barlow_MSFontService,sans-serif" font-weight="400" font-size="32" transform="matrix(1 0 0 1 2400.44 1041)">2.7%</text><text font-family="Barlow,Barlow_MSFontService,sans-serif" font-weight="400" font-size="32" transform="matrix(1 0 0 1 2234.47 1041)">10.8%</text><text font-family="Barlow,Barlow_MSFontService,sans-serif" font-weight="400" font-size="32" transform="matrix(1 0 0 1 2087.97 1041)">11.1%</text><text font-family="Barlow,Barlow_MSFontService,sans-serif" font-weight="400" font-size="32" transform="matrix(1 0 0 1 1928.88 1041)">-</text><text font-family="Barlow,Barlow_MSFontService,sans-serif" font-weight="400" font-size="32" transform="matrix(1 0 0 1 1941.48 1041)">0.3%</text><text font-family="Barlow,Barlow_MSFontService,sans-serif" font-weight="400" font-size="32" transform="matrix(1 0 0 1 1748.73 1041)">-</text><text font-family="Barlow,Barlow_MSFontService,sans-serif" font-weight="400" font-size="32" transform="matrix(1 0 0 1 1761.34 1041)">20.4%</text><text font-family="Barlow,Barlow_MSFontService,sans-serif" font-weight="400" font-size="32" transform="matrix(1 0 0 1 1572.31 1041)">3.0%</text><text font-family="Barlow,Barlow_MSFontService,sans-serif" font-weight="400" font-size="32" transform="matrix(1 0 0 1 1184.51 1041)">Short Term</text><g><text font-family="Barlow,Barlow_MSFontService,sans-serif" font-weight="400" font-size="32" transform="matrix(1 0 0 1 638.238 1041)">20% Equity / 80% Bonds</text></g><g><text font-family="Barlow,Barlow_MSFontService,sans-serif" font-weight="400" font-size="32" transform="matrix(1 0 0 1 237.4 1041)">Conservative</text></g></g></svg>