<svg width="3970" height="596" xmlns="http://www.w3.org/2000/svg" xmlns:xlink="http://www.w3.org/1999/xlink" xml:space="preserve" overflow="hidden"><g transform="translate(-216 -1128)"><path d="M217.911 1130.48 616 1130.48 616 1206.77 217.911 1206.77Z" fill="#376C8A" fill-rule="evenodd"/><path d="M616 1130.48 1804.7 1130.48 1804.7 1206.77 616 1206.77Z" fill="#376C8A" fill-rule="evenodd"/><path d="M1804.7 1130.48 2993.39 1130.48 2993.39 1206.77 1804.7 1206.77Z" fill="#376C8A" fill-rule="evenodd"/><path d="M2993.39 1130.48 4182.09 1130.48 4182.09 1206.77 2993.39 1206.77Z" fill="#376C8A" fill-rule="evenodd"/><path d="M217.911 1206.77 616 1206.77 616 1292.25 217.911 1292.25Z" fill="#FFFFFF" fill-rule="evenodd"/><path d="M616 1206.77 1804.7 1206.77 1804.7 1292.25 616 1292.25Z" fill="#FFFFFF" fill-rule="evenodd"/><path d="M1804.7 1206.77 2993.39 1206.77 2993.39 1292.25 1804.7 1292.25Z" fill="#FFFFFF" fill-rule="evenodd"/><path d="M2993.39 1206.77 4182.09 1206.77 4182.09 1292.25 2993.39 1292.25Z" fill="#FFFFFF" fill-rule="evenodd"/><path d="M217.911 1292.25 616 1292.25 616 1377.73 217.911 1377.73Z" fill="#FFFFFF" fill-rule="evenodd"/><path d="M616 1292.25 1804.7 1292.25 1804.7 1377.73 616 1377.73Z" fill="#FFFFFF" fill-rule="evenodd"/><path d="M1804.7 1292.25 2993.39 1292.25 2993.39 1377.73 1804.7 1377.73Z" fill="#FFFFFF" fill-rule="evenodd"/><path d="M2993.39 1292.25 4182.09 1292.25 4182.09 1377.73 2993.39 1377.73Z" fill="#FFFFFF" fill-rule="evenodd"/><path d="M217.911 1377.73 616 1377.73 616 1463.21 217.911 1463.21Z" fill="#FFFFFF" fill-rule="evenodd"/><path d="M616 1377.73 1804.7 1377.73 1804.7 1463.21 616 1463.21Z" fill="#FFFFFF" fill-rule="evenodd"/><path d="M1804.7 1377.73 2993.39 1377.73 2993.39 1463.21 1804.7 1463.21Z" fill="#FFFFFF" fill-rule="evenodd"/><path d="M2993.39 1377.73 4182.09 1377.73 4182.09 1463.21 2993.39 1463.21Z" fill="#FFFFFF" fill-rule="evenodd"/><path d="M217.911 1463.21 616 1463.21 616 1548.68 217.911 1548.68Z" fill="#FFFFFF" fill-rule="evenodd"/><path d="M616 1463.21 1804.7 1463.21 1804.7 1548.68 616 1548.68Z" fill="#FFFFFF" fill-rule="evenodd"/><path d="M1804.7 1463.21 2993.39 1463.21 2993.39 1548.68 1804.7 1548.68Z" fill="#FFFFFF" fill-rule="evenodd"/><path d="M2993.39 1463.21 4182.09 1463.21 4182.09 1548.68 2993.39 1548.68Z" fill="#FFFFFF" fill-rule="evenodd"/><path d="M217.911 1548.68 616 1548.68 616 1634.16 217.911 1634.16Z" fill="#FFFFFF" fill-rule="evenodd"/><path d="M616 1548.68 1804.7 1548.68 1804.7 1634.16 616 1634.16Z" fill="#FFFFFF" fill-rule="evenodd"/><path d="M1804.7 1548.68 2993.39 1548.68 2993.39 1634.16 1804.7 1634.16Z" fill="#FFFFFF" fill-rule="evenodd"/><path d="M2993.39 1548.68 4182.09 1548.68 4182.09 1634.16 2993.39 1634.16Z" fill="#FFFFFF" fill-rule="evenodd"/><path d="M217.911 1634.16 616 1634.16 616 1719.64 217.911 1719.64Z" fill="#FFFFFF" fill-rule="evenodd"/><path d="M616 1634.16 1804.7 1634.16 1804.7 1719.64 616 1719.64Z" fill="#FFFFFF" fill-rule="evenodd"/><path d="M1804.7 1634.16 2993.39 1634.16 2993.39 1719.64 1804.7 1719.64Z" fill="#FFFFFF" fill-rule="evenodd"/><path d="M2993.39 1634.16 4182.09 1634.16 4182.09 1719.64 2993.39 1719.64Z" fill="#FFFFFF" fill-rule="evenodd"/><path d="M616 1128.76 616 1206.77" stroke="#FFFFFF" stroke-width="3.4375" stroke-linejoin="round" stroke-miterlimit="10" fill="none" fill-rule="evenodd"/><path d="M616 1206.77 616 1721.36" stroke="#376C8A" stroke-width="3.4375" stroke-linejoin="round" stroke-miterlimit="10" fill="none" fill-rule="evenodd"/><path d="M1804.7 1128.76 1804.7 1206.77" stroke="#FFFFFF" stroke-width="3.4375" stroke-linejoin="round" stroke-miterlimit="10" fill="none" fill-rule="evenodd"/><path d="M1804.7 1206.77 1804.7 1721.36" stroke="#376C8A" stroke-width="3.4375" stroke-linejoin="round" stroke-miterlimit="10" fill="none" fill-rule="evenodd"/><path d="M2993.39 1128.76 2993.39 1206.77" stroke="#FFFFFF" stroke-width="3.4375" stroke-linejoin="round" stroke-miterlimit="10" fill="none" fill-rule="evenodd"/><path d="M2993.39 1206.77 2993.39 1721.36" stroke="#376C8A" stroke-width="3.4375" stroke-linejoin="round" stroke-miterlimit="10" fill="none" fill-rule="evenodd"/><path d="M216.193 1206.77 4183.81 1206.77" stroke="#376C8A" stroke-width="3.4375" stroke-linejoin="round" stroke-miterlimit="10" fill="none" fill-rule="evenodd"/><path d="M216.193 1292.25 4183.81 1292.25" stroke="#376C8A" stroke-width="3.4375" stroke-linejoin="round" stroke-miterlimit="10" fill="none" fill-rule="evenodd"/><path d="M216.193 1377.73 4183.81 1377.73" stroke="#376C8A" stroke-width="3.4375" stroke-linejoin="round" stroke-miterlimit="10" fill="none" fill-rule="evenodd"/><path d="M216.193 1463.21 4183.81 1463.21" stroke="#376C8A" stroke-width="3.4375" stroke-linejoin="round" stroke-miterlimit="10" fill="none" fill-rule="evenodd"/><path d="M216.193 1548.68 4183.81 1548.68" stroke="#376C8A" stroke-width="3.4375" stroke-linejoin="round" stroke-miterlimit="10" fill="none" fill-rule="evenodd"/><path d="M216.193 1634.16 4183.81 1634.16" stroke="#376C8A" stroke-width="3.4375" stroke-linejoin="round" stroke-miterlimit="10" fill="none" fill-rule="evenodd"/><path d="M217.911 1128.76 217.911 1721.36" stroke="#376C8A" stroke-width="3.4375" stroke-linejoin="round" stroke-miterlimit="10" fill="none" fill-rule="evenodd"/><path d="M4182.09 1128.76 4182.09 1721.36" stroke="#376C8A" stroke-width="3.4375" stroke-linejoin="round" stroke-miterlimit="10" fill="none" fill-rule="evenodd"/><path d="M216.193 1130.48 4183.81 1130.48" stroke="#376C8A" stroke-width="3.4375" stroke-linejoin="round" stroke-miterlimit="10" fill="none" fill-rule="evenodd"/><path d="M216.193 1719.64 4183.81 1719.64" stroke="#376C8A" stroke-width="3.4375" stroke-linejoin="round" stroke-miterlimit="10" fill="none" fill-rule="evenodd"/><text fill="#FFFFFF" font-family="Barlow,Barlow_MSFontService,sans-serif" font-weight="700" font-size="32" transform="matrix(1 0 0 1 3229.09 1181)">Maximum drawdown recovery duration since 2002</text><text fill="#FFFFFF" font-family="Barlow,Barlow_MSFontService,sans-serif" font-weight="700" font-size="32" transform="matrix(1 0 0 1 2037.53 1181)">Used in your plan Investment Return Time Horizons</text><text fill="#FFFFFF" font-family="Barlow,Barlow_MSFontService,sans-serif" font-weight="700" font-size="32" transform="matrix(1 0 0 1 1106.08 1181)">Equity / Bonds</text><text fill="#FFFFFF" font-family="Barlow,Barlow_MSFontService,sans-serif" font-weight="700" font-size="32" transform="matrix(1 0 0 1 299.221 1181)">Asset Allocation</text><text font-family="Barlow,Barlow_MSFontService,sans-serif" font-weight="400" font-size="32" transform="matrix(1 0 0 1 3515.27 1262)">66 months</text><text font-family="Barlow,Barlow_MSFontService,sans-serif" font-weight="400" font-size="32" transform="matrix(1 0 0 1 1042.77 1262)">100% Equity / 0% Bonds</text><g><text font-family="Barlow,Barlow_MSFontService,sans-serif" font-weight="400" font-size="32" transform="matrix(1 0 0 1 237.399 1262)">Very Aggressive</text></g><text font-family="Barlow,Barlow_MSFontService,sans-serif" font-weight="400" font-size="32" transform="matrix(1 0 0 1 3515.27 1348)">63 months</text><text font-family="Barlow,Barlow_MSFontService,sans-serif" font-weight="400" font-size="32" transform="matrix(1 0 0 1 2198.81 1348)">Long Term and Discretionary</text><text font-family="Barlow,Barlow_MSFontService,sans-serif" font-weight="400" font-size="32" transform="matrix(1 0 0 1 1045.35 1348)">85% Equity / 15% Bonds</text><g><text font-family="Barlow,Barlow_MSFontService,sans-serif" font-weight="400" font-size="32" transform="matrix(1 0 0 1 237.399 1348)">Aggressive</text></g><text font-family="Barlow,Barlow_MSFontService,sans-serif" font-weight="400" font-size="32" transform="matrix(1 0 0 1 3514.41 1433)">42 months</text><text font-family="Barlow,Barlow_MSFontService,sans-serif" font-weight="400" font-size="32" transform="matrix(1 0 0 1 1043.34 1433)">75% Equity / 25% Bonds</text><g><text font-family="Barlow,Barlow_MSFontService,sans-serif" font-weight="400" font-size="32" transform="matrix(1 0 0 1 237.399 1433)">Moderately Aggressive</text></g><text font-family="Barlow,Barlow_MSFontService,sans-serif" font-weight="400" font-size="32" transform="matrix(1 0 0 1 3513.83 1519)">40 months</text><text font-family="Barlow,Barlow_MSFontService,sans-serif" font-weight="400" font-size="32" transform="matrix(1 0 0 1 2304.51 1519)">Medium Term</text><text font-family="Barlow,Barlow_MSFontService,sans-serif" font-weight="400" font-size="32" transform="matrix(1 0 0 1 1040.48 1519)">60% Equity / 40% Bonds</text><g><text font-family="Barlow,Barlow_MSFontService,sans-serif" font-weight="400" font-size="32" transform="matrix(1 0 0 1 237.399 1519)">Moderate</text></g><text font-family="Barlow,Barlow_MSFontService,sans-serif" font-weight="400" font-size="32" transform="matrix(1 0 0 1 3517.84 1604)">19 months</text><text font-family="Barlow,Barlow_MSFontService,sans-serif" font-weight="400" font-size="32" transform="matrix(1 0 0 1 1042.77 1604)">35% Equity / 65% Bonds</text><g><text font-family="Barlow,Barlow_MSFontService,sans-serif" font-weight="400" font-size="32" transform="matrix(1 0 0 1 237.399 1604)">Moderately Conservative</text></g><text font-family="Barlow,Barlow_MSFontService,sans-serif" font-weight="400" font-size="32" transform="matrix(1 0 0 1 3517.84 1690)">19 months</text><text font-family="Barlow,Barlow_MSFontService,sans-serif" font-weight="400" font-size="32" transform="matrix(1 0 0 1 2320.84 1690)">Short Term</text><text font-family="Barlow,Barlow_MSFontService,sans-serif" font-weight="400" font-size="32" transform="matrix(1 0 0 1 1040.76 1690)">20% Equity / 80% Bonds</text><g><text font-family="Barlow,Barlow_MSFontService,sans-serif" font-weight="400" font-size="32" transform="matrix(1 0 0 1 237.399 1690)">Conservative</text></g></g></svg>