<svg width="3970" height="365" xmlns="http://www.w3.org/2000/svg" xmlns:xlink="http://www.w3.org/1999/xlink" xml:space="preserve" overflow="hidden"><g transform="translate(-216 -1781)"><path d="M217.912 1782.8 4182.09 1782.8 4182.09 1872.57 217.912 1872.57Z" fill="#376C8A" fill-rule="evenodd"/><path d="M217.912 1872.57 803 1872.57 803 2007.22 217.912 2007.22Z" fill="#FFFFFF" fill-rule="evenodd"/><path d="M803 1872.57 4182.09 1872.57 4182.09 2007.22 803 2007.22Z" fill="#FFFFFF" fill-rule="evenodd"/><path d="M217.912 2007.22 803 2007.22 803 2141.88 217.912 2141.88Z" fill="#FFFFFF" fill-rule="evenodd"/><path d="M803 2007.22 4182.09 2007.22 4182.09 2141.88 803 2141.88Z" fill="#FFFFFF" fill-rule="evenodd"/><path d="M803 1870.85 803 2143.6" stroke="#376C8A" stroke-width="3.4375" stroke-linejoin="round" stroke-miterlimit="10" fill="none" fill-rule="evenodd"/><path d="M216.193 1872.57 4183.81 1872.57" stroke="#376C8A" stroke-width="3.4375" stroke-linejoin="round" stroke-miterlimit="10" fill="none" fill-rule="evenodd"/><path d="M216.193 2007.22 4183.81 2007.22" stroke="#376C8A" stroke-width="3.4375" stroke-linejoin="round" stroke-miterlimit="10" fill="none" fill-rule="evenodd"/><path d="M217.912 1781.09 217.912 2143.6" stroke="#376C8A" stroke-width="3.4375" stroke-linejoin="round" stroke-miterlimit="10" fill="none" fill-rule="evenodd"/><path d="M4182.09 1781.09 4182.09 2143.6" stroke="#376C8A" stroke-width="3.4375" stroke-linejoin="round" stroke-miterlimit="10" fill="none" fill-rule="evenodd"/><path d="M216.193 1782.8 4183.81 1782.8" stroke="#376C8A" stroke-width="3.4375" stroke-linejoin="round" stroke-miterlimit="10" fill="none" fill-rule="evenodd"/><path d="M216.193 2141.88 4183.81 2141.88" stroke="#376C8A" stroke-width="3.4375" stroke-linejoin="round" stroke-miterlimit="10" fill="none" fill-rule="evenodd"/><text fill="#FFFFFF" font-family="Barlow,Barlow_MSFontService,sans-serif" font-weight="700" font-size="32" transform="matrix(1 0 0 1 2108.91 1840)">Indices Used</text><text font-family="Barlow,Barlow_MSFontService,sans-serif" font-weight="400" font-size="32" transform="matrix(1 0 0 1 836 1953)">A capitalization weighted index comprised of 500 large companies that represent over 70% of the US equity market. Constituent</text><text font-family="Barlow,Barlow_MSFontService,sans-serif" font-weight="400" font-size="32" transform="matrix(1 0 0 1 2603.45 1953)">s a</text><text font-family="Barlow,Barlow_MSFontService,sans-serif" font-weight="400" font-size="32" transform="matrix(1 0 0 1 2641.83 1953)">re selected by committee based upon their market size, liquidity and sector.</text><text font-family="Barlow,Barlow_MSFontService,sans-serif" font-weight="400" font-size="32" transform="matrix(1 0 0 1 250.911 1953)">S&amp;P 500 (Equity)</text><text font-family="Barlow,Barlow_MSFontService,sans-serif" font-weight="400" font-size="32" transform="matrix(1 0 0 1 836 2068)">A market value</text><text font-family="Barlow,Barlow_MSFontService,sans-serif" font-weight="400" font-size="32" transform="matrix(1 0 0 1 1041.1 2068)">-</text><text font-family="Barlow,Barlow_MSFontService,sans-serif" font-weight="400" font-size="32" transform="matrix(1 0 0 1 1053.71 2068)">weighted index that tracks the daily price, coupon, pay</text><text font-family="Barlow,Barlow_MSFontService,sans-serif" font-weight="400" font-size="32" transform="matrix(1 0 0 1 1805.37 2068)">-</text><text font-family="Barlow,Barlow_MSFontService,sans-serif" font-weight="400" font-size="32" transform="matrix(1 0 0 1 1817.98 2068)">downs, and total return performance of fixed</text><text font-family="Barlow,Barlow_MSFontService,sans-serif" font-weight="400" font-size="32" transform="matrix(1 0 0 1 2437.88 2068)">-</text><text font-family="Barlow,Barlow_MSFontService,sans-serif" font-weight="400" font-size="32" transform="matrix(1 0 0 1 2450.48 2068)">rate, public</text><text font-family="Barlow,Barlow_MSFontService,sans-serif" font-weight="400" font-size="32" transform="matrix(1 0 0 1 2606.89 2068)">ly placed, dollar</text><text font-family="Barlow,Barlow_MSFontService,sans-serif" font-weight="400" font-size="32" transform="matrix(1 0 0 1 2822.3 2068)">-</text><text font-family="Barlow,Barlow_MSFontService,sans-serif" font-weight="400" font-size="32" transform="matrix(1 0 0 1 2834.91 2068)">denominated, and nonconvertible investment grade debt issues with at least $250 million par </text><text font-family="Barlow,Barlow_MSFontService,sans-serif" font-weight="400" font-size="32" transform="matrix(1 0 0 1 836 2107)">amount outstanding and with at least one year to final maturity. An investment cannot be made directly in an index.</text><text font-family="Barlow,Barlow_MSFontService,sans-serif" font-weight="400" font-size="32" transform="matrix(1 0 0 1 250.911 2087)">Bloomberg US Aggregate (Bonds)</text></g></svg>