<svg width="301" height="301" xmlns="http://www.w3.org/2000/svg" xmlns:xlink="http://www.w3.org/1999/xlink" xml:space="preserve" overflow="hidden"><defs><clipPath id="clip0"><rect x="2301" y="1327" width="301" height="301"/></clipPath></defs><g clip-path="url(#clip0)" transform="translate(-2301 -1327)"><path d="M2363.08 1449.76C2362.52 1451.89 2360.63 1453.4 2358.43 1453.47L2351.8 1453.47C2349.47 1453.47 2347.47 1455.12 2347.02 1457.4 2344.33 1471 2344.33 1484.99 2347.02 1498.59 2347.47 1500.88 2349.47 1502.53 2351.8 1502.52L2358.43 1502.52C2360.63 1502.59 2362.52 1504.1 2363.08 1506.23 2364.69 1511.28 2366.73 1516.19 2369.17 1520.89 2370.27 1522.8 2369.99 1525.2 2368.5 1526.81L2363.79 1531.53C2362.14 1533.17 2361.89 1535.75 2363.19 1537.68 2370.92 1549.19 2380.81 1559.08 2392.32 1566.81 2394.24 1568.11 2396.83 1567.86 2398.47 1566.21L2403.19 1561.5C2404.81 1560 2407.21 1559.73 2409.11 1560.83 2413.82 1563.27 2418.72 1565.31 2423.77 1566.92 2425.9 1567.48 2427.4 1569.37 2427.47 1571.57L2427.47 1578.2C2427.47 1580.53 2429.12 1582.53 2431.41 1582.98 2445 1585.67 2459 1585.67 2472.59 1582.98 2474.88 1582.53 2476.53 1580.53 2476.53 1578.2L2476.53 1571.57C2476.6 1569.37 2478.1 1567.48 2480.23 1566.92 2485.28 1565.31 2490.19 1563.27 2494.89 1560.83 2496.8 1559.74 2499.2 1560.01 2500.81 1561.5L2505.53 1566.21C2507.17 1567.86 2509.75 1568.11 2511.68 1566.81 2523.19 1559.08 2533.08 1549.19 2540.81 1537.68 2542.11 1535.75 2541.86 1533.17 2540.21 1531.53L2535.5 1526.81C2534 1525.19 2533.73 1522.79 2534.83 1520.89 2537.27 1516.18 2539.31 1511.28 2540.92 1506.23 2541.48 1504.1 2543.37 1502.59 2545.57 1502.52L2552.2 1502.52C2554.53 1502.53 2556.53 1500.88 2556.98 1498.59 2559.67 1484.99 2559.67 1471 2556.98 1457.4 2556.53 1455.12 2554.53 1453.47 2552.2 1453.47L2545.57 1453.47C2543.37 1453.4 2541.48 1451.89 2540.92 1449.76 2539.31 1444.71 2537.27 1439.81 2534.83 1435.1 2533.73 1433.19 2534.01 1430.8 2535.5 1429.18L2540.21 1424.47C2541.86 1422.82 2542.11 1420.24 2540.81 1418.31 2533.08 1406.8 2523.19 1396.91 2511.68 1389.18 2509.75 1387.89 2507.17 1388.13 2505.53 1389.78L2500.81 1394.49 2500.81 1394.49C2499.19 1395.99 2496.79 1396.26 2494.89 1395.16 2490.18 1392.72 2485.28 1390.68 2480.23 1389.08 2478.1 1388.52 2476.6 1386.62 2476.53 1384.42L2476.53 1377.79C2476.53 1375.46 2474.88 1373.46 2472.59 1373.02 2459 1370.33 2445 1370.33 2431.41 1373.02 2429.12 1373.46 2427.47 1375.46 2427.47 1377.79L2427.47 1384.42C2427.4 1386.62 2425.89 1388.52 2423.77 1389.08 2418.72 1390.68 2413.81 1392.72 2409.11 1395.16 2407.2 1396.26 2404.8 1395.98 2403.19 1394.5L2398.47 1389.78C2396.83 1388.13 2394.24 1387.88 2392.32 1389.18 2380.81 1396.91 2370.92 1406.8 2363.19 1418.31 2361.89 1420.24 2362.14 1422.82 2363.78 1424.47L2368.5 1429.19 2368.5 1429.19C2370 1430.8 2370.27 1433.2 2369.17 1435.11 2366.73 1439.81 2364.69 1444.71 2363.08 1449.76ZM2372.35 1452.71 2372.35 1452.71C2373.79 1448.19 2375.61 1443.8 2377.8 1439.59 2379.29 1436.83 2379.87 1433.66 2379.43 1430.55 2379 1427.44 2377.58 1424.55 2375.38 1422.3L2373.56 1420.48 2373.56 1420.47C2379.42 1412.47 2386.48 1405.41 2394.48 1399.55L2396.31 1401.37C2398.55 1403.57 2401.44 1404.99 2404.55 1405.42 2407.66 1405.86 2410.83 1405.29 2413.6 1403.79 2417.81 1401.61 2422.19 1399.78 2426.71 1398.35 2429.72 1397.45 2432.35 1395.61 2434.24 1393.1 2436.13 1390.6 2437.16 1387.56 2437.2 1384.42L2437.2 1381.88 2437.2 1381.88C2447.01 1380.34 2456.99 1380.34 2466.8 1381.88L2466.8 1384.43 2466.8 1384.42C2466.84 1387.56 2467.88 1390.6 2469.76 1393.1 2471.65 1395.61 2474.28 1397.45 2477.29 1398.35 2481.81 1399.78 2486.19 1401.61 2490.4 1403.79 2493.16 1405.29 2496.33 1405.86 2499.44 1405.43 2502.56 1404.99 2505.45 1403.57 2507.69 1401.37L2509.52 1399.55 2509.52 1399.55C2517.53 1405.41 2524.58 1412.47 2530.45 1420.47L2528.62 1422.3C2526.43 1424.54 2525.01 1427.43 2524.57 1430.54 2524.13 1433.66 2524.71 1436.82 2526.2 1439.59 2528.39 1443.8 2530.21 1448.19 2531.65 1452.71 2532.55 1455.71 2534.39 1458.35 2536.89 1460.23 2539.39 1462.12 2542.43 1463.16 2545.57 1463.2L2548.12 1463.2 2548.11 1463.2C2549.66 1473 2549.66 1482.99 2548.11 1492.8L2545.57 1492.8 2545.57 1492.8C2542.43 1492.83 2539.39 1493.87 2536.89 1495.76 2534.39 1497.64 2532.55 1500.28 2531.65 1503.28 2530.21 1507.8 2528.39 1512.19 2526.2 1516.4 2524.71 1519.16 2524.13 1522.33 2524.57 1525.44 2525 1528.55 2526.43 1531.44 2528.62 1533.69L2530.45 1535.52 2530.45 1535.52C2524.58 1543.52 2517.53 1550.58 2509.52 1556.44L2507.7 1554.62C2505.45 1552.42 2502.56 1551 2499.45 1550.56 2496.34 1550.13 2493.17 1550.7 2490.41 1552.2 2486.2 1554.38 2481.81 1556.21 2477.29 1557.65 2474.28 1558.55 2471.65 1560.38 2469.76 1562.89 2467.88 1565.39 2466.84 1568.43 2466.8 1571.57L2466.8 1574.11 2466.8 1574.11C2456.99 1575.65 2447.01 1575.65 2437.2 1574.11L2437.2 1571.57 2437.2 1571.57C2437.16 1568.43 2436.13 1565.39 2434.24 1562.89 2432.35 1560.38 2429.72 1558.55 2426.71 1557.65 2422.2 1556.21 2417.81 1554.39 2413.6 1552.2 2410.84 1550.7 2407.67 1550.13 2404.56 1550.56 2401.44 1551 2398.55 1552.42 2396.31 1554.62L2394.48 1556.44 2394.48 1556.44C2386.48 1550.58 2379.42 1543.52 2373.56 1535.52L2375.38 1533.69C2377.58 1531.45 2379 1528.56 2379.43 1525.45 2379.87 1522.34 2379.3 1519.17 2377.8 1516.4 2375.62 1512.19 2373.79 1507.8 2372.35 1503.28 2371.45 1500.28 2369.62 1497.64 2367.11 1495.76 2364.61 1493.87 2361.57 1492.83 2358.43 1492.8L2355.89 1492.8 2355.89 1492.8C2354.34 1482.99 2354.34 1473 2355.89 1463.2L2358.43 1463.2 2358.43 1463.2C2361.57 1463.16 2364.61 1462.12 2367.11 1460.23 2369.62 1458.35 2371.45 1455.71 2372.35 1452.71Z" fill="#638FA9" fill-rule="evenodd"/><path d="M2452 1551C2471.36 1551 2489.93 1543.31 2503.62 1529.62 2517.31 1515.93 2525 1497.36 2525 1478 2525 1458.64 2517.31 1440.07 2503.62 1426.38 2489.93 1412.69 2471.36 1405 2452 1405 2432.64 1405 2414.07 1412.69 2400.38 1426.38 2386.69 1440.07 2379 1458.64 2379 1478 2379.02 1497.35 2386.72 1515.91 2400.4 1529.6 2414.09 1543.28 2432.65 1550.98 2452 1551ZM2452 1414.73C2468.78 1414.73 2484.87 1421.4 2496.74 1433.26 2508.6 1445.13 2515.27 1461.22 2515.27 1478 2515.27 1494.78 2508.6 1510.87 2496.74 1522.74 2484.87 1534.6 2468.78 1541.27 2452 1541.27 2435.22 1541.27 2419.13 1534.6 2407.26 1522.74 2395.4 1510.87 2388.73 1494.78 2388.73 1478 2388.75 1461.23 2395.42 1445.15 2407.29 1433.29 2419.15 1421.42 2435.23 1414.75 2452 1414.73Z" fill="#638FA9" fill-rule="evenodd"/><path d="M2425 1458C2428.18 1458 2431.24 1456.74 2433.49 1454.49 2435.74 1452.24 2437 1449.18 2437 1446 2437 1442.82 2435.74 1439.76 2433.49 1437.51 2431.24 1435.26 2428.18 1434 2425 1434 2421.82 1434 2418.76 1435.26 2416.51 1437.51 2414.26 1439.76 2413 1442.82 2413 1446 2413 1449.18 2414.27 1452.23 2416.52 1454.48 2418.77 1456.73 2421.82 1458 2425 1458ZM2425 1443.6C2425.97 1443.6 2426.84 1444.19 2427.22 1445.08 2427.59 1445.98 2427.38 1447.01 2426.7 1447.7 2426.01 1448.38 2424.98 1448.59 2424.08 1448.22 2423.19 1447.84 2422.6 1446.97 2422.6 1446 2422.6 1444.68 2423.68 1443.6 2425 1443.6Z" fill="#638FA9" fill-rule="evenodd"/><path d="M2425 1517C2428.18 1517 2431.24 1515.68 2433.49 1513.34 2435.74 1511 2437 1507.81 2437 1504.5 2437 1501.19 2435.74 1498 2433.49 1495.66 2431.24 1493.32 2428.18 1492 2425 1492 2421.82 1492 2418.76 1493.32 2416.51 1495.66 2414.26 1498 2413 1501.19 2413 1504.5 2413 1507.81 2414.27 1510.99 2416.52 1513.33 2418.77 1515.68 2421.82 1517 2425 1517ZM2425 1502C2425.97 1502 2426.84 1502.61 2427.22 1503.54 2427.59 1504.48 2427.38 1505.55 2426.7 1506.27 2426.01 1506.98 2424.98 1507.2 2424.08 1506.81 2423.19 1506.42 2422.6 1505.51 2422.6 1504.5 2422.6 1503.12 2423.68 1502 2425 1502Z" fill="#638FA9" fill-rule="evenodd"/><path d="M2425 1487C2428.18 1487 2431.24 1485.74 2433.49 1483.49 2435.74 1481.24 2437 1478.18 2437 1475 2437 1471.82 2435.74 1468.76 2433.49 1466.51 2431.24 1464.26 2428.18 1463 2425 1463 2421.82 1463 2418.76 1464.26 2416.51 1466.51 2414.26 1468.76 2413 1471.82 2413 1475 2413 1478.18 2414.27 1481.23 2416.52 1483.48 2418.77 1485.73 2421.82 1487 2425 1487ZM2425 1472.6C2425.97 1472.6 2426.84 1473.19 2427.22 1474.08 2427.59 1474.98 2427.38 1476.01 2426.7 1476.7 2426.01 1477.38 2424.98 1477.59 2424.08 1477.22 2423.19 1476.85 2422.6 1475.97 2422.6 1475 2422.6 1473.68 2423.68 1472.6 2425 1472.6Z" fill="#638FA9" fill-rule="evenodd"/><path d="M2442 1441 2491 1441 2491 1451 2442 1451Z" fill="#638FA9" fill-rule="evenodd"/><path d="M2442 1470 2491 1470 2491 1480 2442 1480Z" fill="#638FA9" fill-rule="evenodd"/><path d="M2442 1500 2491 1500 2491 1509 2442 1509Z" fill="#638FA9" fill-rule="evenodd"/><path d="M2325.5 1376C2332 1376 2338.23 1373.42 2342.83 1368.83 2347.42 1364.23 2350 1358 2350 1351.5 2350 1345 2347.42 1338.77 2342.83 1334.17 2338.23 1329.58 2332 1327 2325.5 1327 2319 1327 2312.77 1329.58 2308.17 1334.17 2303.58 1338.77 2301 1345 2301 1351.5 2301.01 1357.99 2303.59 1364.22 2308.18 1368.82 2312.78 1373.41 2319.01 1375.99 2325.5 1376ZM2325.5 1336.8C2329.4 1336.8 2333.14 1338.35 2335.89 1341.1 2338.65 1343.86 2340.2 1347.6 2340.2 1351.5 2340.2 1355.4 2338.65 1359.14 2335.89 1361.89 2333.14 1364.65 2329.4 1366.2 2325.5 1366.2 2321.6 1366.2 2317.86 1364.65 2315.11 1361.89 2312.35 1359.14 2310.8 1355.4 2310.8 1351.5 2310.8 1347.6 2312.36 1343.87 2315.11 1341.11 2317.87 1338.35 2321.6 1336.8 2325.5 1336.8Z" fill="#638FA9" fill-rule="evenodd"/><path d="M2599.59 1599.83 2566.15 1580.63C2564.67 1579.78 2562.85 1579.79 2561.38 1580.65 2559.91 1581.51 2559 1583.09 2559 1584.8L2559 1623.2C2559 1624.91 2559.91 1626.49 2561.38 1627.35 2562.85 1628.21 2564.67 1628.22 2566.15 1627.37L2599.59 1608.17C2601.08 1607.31 2602 1605.72 2602 1604 2602 1602.28 2601.08 1600.69 2599.59 1599.83ZM2568.56 1614.93 2568.56 1593.07 2587.59 1604Z" fill="#638FA9" fill-rule="evenodd"/><path d="M2548.73 1346 2355 1346 2355 1355.79 2548.73 1355.79C2560.28 1355.8 2571.36 1360.44 2579.53 1368.7 2587.7 1376.95 2592.3 1388.15 2592.31 1399.82L2592.31 1448.75C2592.31 1455.24 2589.75 1461.45 2585.21 1466.04 2580.67 1470.63 2574.52 1473.21 2568.1 1473.21L2563.25 1473.21 2563.25 1483 2568.1 1483C2577.09 1482.99 2585.7 1479.38 2592.06 1472.96 2598.41 1466.53 2601.99 1457.83 2602 1448.75L2602 1399.82C2601.98 1385.55 2596.37 1371.87 2586.38 1361.78 2576.39 1351.69 2562.85 1346.02 2548.73 1346Z" fill="#638FA9" fill-rule="evenodd"/><path d="M2354.52 1609 2554 1609 2554 1599.29 2354.52 1599.29C2342.91 1599.27 2331.78 1594.66 2323.57 1586.47 2315.36 1578.27 2310.74 1567.16 2310.73 1555.57L2310.73 1507C2310.74 1500.56 2313.3 1494.39 2317.86 1489.84 2322.43 1485.28 2328.61 1482.72 2335.06 1482.71L2339.92 1482.71 2339.92 1473 2335.06 1473C2326.03 1473.01 2317.37 1476.6 2310.99 1482.97 2304.6 1489.34 2301.01 1497.99 2301 1507L2301 1555.57C2301.02 1569.74 2306.66 1583.32 2316.69 1593.33 2326.73 1603.35 2340.33 1608.98 2354.52 1609Z" fill="#638FA9" fill-rule="evenodd"/></g></svg>