<svg width="387" height="273" xmlns="http://www.w3.org/2000/svg" xmlns:xlink="http://www.w3.org/1999/xlink" xml:space="preserve" overflow="hidden"><defs><clipPath id="clip0"><rect x="1055" y="1340" width="387" height="273"/></clipPath></defs><g clip-path="url(#clip0)" transform="translate(-1055 -1340)"><path d="M1418.39 1384.57 1409.16 1392.55C1422.46 1407.99 1429.8 1427.74 1429.8 1448.14 1429.8 1495.12 1391.6 1533.34 1344.65 1533.34 1297.71 1533.34 1259.51 1495.12 1259.51 1448.14 1259.51 1401.17 1297.71 1362.96 1344.65 1362.96 1363.11 1362.96 1380.67 1368.77 1395.44 1379.76L1402.72 1369.97C1385.82 1357.4 1365.74 1350.75 1344.64 1350.75 1333.02 1350.75 1321.91 1352.91 1311.58 1356.66L1311.58 1354.24 1269.93 1354.24 1269.93 1340 1257.72 1340 1257.72 1354.24 1221.74 1354.24 1221.74 1340 1209.54 1340 1209.54 1354.24 1173.55 1354.24 1173.55 1340 1161.35 1340 1161.35 1354.24 1119.7 1354.24 1119.7 1427.32 1084.99 1393.25 1055 1423.86 1119.71 1487.34 1119.71 1613 1255.28 1613 1311.59 1568.53 1311.59 1539.64C1321.93 1543.39 1333.03 1545.55 1344.65 1545.55 1398.33 1545.55 1442 1501.85 1442 1448.14 1441.99 1424.8 1433.61 1402.22 1418.39 1384.57ZM1170.83 1494.57 1173.54 1510.13 1157.92 1507.72 1102.95 1453.79 1115.84 1440.63ZM1085.16 1410.52 1107.13 1432.07 1094.23 1445.24 1072.26 1423.69ZM1259.37 1594.21 1259.56 1571.68 1287.9 1571.68ZM1299.38 1559.47 1247.45 1559.47 1247.1 1600.79 1131.91 1600.79 1131.91 1499.31 1152.18 1519.2 1188.49 1524.8 1182.17 1488.59 1131.91 1439.28 1131.91 1366.44 1161.35 1366.44 1161.35 1380.69 1173.56 1380.69 1173.56 1366.44 1209.54 1366.44 1209.54 1380.69 1221.75 1380.69 1221.75 1366.44 1257.73 1366.44 1257.73 1380.69 1269.93 1380.69 1269.93 1366.44 1291.84 1366.44C1265.08 1383.82 1247.3 1413.91 1247.3 1448.13 1247.3 1485.5 1268.46 1517.96 1299.38 1534.29L1299.38 1559.46Z" fill="#376C8A" fill-rule="evenodd"/><path d="M1404.37 1388 1413 1378.78C1411.39 1377.13 1409.72 1375.54 1407.99 1374L1400 1383.83C1401.51 1385.17 1402.97 1386.55 1404.37 1388Z" fill="#376C8A" fill-rule="evenodd"/><path d="M1335.5 1369C1299.1 1373.53 1270.52 1402.11 1266 1438.5L1278.11 1440C1281.94 1409.16 1306.16 1384.95 1337 1381.11Z" fill="#376C8A" fill-rule="evenodd"/><path d="M1424 1458.51 1411.89 1457C1408.05 1487.83 1383.84 1512.05 1353 1515.89L1354.51 1528C1390.9 1523.46 1419.48 1494.88 1424 1458.51Z" fill="#376C8A" fill-rule="evenodd"/><path d="M1325.73 1497 1404 1418.84 1385.32 1400 1325.7 1460.11 1304.66 1438.88 1286 1457.72 1321 1493.02ZM1304.66 1456.27 1325.69 1477.5 1385.31 1417.38 1386.71 1418.79 1325.33 1480 1303.23 1457.72Z" fill="#376C8A" fill-rule="evenodd"/><path d="M1168 1540 1230 1540 1230 1552 1168 1552Z" fill="#376C8A" fill-rule="evenodd"/></g></svg>