<svg width="358" height="313" xmlns="http://www.w3.org/2000/svg" xmlns:xlink="http://www.w3.org/1999/xlink" xml:space="preserve" overflow="hidden"><g transform="translate(-1686 -975)"><path d="M1900.73 1120.6C1901.29 1124.95 1900.97 1128.99 1899.8 1132.75 1898.6 1136.53 1896.63 1139.88 1893.9 1142.82 1891.18 1145.78 1887.69 1148.28 1883.48 1150.37 1879.26 1152.45 1874.43 1154 1868.99 1154.97L1869.51 1172.83C1869.51 1173.18 1869.44 1173.49 1869.35 1173.81 1869.25 1174.13 1869.04 1174.41 1868.68 1174.64 1868.31 1174.88 1867.8 1175.11 1867.13 1175.3 1866.46 1175.49 1865.58 1175.67 1864.49 1175.8 1863.22 1175.96 1862.22 1176.02 1861.48 1175.99 1860.71 1175.95 1860.11 1175.86 1859.64 1175.73 1859.18 1175.59 1858.86 1175.36 1858.69 1175.02 1858.5 1174.69 1858.43 1174.29 1858.48 1173.85L1858.07 1156.05C1855.39 1156.06 1852.91 1155.96 1850.6 1155.73 1848.3 1155.5 1846.22 1155.21 1844.41 1154.82 1842.58 1154.46 1841.01 1154.04 1839.7 1153.54 1838.38 1153.04 1837.4 1152.56 1836.74 1152.06 1836.1 1151.57 1835.59 1150.87 1835.27 1149.98 1834.93 1149.09 1834.65 1147.84 1834.43 1146.22 1834.28 1145.01 1834.21 1144.02 1834.21 1143.21 1834.22 1142.42 1834.3 1141.75 1834.43 1141.19 1834.6 1140.66 1834.84 1140.26 1835.17 1140.04 1835.5 1139.81 1835.9 1139.64 1836.39 1139.58 1837.11 1139.48 1838.18 1139.76 1839.58 1140.38 1841.01 1140.98 1842.85 1141.63 1845.12 1142.3 1847.41 1142.96 1850.18 1143.51 1853.38 1143.91 1856.6 1144.33 1860.39 1144.25 1864.77 1143.69 1872.53 1142.69 1878.22 1140.42 1881.82 1136.86 1885.45 1133.3 1886.92 1128.92 1886.22 1123.72 1885.81 1120.53 1884.73 1117.94 1882.98 1115.99 1881.21 1114.04 1879.01 1112.46 1876.37 1111.22 1873.75 1109.99 1870.82 1109.01 1867.58 1108.3 1864.36 1107.58 1861.07 1106.87 1857.74 1106.15 1854.38 1105.42 1851.06 1104.52 1847.79 1103.46 1844.51 1102.4 1841.51 1100.94 1838.82 1099.09 1836.14 1097.23 1833.85 1094.83 1831.97 1091.91 1830.09 1088.98 1828.85 1085.24 1828.25 1080.69 1827.78 1077.07 1827.97 1073.59 1828.8 1070.28 1829.65 1066.98 1831.18 1063.99 1833.38 1061.31 1835.6 1058.61 1838.49 1056.28 1842.13 1054.28 1845.76 1052.31 1850.08 1050.82 1855.13 1049.85L1854.6 1033.2C1854.6 1032.86 1854.65 1032.54 1854.77 1032.22 1854.86 1031.91 1855.08 1031.62 1855.43 1031.35 1855.8 1031.09 1856.3 1030.86 1856.92 1030.7 1857.59 1030.54 1858.47 1030.37 1859.62 1030.23 1860.83 1030.07 1861.82 1030 1862.64 1030 1863.46 1030.02 1864.07 1030.11 1864.54 1030.29 1864.95 1030.49 1865.26 1030.75 1865.41 1031.05 1865.57 1031.35 1865.66 1031.75 1865.72 1032.17L1866.06 1048.67C1867.71 1048.61 1869.47 1048.69 1871.29 1048.86 1873.11 1049.05 1874.84 1049.29 1876.46 1049.6 1878.08 1049.91 1879.58 1050.3 1880.91 1050.77 1882.26 1051.23 1883.18 1051.64 1883.69 1052.02 1884.22 1052.38 1884.6 1052.76 1884.83 1053.11 1885.09 1053.47 1885.28 1053.88 1885.46 1054.37 1885.63 1054.83 1885.8 1055.4 1885.96 1056.04 1886.14 1056.67 1886.28 1057.4 1886.39 1058.22 1886.52 1059.25 1886.59 1060.14 1886.6 1060.91 1886.63 1061.68 1886.59 1062.3 1886.47 1062.76 1886.36 1063.22 1886.19 1063.57 1885.94 1063.81 1885.7 1064.07 1885.39 1064.22 1885.03 1064.27 1884.41 1064.35 1883.4 1064.11 1882.01 1063.58 1880.6 1063.04 1878.83 1062.49 1876.76 1061.94 1874.65 1061.39 1872.24 1060.92 1869.53 1060.55 1866.82 1060.19 1863.83 1060.22 1860.61 1060.64 1856.95 1061.1 1853.87 1061.86 1851.38 1062.9 1848.87 1063.94 1846.91 1065.19 1845.46 1066.69 1844.02 1068.17 1843.06 1069.85 1842.53 1071.72 1842.04 1073.61 1841.91 1075.61 1842.18 1077.72 1842.62 1080.98 1843.73 1083.6 1845.52 1085.56 1847.31 1087.54 1849.51 1089.14 1852.15 1090.34 1854.78 1091.54 1857.71 1092.49 1860.99 1093.17 1864.24 1093.85 1867.55 1094.56 1870.97 1095.3 1874.36 1096.07 1877.73 1096.93 1881.02 1097.94 1884.33 1098.95 1887.33 1100.38 1890.03 1102.24 1892.76 1104.1 1895.07 1106.48 1896.98 1109.4 1898.88 1112.3 1900.16 1116.04 1900.73 1120.6Z" stroke="#E6B127" stroke-width="10.3125" stroke-miterlimit="8" fill="#E6B127" fill-rule="evenodd"/><path d="M1974.9 1081.72 1966.37 1081.72C1963.69 1068.45 1958.43 1056.12 1951.21 1045.2L1957.27 1039.13C1961.97 1034.43 1961.97 1026.73 1957.27 1022.03L1944.97 1009.74C1940.28 1005.05 1932.59 1005.04 1927.87 1009.74L1921.79 1015.81C1910.89 1008.58 1898.56 1003.34 1885.29 1000.64L1885.29 992.115C1885.29 985.465 1879.84 980.014 1873.18 980.014L1855.81 980.014C1849.17 980.014 1843.73 985.462 1843.73 992.115L1843.73 1000.65C1830.44 1003.35 1818.11 1008.59 1807.2 1015.82L1801.14 1009.75C1796.44 1005.05 1788.73 1005.05 1784.04 1009.75L1771.74 1022.04C1767.04 1026.74 1767.04 1034.44 1771.74 1039.14L1777.81 1045.21C1770.58 1056.12 1765.34 1068.45 1762.64 1081.73L1754.12 1081.73C1747.47 1081.73 1742.02 1087.17 1742.02 1093.82L1742.02 1111.2C1742.02 1117.84 1747.46 1123.3 1754.12 1123.3L1762.66 1123.3C1765.35 1136.57 1770.59 1148.89 1777.82 1159.81L1771.75 1165.88C1767.05 1170.58 1767.05 1178.29 1771.75 1182.99L1784.04 1195.28C1788.74 1199.98 1796.45 1199.98 1801.16 1195.28L1807.21 1189.21C1818.13 1196.42 1830.45 1201.68 1843.74 1204.38L1843.74 1212.91C1843.74 1219.57 1849.18 1225.01 1855.82 1225.01L1873.19 1225.01C1879.85 1225.01 1885.3 1219.57 1885.3 1212.91L1885.3 1204.38C1898.57 1201.69 1910.9 1196.42 1921.8 1189.21L1927.88 1195.28C1932.6 1199.98 1940.29 1199.98 1944.98 1195.28L1957.28 1182.99C1961.98 1178.29 1961.98 1170.58 1957.28 1165.88L1951.22 1159.81C1958.44 1148.9 1963.69 1136.57 1966.38 1123.3L1974.91 1123.3C1981.57 1123.3 1987.02 1117.85 1987.02 1111.2L1987.02 1093.82C1987.01 1087.17 1981.56 1081.72 1974.9 1081.72Z" stroke="#E6B127" stroke-width="10.3125" stroke-miterlimit="8" fill="none" fill-rule="evenodd"/><path d="M1959.87 1178.59C2006.95 1188.67 2038.02 1205.99 2038.02 1225.67 2038.02 1256.8 1960.34 1282.03 1864.52 1282.03 1768.7 1282.02 1691.02 1256.81 1691.02 1225.67 1691.02 1205.62 1723.26 1188.02 1771.82 1178.03" stroke="#E6B127" stroke-width="10.3125" stroke-miterlimit="8" fill="none" fill-rule="evenodd"/><path d="M1900.84 1200.03C1943.46 1203.75 1974.02 1213.87 1974.02 1225.76 1974.02 1240.81 1925 1253.03 1864.52 1253.03 1804.05 1253.03 1755.02 1240.82 1755.02 1225.76 1755.02 1214.2 1783.91 1204.32 1824.69 1200.35" stroke="#E6B127" stroke-width="10.3125" stroke-miterlimit="8" fill="none" fill-rule="evenodd"/></g></svg>