<svg width="277" height="277" xmlns="http://www.w3.org/2000/svg" xmlns:xlink="http://www.w3.org/1999/xlink" xml:space="preserve" overflow="hidden"><g transform="translate(-2938 -978)"><path d="M3076.5 1195C3056.25 1195 3037.06 1187.37 3022.45 1173.51 3006.91 1158.93 2998 1138.33 2998 1117 2998 1073.99 3033.21 1039 3076.5 1039 3119.79 1039 3155 1073.99 3155 1117 3155 1138.32 3146.08 1158.93 3130.54 1173.52 3115.89 1187.37 3096.69 1195 3076.5 1195ZM3076.5 1044.78C3036.42 1044.78 3003.81 1077.18 3003.81 1117 3003.81 1136.75 3012.06 1155.82 3026.45 1169.33 3039.98 1182.16 3057.76 1189.23 3076.5 1189.23 3095.19 1189.23 3112.97 1182.16 3126.54 1169.34 3140.94 1155.82 3149.19 1136.74 3149.19 1117 3149.19 1077.18 3116.58 1044.78 3076.5 1044.78Z" stroke="#7F7F7F" stroke-width="3.53566" stroke-miterlimit="8" fill="#7F7F7F" fill-rule="evenodd"/><path d="M3076.5 1123C3062.44 1123 3051 1111.56 3051 1097.5 3051 1083.44 3062.44 1072 3076.5 1072 3090.56 1072 3102 1083.44 3102 1097.5 3102 1111.56 3090.56 1123 3076.5 1123ZM3076.5 1077.76C3065.61 1077.76 3056.76 1086.61 3056.76 1097.5 3056.76 1108.38 3065.62 1117.24 3076.5 1117.24 3087.39 1117.24 3096.24 1108.38 3096.24 1097.5 3096.24 1086.61 3087.38 1077.76 3076.5 1077.76Z" stroke="#7F7F7F" stroke-width="3.53566" stroke-miterlimit="8" fill="#7F7F7F" fill-rule="evenodd"/><path d="M3077 1195C3056.73 1195 3037.52 1187.33 3022.9 1173.41 3022.31 1172.84 3021.98 1172.05 3022 1171.23 3022.86 1141.38 3047.01 1118 3077 1118 3106.99 1118 3131.14 1141.38 3132 1171.23 3132.02 1172.06 3131.69 1172.85 3131.1 1173.42 3116.42 1187.33 3097.21 1195 3077 1195ZM3027.87 1170.11C3041.28 1182.43 3058.68 1189.2 3077 1189.2 3095.28 1189.2 3112.67 1182.43 3126.13 1170.1 3124.71 1144.04 3103.38 1123.8 3077 1123.8 3050.62 1123.8 3029.28 1144.04 3027.87 1170.11Z" stroke="#7F7F7F" stroke-width="3.53566" stroke-miterlimit="8" fill="#7F7F7F" fill-rule="evenodd"/><path d="M3093.82 1234.99C3093.17 1234.99 3092.52 1234.77 3092.01 1234.35 3091.38 1233.85 3090.99 1233.1 3090.93 1232.29 3090.4 1224.74 3084.07 1218.82 3076.5 1218.82 3068.81 1218.82 3062.61 1224.61 3062.07 1232.29 3062.01 1233.1 3061.62 1233.85 3060.99 1234.36 3060.37 1234.86 3059.56 1235.1 3058.75 1234.96 3007.71 1227.26 2966.7 1186.08 2959.03 1134.82 2958.91 1134.02 2959.13 1133.2 2959.64 1132.57 2960.14 1131.94 2960.89 1131.54 2961.69 1131.49 2969.22 1130.96 2975.11 1124.6 2975.11 1117 2975.11 1109.4 2969.21 1103.04 2961.69 1102.5 2960.89 1102.45 2960.14 1102.06 2959.64 1101.42 2959.13 1100.79 2958.91 1099.97 2959.04 1099.17 2966.7 1047.91 3007.71 1006.73 3058.75 999.034 3059.55 998.909 3060.37 999.135 3060.99 999.635 3061.63 1000.15 3062.01 1000.89 3062.07 1001.7 3062.6 1009.25 3068.94 1015.18 3076.5 1015.18 3084.07 1015.18 3090.4 1009.26 3090.93 1001.71 3090.99 1000.9 3091.38 1000.15 3092.01 999.641 3092.64 999.135 3093.46 998.913 3094.25 999.034 3145.29 1006.73 3186.3 1047.91 3193.97 1099.17 3194.09 1099.97 3193.87 1100.79 3193.37 1101.42 3192.86 1102.06 3192.12 1102.45 3191.31 1102.5 3183.66 1103.05 3177.9 1109.28 3177.9 1117 3177.9 1124.6 3183.79 1130.96 3191.31 1131.49 3192.11 1131.54 3192.86 1131.94 3193.36 1132.57 3193.87 1133.21 3194.09 1134.02 3193.96 1134.82 3186.3 1186.08 3145.29 1227.26 3094.25 1234.96 3094.11 1234.98 3093.96 1234.99 3093.82 1234.99ZM2965.23 1136.82C2973.42 1183.29 3010.48 1220.5 3056.75 1228.74 3058.85 1219.7 3066.98 1213 3076.5 1213 3086.01 1213 3094.15 1219.7 3096.24 1228.74 3142.51 1220.5 3179.57 1183.29 3187.76 1136.82 3178.76 1134.73 3172.1 1126.56 3172.1 1117 3172.1 1107.44 3178.76 1099.27 3187.76 1097.17 3179.57 1050.7 3142.51 1013.49 3096.24 1005.26 3094.15 1014.3 3086.01 1021 3076.5 1021 3066.98 1021 3058.85 1014.3 3056.75 1005.26 3010.48 1013.49 2973.43 1050.7 2965.23 1097.17 2974.23 1099.27 2980.9 1107.44 2980.9 1117 2980.9 1126.56 2974.23 1134.73 2965.23 1136.82Z" stroke="#7F7F7F" stroke-width="3.53566" stroke-miterlimit="8" fill="#7F7F7F" fill-rule="evenodd"/><path d="M3076.5 1021C3065.79 1021 3056.82 1012.65 3056.06 1001.99 3056.01 1001.65 3056 1001.03 3056 1000.5 3056 989.197 3065.2 980 3076.5 980 3087.8 980 3097 989.197 3097 1000.5 3097 1001.04 3096.99 1001.68 3096.9 1002.23 3096.18 1012.65 3087.21 1021 3076.5 1021ZM3076.5 985.855C3068.42 985.855 3061.86 992.422 3061.86 1000.5 3061.86 1000.78 3061.85 1001.1 3061.89 1001.38 3062.45 1009.18 3068.85 1015.14 3076.5 1015.14 3084.15 1015.14 3090.55 1009.19 3091.09 1001.58 3091.16 1001.07 3091.14 1000.77 3091.14 1000.5 3091.14 992.422 3084.58 985.855 3076.5 985.855Z" stroke="#7F7F7F" stroke-width="3.53566" stroke-miterlimit="8" fill="#7F7F7F" fill-rule="evenodd"/><path d="M3076.5 1253C3065.2 1253 3056 1244.03 3056 1233 3056 1232.48 3056.01 1231.87 3056.08 1231.35 3056.82 1221.14 3065.79 1213 3076.5 1213 3087.21 1213 3096.18 1221.14 3096.93 1231.54 3096.99 1231.84 3097 1232.46 3097 1233 3097 1244.03 3087.8 1253 3076.5 1253ZM3076.5 1218.71C3068.73 1218.71 3062.45 1224.4 3061.91 1231.94 3061.84 1232.41 3061.86 1232.72 3061.86 1233 3061.86 1240.88 3068.42 1247.28 3076.5 1247.28 3084.58 1247.28 3091.14 1240.88 3091.14 1233 3091.14 1232.74 3091.15 1232.44 3091.12 1232.17 3090.55 1224.52 3084.15 1218.71 3076.5 1218.71Z" stroke="#7F7F7F" stroke-width="3.53566" stroke-miterlimit="8" fill="#7F7F7F" fill-rule="evenodd"/><path d="M2960.5 1137C2949.2 1137 2940 1128.03 2940 1117 2940 1105.97 2949.2 1097 2960.5 1097 2961.03 1097 2961.65 1097.01 2962.19 1097.08 2972.65 1097.8 2981 1106.55 2981 1117 2981 1127.45 2972.65 1136.2 2961.99 1136.93 2961.68 1136.99 2961.04 1137 2960.5 1137ZM2960.72 1102.71 2960.5 1102.71C2952.42 1102.71 2945.86 1109.12 2945.86 1117 2945.85 1124.97 2952.31 1131.4 2960.8 1131.29 2960.99 1131.29 2961.18 1131.28 2961.35 1131.26 2969.19 1130.71 2975.14 1124.46 2975.14 1117 2975.14 1109.54 2969.18 1103.29 2961.58 1102.76 2961.22 1102.72 2960.95 1102.71 2960.72 1102.71Z" stroke="#7F7F7F" stroke-width="3.53566" stroke-miterlimit="8" fill="#7F7F7F" fill-rule="evenodd"/><path d="M3192.5 1137C3191.95 1137 3191.32 1136.99 3190.77 1136.9 3180.35 1136.2 3172 1127.45 3172 1117 3172 1106.55 3180.35 1097.8 3191 1097.06 3191.35 1097.01 3191.96 1097 3192.5 1097 3203.8 1097 3213 1105.97 3213 1117 3213 1128.03 3203.8 1137 3192.5 1137ZM3192.2 1102.71C3192 1102.71 3191.8 1102.72 3191.61 1102.74 3183.69 1103.3 3177.86 1109.42 3177.86 1117 3177.86 1124.46 3183.81 1130.71 3191.41 1131.23 3191.92 1131.3 3192.24 1131.28 3192.5 1131.29 3200.58 1131.29 3207.14 1124.88 3207.14 1117 3207.14 1109.12 3200.58 1102.71 3192.5 1102.71L3192.2 1102.71Z" stroke="#7F7F7F" stroke-width="3.53566" stroke-miterlimit="8" fill="#7F7F7F" fill-rule="evenodd"/></g></svg>