<svg width="3365" height="470" xmlns="http://www.w3.org/2000/svg" xmlns:xlink="http://www.w3.org/1999/xlink" xml:space="preserve" overflow="hidden"><g transform="translate(-215 -1354)"><path d="M217.911 1356.94 406.649 1356.94 406.649 1818.94 217.911 1818.94Z" fill="#376C8A" fill-rule="evenodd"/><path d="M406.649 1356.94 972.863 1356.94 972.863 1472.44 406.649 1472.44Z" fill="#F2F2F2" fill-rule="evenodd"/><path d="M972.863 1356.94 3575 1356.94 3575 1472.44 972.863 1472.44Z" fill="#638FA9" fill-rule="evenodd"/><path d="M406.649 1472.44 972.863 1472.44 972.863 1587.94 406.649 1587.94Z" fill="#F2F2F2" fill-rule="evenodd"/><path d="M1959.08 1472.44 3575 1472.44 3575 1587.94 1959.08 1587.94Z" fill="#F2D9BB" fill-rule="evenodd"/><path d="M406.649 1587.94 972.863 1587.94 972.863 1703.44 406.649 1703.44Z" fill="#F2F2F2" fill-rule="evenodd"/><path d="M2674.07 1587.94 3575 1587.94 3575 1703.44 2674.07 1703.44Z" fill="#E6B127" fill-rule="evenodd"/><path d="M406.649 1703.44 972.863 1703.44 972.863 1818.94 406.649 1818.94Z" fill="#F2F2F2" fill-rule="evenodd"/><path d="M2674.07 1703.44 3575 1703.44 3575 1818.94 2674.07 1818.94Z" fill="#7F7F7F" fill-rule="evenodd"/><path d="M406.649 1354.65 406.649 1821.24" stroke="#FFFFFF" stroke-width="4.58333" stroke-linejoin="round" stroke-miterlimit="10" fill="none" fill-rule="evenodd"/><path d="M972.863 1354.65 972.863 1821.24" stroke="#FFFFFF" stroke-width="4.58333" stroke-linejoin="round" stroke-miterlimit="10" fill="none" fill-rule="evenodd"/><path d="M1959.08 1470.15 1959.08 1590.24" stroke="#FFFFFF" stroke-width="4.58333" stroke-linejoin="round" stroke-miterlimit="10" fill="none" fill-rule="evenodd"/><path d="M2674.07 1585.65 2674.07 1821.24" stroke="#FFFFFF" stroke-width="4.58333" stroke-linejoin="round" stroke-miterlimit="10" fill="none" fill-rule="evenodd"/><path d="M404.358 1472.44 3577.29 1472.44" stroke="#FFFFFF" stroke-width="4.58333" stroke-linejoin="round" stroke-miterlimit="10" fill="none" fill-rule="evenodd"/><path d="M404.358 1587.94 3577.29 1587.94" stroke="#FFFFFF" stroke-width="4.58333" stroke-linejoin="round" stroke-miterlimit="10" fill="none" fill-rule="evenodd"/><path d="M404.358 1703.44 3577.29 1703.44" stroke="#FFFFFF" stroke-width="4.58333" stroke-linejoin="round" stroke-miterlimit="10" fill="none" fill-rule="evenodd"/><path d="M217.911 1354.65 217.911 1821.24" stroke="#FFFFFF" stroke-width="4.58333" stroke-linejoin="round" stroke-miterlimit="10" fill="none" fill-rule="evenodd"/><path d="M3575 1354.65 3575 1821.24" stroke="#FFFFFF" stroke-width="4.58333" stroke-linejoin="round" stroke-miterlimit="10" fill="none" fill-rule="evenodd"/><path d="M215.619 1356.94 3577.29 1356.94" stroke="#FFFFFF" stroke-width="4.58333" stroke-linejoin="round" stroke-miterlimit="10" fill="none" fill-rule="evenodd"/><path d="M215.619 1818.94 3577.29 1818.94" stroke="#FFFFFF" stroke-width="4.58333" stroke-linejoin="round" stroke-miterlimit="10" fill="none" fill-rule="evenodd"/><text fill="#FFFFFF" font-family="Barlow,Barlow_MSFontService,sans-serif" font-weight="700" font-size="46" transform="matrix(1 0 0 1 2200.14 1433)">3.7%</text><text fill="#FFFFFF" font-family="Barlow,Barlow_MSFontService,sans-serif" font-weight="700" font-size="31" transform="matrix(1 0 0 1 2298.11 1419)">3</text><text font-family="Barlow,Barlow_MSFontService,sans-serif" font-weight="700" font-size="46" transform="matrix(1 0 0 1 562.11 1433)">1960 </text><text font-family="Barlow,Barlow_MSFontService,sans-serif" font-weight="700" font-size="46" transform="matrix(1 0 0 1 662.37 1433)">-</text><text font-family="Barlow,Barlow_MSFontService,sans-serif" font-weight="700" font-size="46" transform="matrix(1 0 0 1 690.443 1433)">2021</text><text fill="#FFFFFF" font-family="Barlow,Barlow_MSFontService,sans-serif" font-weight="700" font-size="46" transform="matrix(6.12323e-17 -1 1 6.12323e-17 303.274 1674)">Average </text><text fill="#FFFFFF" font-family="Barlow,Barlow_MSFontService,sans-serif" font-weight="700" font-size="46" transform="matrix(6.12323e-17 -1 1 6.12323e-17 358.274 1736)">Inflation </text><text fill="#FFFFFF" font-family="Barlow,Barlow_MSFontService,sans-serif" font-weight="700" font-size="46" transform="matrix(6.12323e-17 -1 1 6.12323e-17 358.274 1557)">Rates</text><text fill="#FFFFFF" font-family="Barlow,Barlow_MSFontService,sans-serif" font-weight="700" font-size="46" transform="matrix(1 0 0 1 2700.12 1549)">2.8%</text><text font-family="Barlow,Barlow_MSFontService,sans-serif" font-weight="700" font-size="46" transform="matrix(1 0 0 1 562.397 1549)">1982 </text><text font-family="Barlow,Barlow_MSFontService,sans-serif" font-weight="700" font-size="46" transform="matrix(1 0 0 1 662.084 1549)">-</text><text font-family="Barlow,Barlow_MSFontService,sans-serif" font-weight="700" font-size="46" transform="matrix(1 0 0 1 690.157 1549)">2021</text><text fill="#FFFFFF" font-family="Barlow,Barlow_MSFontService,sans-serif" font-weight="700" font-size="46" transform="matrix(1 0 0 1 3047.88 1664)">2.2%</text><text fill="#FFFFFF" font-family="Barlow,Barlow_MSFontService,sans-serif" font-weight="700" font-size="31" transform="matrix(1 0 0 1 3149.86 1650)">4</text><text font-family="Barlow,Barlow_MSFontService,sans-serif" font-weight="700" font-size="46" transform="matrix(1 0 0 1 555.235 1664)">2000 </text><text font-family="Barlow,Barlow_MSFontService,sans-serif" font-weight="700" font-size="46" transform="matrix(1 0 0 1 669.245 1664)">-</text><text font-family="Barlow,Barlow_MSFontService,sans-serif" font-weight="700" font-size="46" transform="matrix(1 0 0 1 697.318 1664)">2021</text><text fill="#FFFFFF" font-family="Barlow,Barlow_MSFontService,sans-serif" font-weight="700" font-size="46" transform="matrix(1 0 0 1 3061.91 1780)">2.1%</text><text font-family="Barlow,Barlow_MSFontService,sans-serif" font-weight="700" font-size="46" transform="matrix(1 0 0 1 550.079 1780)">2000 </text><text font-family="Barlow,Barlow_MSFontService,sans-serif" font-weight="700" font-size="46" transform="matrix(1 0 0 1 664.089 1780)">-</text><text font-family="Barlow,Barlow_MSFontService,sans-serif" font-weight="700" font-size="46" transform="matrix(1 0 0 1 692.162 1780)">2020</text></g></svg>