<svg width="3964" height="726" xmlns="http://www.w3.org/2000/svg" xmlns:xlink="http://www.w3.org/1999/xlink" xml:space="preserve" overflow="hidden"><defs><clipPath id="clip0"><rect x="218" y="576" width="3964" height="726"/></clipPath></defs><g clip-path="url(#clip0)" transform="translate(-218 -576)"><g><path d="M410.5 1251.5 4112.5 1251.5M410.5 1112.54 4112.5 1112.54M410.5 1042.53 4112.5 1042.53M410.5 973.532 4112.5 973.532M410.5 903.53 4112.5 903.53M410.5 834.528 4112.5 834.528M410.5 765.525 4112.5 765.525M410.5 695.523 4112.5 695.523M410.5 626.5 4112.5 626.5" stroke="#F2F2F2" stroke-width="3.4375" stroke-linejoin="round" stroke-miterlimit="10" fill="none"/></g><g><path d="M410.5 1181.5 4112.5 1181.5" stroke="#D9D9D9" stroke-width="3.4375" stroke-linejoin="round" stroke-miterlimit="10" fill="none" fill-rule="evenodd"/></g><g><path d="M440 1131.04 500.016 1145.04 560.018 1140.04 620.02 1139.04 679.022 1137.04 739.024 1127.04 799.026 1077.04 858.028 1086.04 918.03 1034.03 978.032 992.033 1038.03 979.032 1097.04 1033.03 1157.04 1068.04 1217.04 967.032 1276.04 798.026 1336.04 864.028 1396.05 982.032 1456.05 956.031 1515.05 917.03 1575.05 791.026 1635.05 711 1694.06 823.027 1754.06 969.032 1814.06 1070.04 1874.06 1032.03 1933.06 1059.03 1993.07 1116.04 2053.07 1055.03 2112.07 1040.03 2172.07 1014.03 2232.07 994.033 2291.08 1035.03 2351.08 1077.04 2411.08 1079.04 2471.08 1091.04 2530.08 1084.04 2590.08 1080.04 2650.09 1101.04 2709.09 1128.04 2769.09 1106.04 2829.09 1064.03 2889.09 1084.04 2948.1 1127.04 3008.1 1103.04 3068.1 1089.04 3127.1 1064.03 3187.1 1070.04 3247.11 1083.04 3307.11 1048.03 3366.11 1194 3426.11 1125.04 3486.11 1072.04 3545.12 1110.04 3605.12 1131.04 3665.12 1126.04 3725.12 1178.04 3784.12 1138.04 3844.13 1108.04 3904.13 1097.04 3963.13 1119.04 4023.13 1139.04 4083 1019.03" stroke="#376C8A" stroke-width="10.3125" stroke-linecap="round" stroke-linejoin="round" stroke-miterlimit="10" fill="none"/></g><g><text font-family="Barlow,Barlow_MSFontService,sans-serif" font-weight="400" font-size="46" transform="matrix(1 0 0 1 247.703 1267)">-2.0%</text></g><g><text font-family="Barlow,Barlow_MSFontService,sans-serif" font-weight="400" font-size="46" transform="matrix(1 0 0 1 264.432 1198)">0.0%</text></g><g><text font-family="Barlow,Barlow_MSFontService,sans-serif" font-weight="400" font-size="46" transform="matrix(1 0 0 1 265.761 1129)">2.0%</text></g><g><text font-family="Barlow,Barlow_MSFontService,sans-serif" font-weight="400" font-size="46" transform="matrix(1 0 0 1 265.074 1059)">4.0%</text></g><g><text font-family="Barlow,Barlow_MSFontService,sans-serif" font-weight="400" font-size="46" transform="matrix(1 0 0 1 266.724 990)">6.0%</text></g><g><text font-family="Barlow,Barlow_MSFontService,sans-serif" font-weight="400" font-size="46" transform="matrix(1 0 0 1 266.449 920)">8.0%</text></g><g><text font-family="Barlow,Barlow_MSFontService,sans-serif" font-weight="400" font-size="46" transform="matrix(1 0 0 1 248.39 851)">10.0%</text></g><g><text font-family="Barlow,Barlow_MSFontService,sans-serif" font-weight="400" font-size="46" transform="matrix(1 0 0 1 249.719 781)">12.0%</text></g><g><text font-family="Barlow,Barlow_MSFontService,sans-serif" font-weight="400" font-size="46" transform="matrix(1 0 0 1 249.032 712)">14.0%</text></g><g><text font-family="Barlow,Barlow_MSFontService,sans-serif" font-weight="400" font-size="46" transform="matrix(1 0 0 1 250.682 642)">16.0%</text></g><g><text font-family="Barlow,Barlow_MSFontService,sans-serif" font-weight="400" font-size="46" transform="matrix(1 0 0 1 395.756 1258)">1960</text></g><g><text font-family="Barlow,Barlow_MSFontService,sans-serif" font-weight="400" font-size="46" transform="matrix(1 0 0 1 695.489 1258)">1965</text></g><g><text font-family="Barlow,Barlow_MSFontService,sans-serif" font-weight="400" font-size="46" transform="matrix(1 0 0 1 993.847 1258)">1970</text></g><g><text font-family="Barlow,Barlow_MSFontService,sans-serif" font-weight="400" font-size="46" transform="matrix(1 0 0 1 1293.58 1258)">1975</text></g><g><text font-family="Barlow,Barlow_MSFontService,sans-serif" font-weight="400" font-size="46" transform="matrix(1 0 0 1 1589.88 1258)">1980</text></g><g><text font-family="Barlow,Barlow_MSFontService,sans-serif" font-weight="400" font-size="46" transform="matrix(1 0 0 1 1889.61 1258)">1985</text></g><g><text font-family="Barlow,Barlow_MSFontService,sans-serif" font-weight="400" font-size="46" transform="matrix(1 0 0 1 2187 1258)">1990</text></g><g><text font-family="Barlow,Barlow_MSFontService,sans-serif" font-weight="400" font-size="46" transform="matrix(1 0 0 1 2486.74 1258)">1995</text></g><g><text font-family="Barlow,Barlow_MSFontService,sans-serif" font-weight="400" font-size="46" transform="matrix(1 0 0 1 2777.85 1258)">2000</text></g><g><text font-family="Barlow,Barlow_MSFontService,sans-serif" font-weight="400" font-size="46" transform="matrix(1 0 0 1 3077.59 1258)">2005</text></g><g><text font-family="Barlow,Barlow_MSFontService,sans-serif" font-weight="400" font-size="46" transform="matrix(1 0 0 1 3379.91 1258)">2010</text></g><g><text font-family="Barlow,Barlow_MSFontService,sans-serif" font-weight="400" font-size="46" transform="matrix(1 0 0 1 3679.64 1258)">2015</text></g><g><text font-family="Barlow,Barlow_MSFontService,sans-serif" font-weight="400" font-size="46" transform="matrix(1 0 0 1 3972.78 1258)">2020</text></g></g></svg>