<svg width="3365" height="470" xmlns="http://www.w3.org/2000/svg" xmlns:xlink="http://www.w3.org/1999/xlink" xml:space="preserve" overflow="hidden"><g transform="translate(-215 -1354)"><path d="M217.911 1356.94 406.649 1356.94 406.649 1818.94 217.911 1818.94Z" fill="#376C8A" fill-rule="evenodd"/><path d="M406.649 1356.94 972.863 1356.94 972.863 1472.44 406.649 1472.44Z" fill="#F2F2F2" fill-rule="evenodd"/><path d="M972.863 1356.94 3575 1356.94 3575 1472.44 972.863 1472.44Z" fill="#638FA9" fill-rule="evenodd"/><path d="M406.649 1472.44 972.863 1472.44 972.863 1587.94 406.649 1587.94Z" fill="#F2F2F2" fill-rule="evenodd"/><path d="M1959.08 1472.44 3575 1472.44 3575 1587.94 1959.08 1587.94Z" fill="#F2D9BB" fill-rule="evenodd"/><path d="M406.649 1587.94 972.863 1587.94 972.863 1703.44 406.649 1703.44Z" fill="#F2F2F2" fill-rule="evenodd"/><path d="M2674.07 1587.94 3575 1587.94 3575 1703.44 2674.07 1703.44Z" fill="#E6B127" fill-rule="evenodd"/><path d="M406.649 1703.44 972.863 1703.44 972.863 1818.94 406.649 1818.94Z" fill="#F2F2F2" fill-rule="evenodd"/><path d="M2674.07 1703.44 3575 1703.44 3575 1818.94 2674.07 1818.94Z" fill="#7F7F7F" fill-rule="evenodd"/><path d="M406.649 1354.65 406.649 1821.24" stroke="#FFFFFF" stroke-width="4.58333" stroke-linejoin="round" stroke-miterlimit="10" fill="none" fill-rule="evenodd"/><path d="M972.863 1354.65 972.863 1821.24" stroke="#FFFFFF" stroke-width="4.58333" stroke-linejoin="round" stroke-miterlimit="10" fill="none" fill-rule="evenodd"/><path d="M1959.08 1470.15 1959.08 1590.24" stroke="#FFFFFF" stroke-width="4.58333" stroke-linejoin="round" stroke-miterlimit="10" fill="none" fill-rule="evenodd"/><path d="M2674.07 1585.65 2674.07 1821.24" stroke="#FFFFFF" stroke-width="4.58333" stroke-linejoin="round" stroke-miterlimit="10" fill="none" fill-rule="evenodd"/><path d="M404.358 1472.44 3577.29 1472.44" stroke="#FFFFFF" stroke-width="4.58333" stroke-linejoin="round" stroke-miterlimit="10" fill="none" fill-rule="evenodd"/><path d="M404.358 1587.94 3577.29 1587.94" stroke="#FFFFFF" stroke-width="4.58333" stroke-linejoin="round" stroke-miterlimit="10" fill="none" fill-rule="evenodd"/><path d="M404.358 1703.44 3577.29 1703.44" stroke="#FFFFFF" stroke-width="4.58333" stroke-linejoin="round" stroke-miterlimit="10" fill="none" fill-rule="evenodd"/><path d="M217.911 1354.65 217.911 1821.24" stroke="#FFFFFF" stroke-width="4.58333" stroke-linejoin="round" stroke-miterlimit="10" fill="none" fill-rule="evenodd"/><path d="M3575 1354.65 3575 1821.24" stroke="#FFFFFF" stroke-width="4.58333" stroke-linejoin="round" stroke-miterlimit="10" fill="none" fill-rule="evenodd"/><path d="M215.619 1356.94 3577.29 1356.94" stroke="#FFFFFF" stroke-width="4.58333" stroke-linejoin="round" stroke-miterlimit="10" fill="none" fill-rule="evenodd"/><path d="M215.619 1818.94 3577.29 1818.94" stroke="#FFFFFF" stroke-width="4.58333" stroke-linejoin="round" stroke-miterlimit="10" fill="none" fill-rule="evenodd"/><text fill="#FFFFFF" font-family="Barlow,Barlow_MSFontService,sans-serif" font-weight="700" font-size="46" transform="matrix(1 0 0 1 2208.45 1433)">3.7%</text><text font-family="Montserrat SemiBold,Montserrat SemiBold_MSFontService,sans-serif" font-weight="600" font-size="46" transform="matrix(1 0 0 1 550.365 1431)">1975 </text><text font-family="Montserrat SemiBold,Montserrat SemiBold_MSFontService,sans-serif" font-weight="600" font-size="46" transform="matrix(1 0 0 1 663.803 1431)">-</text><text font-family="Montserrat SemiBold,Montserrat SemiBold_MSFontService,sans-serif" font-weight="600" font-size="46" transform="matrix(1 0 0 1 694.167 1431)">2021</text><text fill="#FFFFFF" font-family="Barlow,Barlow_MSFontService,sans-serif" font-weight="700" font-size="46" transform="matrix(6.12323e-17 -1 1 6.12323e-17 303.274 1674)">Average </text><text fill="#FFFFFF" font-family="Barlow,Barlow_MSFontService,sans-serif" font-weight="700" font-size="46" transform="matrix(6.12323e-17 -1 1 6.12323e-17 358.274 1736)">Inflation Rates</text><text fill="#FFFFFF" font-family="Barlow,Barlow_MSFontService,sans-serif" font-weight="700" font-size="46" transform="matrix(1 0 0 1 2700.12 1549)">2.8%</text><text font-family="Montserrat SemiBold,Montserrat SemiBold_MSFontService,sans-serif" font-weight="600" font-size="46" transform="matrix(1 0 0 1 549.506 1547)">1982 </text><text font-family="Montserrat SemiBold,Montserrat SemiBold_MSFontService,sans-serif" font-weight="600" font-size="46" transform="matrix(1 0 0 1 664.662 1547)">-</text><text font-family="Montserrat SemiBold,Montserrat SemiBold_MSFontService,sans-serif" font-weight="600" font-size="46" transform="matrix(1 0 0 1 695.027 1547)">2021</text><text fill="#FFFFFF" font-family="Barlow,Barlow_MSFontService,sans-serif" font-weight="700" font-size="46" transform="matrix(1 0 0 1 3049.31 1664)">2.3%</text><text fill="#FFFFFF" font-family="Barlow,Barlow_MSFontService,sans-serif" font-weight="700" font-size="31" transform="matrix(1 0 0 1 3150.14 1650)">3</text><text font-family="Montserrat SemiBold,Montserrat SemiBold_MSFontService,sans-serif" font-weight="600" font-size="46" transform="matrix(1 0 0 1 540.912 1662)">2000 </text><text font-family="Montserrat SemiBold,Montserrat SemiBold_MSFontService,sans-serif" font-weight="600" font-size="46" transform="matrix(1 0 0 1 673.256 1662)">-</text><text font-family="Montserrat SemiBold,Montserrat SemiBold_MSFontService,sans-serif" font-weight="600" font-size="46" transform="matrix(1 0 0 1 703.621 1662)">2021</text><text fill="#FFFFFF" font-family="Barlow,Barlow_MSFontService,sans-serif" font-weight="700" font-size="46" transform="matrix(1 0 0 1 3061.91 1780)">2.1%</text><text font-family="Montserrat SemiBold,Montserrat SemiBold_MSFontService,sans-serif" font-weight="600" font-size="46" transform="matrix(1 0 0 1 534.037 1778)">2000 </text><text font-family="Montserrat SemiBold,Montserrat SemiBold_MSFontService,sans-serif" font-weight="600" font-size="46" transform="matrix(1 0 0 1 666.381 1778)">-</text><text font-family="Montserrat SemiBold,Montserrat SemiBold_MSFontService,sans-serif" font-weight="600" font-size="46" transform="matrix(1 0 0 1 696.746 1778)">2020</text></g></svg>