<svg width="3964" height="726" xmlns="http://www.w3.org/2000/svg" xmlns:xlink="http://www.w3.org/1999/xlink" xml:space="preserve" overflow="hidden"><defs><clipPath id="clip0"><rect x="218" y="576" width="3964" height="726"/></clipPath></defs><g clip-path="url(#clip0)" transform="translate(-218 -576)"><g><path d="M393.5 1124.54 4127.5 1124.54M393.5 1052.53 4127.5 1052.53M393.5 981.532 4127.5 981.532M393.5 910.53 4127.5 910.53M393.5 839.528 4127.5 839.528M393.5 768.525 4127.5 768.525M393.5 697.523 4127.5 697.523M393.5 626.5 4127.5 626.5" stroke="#F2F2F2" stroke-width="3.4375" stroke-linejoin="round" stroke-miterlimit="10" fill="none"/></g><g><path d="M393.5 1195.5 4127.5 1195.5" stroke="#D9D9D9" stroke-width="3.4375" stroke-linejoin="round" stroke-miterlimit="10" fill="none" fill-rule="evenodd"/></g><g><path d="M433 911.03 512.017 968.032 592.019 985.032 671.022 964.032 751.025 843.028 830.027 687 910.03 797.026 989.032 932.031 1068.04 1071.04 1148.04 1071.04 1227.04 1085.04 1307.04 1149.04 1386.05 1046.03 1466.05 1053.03 1545.05 1028.03 1625.05 1003.03 1704.06 1064.03 1784.06 1089.04 1863.06 1103.04 1942.06 1096.04 2022.07 1103.04 2101.07 1092.04 2181.07 1121.04 2260.07 1149.04 2340.08 1106.04 2419.08 1071.04 2499.08 1103.04 2578.08 1145.04 2658.09 1121.04 2737.09 1099.04 2816.09 1049.03 2896.1 1078.04 2975.1 1113.04 3055.1 989.032 3134.1 1195 3214.11 1195 3293.11 1067.04 3373.11 1135.04 3452.11 1142.04 3532.12 1135.04 3611.12 1195 3691.12 1185.04 3770.12 1124.04 3849.13 1096.04 3929.13 1138.04 4008.13 1149.04 4088 985.032" stroke="#376C8A" stroke-width="10.3125" stroke-linecap="round" stroke-linejoin="round" stroke-miterlimit="10" fill="none"/></g><g><text font-family="Barlow,Barlow_MSFontService,sans-serif" font-weight="400" font-size="41" transform="matrix(1 0 0 1 261.567 1209)">0.0%</text></g><g><text font-family="Barlow,Barlow_MSFontService,sans-serif" font-weight="400" font-size="41" transform="matrix(1 0 0 1 262.759 1138)">2.0%</text></g><g><text font-family="Barlow,Barlow_MSFontService,sans-serif" font-weight="400" font-size="41" transform="matrix(1 0 0 1 262.14 1067)">4.0%</text></g><g><text font-family="Barlow,Barlow_MSFontService,sans-serif" font-weight="400" font-size="41" transform="matrix(1 0 0 1 263.629 996)">6.0%</text></g><g><text font-family="Barlow,Barlow_MSFontService,sans-serif" font-weight="400" font-size="41" transform="matrix(1 0 0 1 263.377 925)">8.0%</text></g><g><text font-family="Barlow,Barlow_MSFontService,sans-serif" font-weight="400" font-size="41" transform="matrix(1 0 0 1 247.129 854)">10.0%</text></g><g><text font-family="Barlow,Barlow_MSFontService,sans-serif" font-weight="400" font-size="41" transform="matrix(1 0 0 1 248.321 783)">12.0%</text></g><g><text font-family="Barlow,Barlow_MSFontService,sans-serif" font-weight="400" font-size="41" transform="matrix(1 0 0 1 247.702 712)">14.0%</text></g><g><text font-family="Barlow,Barlow_MSFontService,sans-serif" font-weight="400" font-size="41" transform="matrix(1 0 0 1 249.192 640)">16.0%</text></g><g><text font-family="Barlow,Barlow_MSFontService,sans-serif" font-weight="400" font-size="41" transform="matrix(1 0 0 1 394.521 1264)">1975</text></g><g><text font-family="Barlow,Barlow_MSFontService,sans-serif" font-weight="400" font-size="41" transform="matrix(1 0 0 1 789.762 1264)">1980</text></g><g><text font-family="Barlow,Barlow_MSFontService,sans-serif" font-weight="400" font-size="41" transform="matrix(1 0 0 1 1188.11 1264)">1985</text></g><g><text font-family="Barlow,Barlow_MSFontService,sans-serif" font-weight="400" font-size="41" transform="matrix(1 0 0 1 1584.35 1264)">1990</text></g><g><text font-family="Barlow,Barlow_MSFontService,sans-serif" font-weight="400" font-size="41" transform="matrix(1 0 0 1 1982.69 1264)">1995</text></g><g><text font-family="Barlow,Barlow_MSFontService,sans-serif" font-weight="400" font-size="41" transform="matrix(1 0 0 1 2373.28 1264)">2000</text></g><g><text font-family="Barlow,Barlow_MSFontService,sans-serif" font-weight="400" font-size="41" transform="matrix(1 0 0 1 2771.63 1264)">2005</text></g><g><text font-family="Barlow,Barlow_MSFontService,sans-serif" font-weight="400" font-size="41" transform="matrix(1 0 0 1 3172.3 1264)">2010</text></g><g><text font-family="Barlow,Barlow_MSFontService,sans-serif" font-weight="400" font-size="41" transform="matrix(1 0 0 1 3570.64 1264)">2015</text></g><g><text font-family="Barlow,Barlow_MSFontService,sans-serif" font-weight="400" font-size="41" transform="matrix(1 0 0 1 3963.04 1264)">2020</text></g></g></svg>